%TF.GenerationSoftware,KiCad,Pcbnew,(6.0.1-0)*%
%TF.CreationDate,2023-01-17T12:42:01-05:00*%
%TF.ProjectId,rear-control-board,72656172-2d63-46f6-9e74-726f6c2d626f,rev?*%
%TF.SameCoordinates,Original*%
%TF.FileFunction,Plated,1,2,PTH,Mixed*%
%TF.FilePolarity,Positive*%
%FSLAX46Y46*%
G04 Gerber Fmt 4.6, Leading zero omitted, Abs format (unit mm)*
G04 Created by KiCad (PCBNEW (6.0.1-0)) date 2023-01-17 12:42:01*
%MOMM*%
%LPD*%
G01*
G04 APERTURE LIST*
%TA.AperFunction,ViaDrill*%
%ADD10C,0.400000*%
%TD*%
%TA.AperFunction,ComponentDrill*%
%ADD11C,0.700000*%
%TD*%
%TA.AperFunction,ComponentDrill*%
%ADD12C,0.800000*%
%TD*%
%TA.AperFunction,ComponentDrill*%
%ADD13C,1.000000*%
%TD*%
%TA.AperFunction,ComponentDrill*%
%ADD14C,1.090000*%
%TD*%
%TA.AperFunction,ComponentDrill*%
%ADD15C,1.100000*%
%TD*%
%TA.AperFunction,ComponentDrill*%
%ADD16C,1.700000*%
%TD*%
%TA.AperFunction,ComponentDrill*%
%ADD17C,1.750000*%
%TD*%
%TA.AperFunction,ComponentDrill*%
%ADD18C,1.780000*%
%TD*%
G04 aperture for slot hole*
%TA.AperFunction,ComponentDrill*%
%ADD19O,1.780000X3.330000*%
%TD*%
G04 aperture for slot hole*
%TA.AperFunction,ComponentDrill*%
%ADD20O,4.000000X1.950000*%
%TD*%
G04 APERTURE END LIST*
D10*
X110500000Y-78250000D03*
X110750000Y-80500000D03*
X113250000Y-77250000D03*
X113250000Y-112250000D03*
X114250000Y-96750000D03*
X114250000Y-98250000D03*
X116445000Y-78525000D03*
X118750000Y-89000000D03*
X125750000Y-120750000D03*
X129000000Y-125750000D03*
X131000000Y-131000000D03*
X131000000Y-131000000D03*
X131500000Y-92250000D03*
X132000000Y-121250000D03*
X145500000Y-135250000D03*
X148250000Y-125750000D03*
X150250000Y-136750000D03*
X151000000Y-124500000D03*
X156250000Y-114750000D03*
X159250000Y-108250000D03*
X171750000Y-124750000D03*
X172500000Y-112750000D03*
X173500000Y-120750000D03*
X177500000Y-128750000D03*
X184000000Y-146500000D03*
X185000000Y-147000000D03*
X185750000Y-125750000D03*
X187250000Y-152500000D03*
X187623500Y-145750000D03*
X190500000Y-144500000D03*
X190500000Y-153000000D03*
X194289020Y-100750000D03*
D11*
%TO.C,K3*%
X118560000Y-105756115D03*
X118560000Y-113376115D03*
%TO.C,K2*%
X118720000Y-93351115D03*
X118720000Y-100971115D03*
X123800000Y-93351115D03*
X123800000Y-100971115D03*
%TO.C,K3*%
X126180000Y-105756115D03*
X126180000Y-113376115D03*
%TO.C,K2*%
X128880000Y-93351115D03*
X128880000Y-100971115D03*
%TO.C,K3*%
X131260000Y-105756115D03*
X131260000Y-113376115D03*
X136340000Y-105756115D03*
X136340000Y-113376115D03*
%TO.C,K2*%
X136500000Y-93351115D03*
X136500000Y-100971115D03*
D12*
%TO.C,U1*%
X164550000Y-97763440D03*
X164550000Y-100303440D03*
X164550000Y-102843440D03*
X164550000Y-105383440D03*
X164550000Y-107923440D03*
X164550000Y-110463440D03*
X164550000Y-113003440D03*
X164550000Y-115543440D03*
X164550000Y-118083440D03*
X164550000Y-120623440D03*
X164550000Y-123163440D03*
X164550000Y-125703440D03*
X164550000Y-128243440D03*
X164550000Y-130783440D03*
X164550000Y-133323440D03*
X164550000Y-135863440D03*
X164550000Y-138403440D03*
X164553680Y-92686160D03*
X164553680Y-95226160D03*
X189950000Y-92683440D03*
X189950000Y-95223440D03*
X189950000Y-97763440D03*
X189950000Y-100303440D03*
X189950000Y-102843440D03*
X189950000Y-105383440D03*
X189950000Y-107923440D03*
X189950000Y-110463440D03*
X189950000Y-113003440D03*
X189950000Y-115543440D03*
X189950000Y-118083440D03*
X189950000Y-120623440D03*
X189950000Y-123163440D03*
X189950000Y-125703440D03*
X189950000Y-128243440D03*
X189950000Y-130783440D03*
X189950000Y-133323440D03*
X189950000Y-135863440D03*
X189950000Y-138403440D03*
D13*
%TO.C,J4*%
X148892500Y-95613615D03*
X148892500Y-98113615D03*
%TO.C,J5*%
X149117500Y-107101115D03*
X149117500Y-109601115D03*
D14*
%TO.C,K1*%
X100655000Y-162010000D03*
X110815000Y-162010000D03*
D15*
%TO.C,D12*%
X85940000Y-63285000D03*
X85940000Y-65825000D03*
X85940000Y-68365000D03*
%TO.C,D11*%
X86055000Y-74710000D03*
X86055000Y-77250000D03*
X86055000Y-79790000D03*
%TO.C,D10*%
X86095000Y-86265000D03*
X86095000Y-88805000D03*
X86095000Y-91345000D03*
D16*
%TO.C,J6*%
X147527500Y-144800000D03*
X152527500Y-144800000D03*
D17*
%TO.C,J1*%
X61587500Y-77250000D03*
X61587500Y-81250000D03*
X61587500Y-85250000D03*
X61587500Y-89250000D03*
X61587500Y-93250000D03*
X61587500Y-97250000D03*
X61587500Y-101250000D03*
X61587500Y-105250000D03*
X65587500Y-79250000D03*
X65587500Y-83250000D03*
X65587500Y-87250000D03*
X65587500Y-91250000D03*
X65587500Y-95250000D03*
X65587500Y-99250000D03*
X65587500Y-103250000D03*
X69587500Y-77250000D03*
X69587500Y-81250000D03*
X69587500Y-85250000D03*
X69587500Y-89250000D03*
X69587500Y-93250000D03*
X69587500Y-97250000D03*
X69587500Y-101250000D03*
X69587500Y-105250000D03*
%TO.C,J3*%
X146000000Y-153937500D03*
X146000000Y-161937500D03*
X148000000Y-157937500D03*
X150000000Y-153937500D03*
X150000000Y-161937500D03*
X152000000Y-157937500D03*
%TO.C,J2*%
X153500000Y-66500000D03*
X153500000Y-74500000D03*
%TO.C,J3*%
X154000000Y-153937500D03*
X154000000Y-161937500D03*
%TO.C,J2*%
X155500000Y-70500000D03*
X157500000Y-66500000D03*
X157500000Y-74500000D03*
X159500000Y-70500000D03*
X161500000Y-66500000D03*
X161500000Y-74500000D03*
X163500000Y-70500000D03*
X165500000Y-66500000D03*
X165500000Y-74500000D03*
X167500000Y-70500000D03*
X169500000Y-66500000D03*
X169500000Y-74500000D03*
X171500000Y-70500000D03*
X173500000Y-66500000D03*
X173500000Y-74500000D03*
X175500000Y-70500000D03*
X177500000Y-66500000D03*
X177500000Y-74500000D03*
X179500000Y-70500000D03*
X181500000Y-66500000D03*
X181500000Y-74500000D03*
D18*
%TO.C,F11*%
X60540000Y-136550000D03*
X60540000Y-139950000D03*
X70460000Y-136550000D03*
X70460000Y-139950000D03*
D19*
%TO.C,K1*%
X95875000Y-150000000D03*
D18*
%TO.C,F6*%
X96040000Y-67300000D03*
X96040000Y-70700000D03*
%TO.C,F2*%
X96040000Y-75800000D03*
X96040000Y-79200000D03*
%TO.C,F8*%
X96040000Y-84550000D03*
X96040000Y-87950000D03*
%TO.C,F4*%
X96040000Y-92800000D03*
X96040000Y-96200000D03*
%TO.C,F7*%
X96040000Y-101300000D03*
X96040000Y-104700000D03*
%TO.C,F5*%
X96040000Y-109800000D03*
X96040000Y-113200000D03*
%TO.C,F6*%
X105960000Y-67300000D03*
X105960000Y-70700000D03*
%TO.C,F2*%
X105960000Y-75800000D03*
X105960000Y-79200000D03*
%TO.C,F8*%
X105960000Y-84550000D03*
X105960000Y-87950000D03*
%TO.C,F4*%
X105960000Y-92800000D03*
X105960000Y-96200000D03*
%TO.C,F7*%
X105960000Y-101300000D03*
X105960000Y-104700000D03*
%TO.C,F5*%
X105960000Y-109800000D03*
X105960000Y-113200000D03*
%TO.C,F9*%
X106040000Y-118800000D03*
X106040000Y-122200000D03*
%TO.C,F3*%
X106040000Y-128050000D03*
X106040000Y-131450000D03*
%TO.C,F1*%
X114040000Y-67300000D03*
X114040000Y-70700000D03*
%TO.C,F9*%
X115960000Y-118800000D03*
X115960000Y-122200000D03*
%TO.C,F3*%
X115960000Y-128050000D03*
X115960000Y-131450000D03*
%TO.C,F1*%
X123960000Y-67300000D03*
X123960000Y-70700000D03*
%TO.C,F10*%
X136050000Y-123790000D03*
X136050000Y-133710000D03*
X139450000Y-123790000D03*
X139450000Y-133710000D03*
D20*
%TO.C,K1*%
X114625000Y-146570000D03*
M02*
