%TF.GenerationSoftware,KiCad,Pcbnew,(6.0.1-0)*%
%TF.CreationDate,2023-02-28T13:23:54-05:00*%
%TF.ProjectId,rear-control-board,72656172-2d63-46f6-9e74-726f6c2d626f,rev?*%
%TF.SameCoordinates,Original*%
%TF.FileFunction,Paste,Top*%
%TF.FilePolarity,Positive*%
%FSLAX46Y46*%
G04 Gerber Fmt 4.6, Leading zero omitted, Abs format (unit mm)*
G04 Created by KiCad (PCBNEW (6.0.1-0)) date 2023-02-28 13:23:54*
%MOMM*%
%LPD*%
G01*
G04 APERTURE LIST*
G04 Aperture macros list*
%AMRoundRect*
0 Rectangle with rounded corners*
0 $1 Rounding radius*
0 $2 $3 $4 $5 $6 $7 $8 $9 X,Y pos of 4 corners*
0 Add a 4 corners polygon primitive as box body*
4,1,4,$2,$3,$4,$5,$6,$7,$8,$9,$2,$3,0*
0 Add four circle primitives for the rounded corners*
1,1,$1+$1,$2,$3*
1,1,$1+$1,$4,$5*
1,1,$1+$1,$6,$7*
1,1,$1+$1,$8,$9*
0 Add four rect primitives between the rounded corners*
20,1,$1+$1,$2,$3,$4,$5,0*
20,1,$1+$1,$4,$5,$6,$7,0*
20,1,$1+$1,$6,$7,$8,$9,0*
20,1,$1+$1,$8,$9,$2,$3,0*%
G04 Aperture macros list end*
%ADD10R,1.200000X0.900000*%
%ADD11R,0.800000X1.500000*%
%ADD12R,1.450000X2.000000*%
%ADD13RoundRect,0.237500X-0.300000X-0.237500X0.300000X-0.237500X0.300000X0.237500X-0.300000X0.237500X0*%
%ADD14RoundRect,0.041300X-0.253700X0.943700X-0.253700X-0.943700X0.253700X-0.943700X0.253700X0.943700X0*%
%ADD15RoundRect,0.237500X-0.237500X0.250000X-0.237500X-0.250000X0.237500X-0.250000X0.237500X0.250000X0*%
%ADD16RoundRect,0.237500X-0.237500X0.287500X-0.237500X-0.287500X0.237500X-0.287500X0.237500X0.287500X0*%
%ADD17RoundRect,0.237500X0.237500X-0.250000X0.237500X0.250000X-0.237500X0.250000X-0.237500X-0.250000X0*%
%ADD18RoundRect,0.237500X0.300000X0.237500X-0.300000X0.237500X-0.300000X-0.237500X0.300000X-0.237500X0*%
%ADD19RoundRect,0.237500X0.237500X-0.300000X0.237500X0.300000X-0.237500X0.300000X-0.237500X-0.300000X0*%
%ADD20RoundRect,0.150000X0.150000X-0.587500X0.150000X0.587500X-0.150000X0.587500X-0.150000X-0.587500X0*%
%ADD21RoundRect,0.237500X0.250000X0.237500X-0.250000X0.237500X-0.250000X-0.237500X0.250000X-0.237500X0*%
%ADD22RoundRect,0.150000X-0.150000X0.587500X-0.150000X-0.587500X0.150000X-0.587500X0.150000X0.587500X0*%
%ADD23R,3.050000X2.750000*%
%ADD24R,2.200000X1.200000*%
G04 APERTURE END LIST*
D10*
%TO.C,D5*%
X141750000Y-110001115D03*
X141750000Y-106701115D03*
%TD*%
D11*
%TO.C,J7*%
X185050000Y-154872500D03*
X186150000Y-154872500D03*
X187250000Y-154872500D03*
X188350000Y-154872500D03*
X189450000Y-154872500D03*
X190550000Y-154872500D03*
X191650000Y-154872500D03*
X192750000Y-154872500D03*
D12*
X181375000Y-160572500D03*
X181375000Y-152272500D03*
X195125000Y-152272500D03*
X195125000Y-160572500D03*
%TD*%
D13*
%TO.C,C12*%
X149525000Y-123250000D03*
X151250000Y-123250000D03*
%TD*%
D14*
%TO.C,U4*%
X152155000Y-125775000D03*
X150885000Y-125775000D03*
X149615000Y-125775000D03*
X148345000Y-125775000D03*
X148345000Y-130725000D03*
X149615000Y-130725000D03*
X150885000Y-130725000D03*
X152155000Y-130725000D03*
%TD*%
D15*
%TO.C,R1*%
X140500000Y-85337500D03*
X140500000Y-87162500D03*
%TD*%
%TO.C,R9*%
X142250000Y-87337500D03*
X142250000Y-89162500D03*
%TD*%
D16*
%TO.C,D1*%
X111250000Y-80850000D03*
X111250000Y-82600000D03*
%TD*%
D17*
%TO.C,R3*%
X138750000Y-89162500D03*
X138750000Y-87337500D03*
%TD*%
D18*
%TO.C,C4*%
X113500000Y-85250000D03*
X111775000Y-85250000D03*
%TD*%
D19*
%TO.C,C8*%
X145250000Y-125225000D03*
X145250000Y-123500000D03*
%TD*%
D10*
%TO.C,D4*%
X141000000Y-99150000D03*
X141000000Y-95850000D03*
%TD*%
D20*
%TO.C,D9*%
X149300000Y-137687500D03*
X151200000Y-137687500D03*
X150250000Y-135812500D03*
%TD*%
D21*
%TO.C,R4*%
X160412500Y-105500000D03*
X158587500Y-105500000D03*
%TD*%
D22*
%TO.C,D6*%
X170700000Y-79812500D03*
X168800000Y-79812500D03*
X169750000Y-81687500D03*
%TD*%
D21*
%TO.C,R6*%
X151162500Y-133250000D03*
X149337500Y-133250000D03*
%TD*%
%TO.C,R7*%
X160412500Y-113000000D03*
X158587500Y-113000000D03*
%TD*%
D13*
%TO.C,C1*%
X117862500Y-75975000D03*
X119587500Y-75975000D03*
%TD*%
D17*
%TO.C,R2*%
X124475000Y-85637500D03*
X124475000Y-83812500D03*
%TD*%
D16*
%TO.C,D8*%
X124475000Y-78600000D03*
X124475000Y-80350000D03*
%TD*%
D22*
%TO.C,Q1*%
X149450000Y-85312500D03*
X147550000Y-85312500D03*
X148500000Y-87187500D03*
%TD*%
D23*
%TO.C,U2*%
X118425000Y-82025000D03*
X121775000Y-78975000D03*
X121775000Y-82025000D03*
X118425000Y-78975000D03*
D24*
X113800000Y-78220000D03*
X113800000Y-82780000D03*
%TD*%
D22*
%TO.C,D2*%
X164450000Y-79750000D03*
X162550000Y-79750000D03*
X163500000Y-81625000D03*
%TD*%
M02*
