%TF.GenerationSoftware,KiCad,Pcbnew,(6.0.1-0)*%
%TF.CreationDate,2023-02-28T13:23:55-05:00*%
%TF.ProjectId,rear-control-board,72656172-2d63-46f6-9e74-726f6c2d626f,rev?*%
%TF.SameCoordinates,Original*%
%TF.FileFunction,Soldermask,Bot*%
%TF.FilePolarity,Negative*%
%FSLAX46Y46*%
G04 Gerber Fmt 4.6, Leading zero omitted, Abs format (unit mm)*
G04 Created by KiCad (PCBNEW (6.0.1-0)) date 2023-02-28 13:23:55*
%MOMM*%
%LPD*%
G01*
G04 APERTURE LIST*
G04 Aperture macros list*
%AMRoundRect*
0 Rectangle with rounded corners*
0 $1 Rounding radius*
0 $2 $3 $4 $5 $6 $7 $8 $9 X,Y pos of 4 corners*
0 Add a 4 corners polygon primitive as box body*
4,1,4,$2,$3,$4,$5,$6,$7,$8,$9,$2,$3,0*
0 Add four circle primitives for the rounded corners*
1,1,$1+$1,$2,$3*
1,1,$1+$1,$4,$5*
1,1,$1+$1,$6,$7*
1,1,$1+$1,$8,$9*
0 Add four rect primitives between the rounded corners*
20,1,$1+$1,$2,$3,$4,$5,0*
20,1,$1+$1,$4,$5,$6,$7,0*
20,1,$1+$1,$6,$7,$8,$9,0*
20,1,$1+$1,$8,$9,$2,$3,0*%
%AMFreePoly0*
4,1,6,1.000000,0.000000,0.500000,-0.750000,-0.500000,-0.750000,-0.500000,0.750000,0.500000,0.750000,1.000000,0.000000,1.000000,0.000000,$1*%
%AMFreePoly1*
4,1,6,0.500000,-0.750000,-0.650000,-0.750000,-0.150000,0.000000,-0.650000,0.750000,0.500000,0.750000,0.500000,-0.750000,0.500000,-0.750000,$1*%
G04 Aperture macros list end*
%ADD10C,2.780000*%
%ADD11C,3.200000*%
%ADD12R,2.000000X1.905000*%
%ADD13O,2.000000X1.905000*%
%ADD14R,1.400000X1.400000*%
%ADD15C,1.400000*%
%ADD16R,2.000000X1.200000*%
%ADD17O,2.000000X1.200000*%
%ADD18C,1.200000*%
%ADD19RoundRect,0.250000X-0.750000X0.600000X-0.750000X-0.600000X0.750000X-0.600000X0.750000X0.600000X0*%
%ADD20O,2.000000X1.700000*%
%ADD21C,1.635000*%
%ADD22O,2.670000X5.340000*%
%ADD23O,5.850000X2.925000*%
%ADD24C,2.850000*%
%ADD25R,2.625000X2.625000*%
%ADD26C,2.625000*%
%ADD27R,2.000000X2.000000*%
%ADD28C,2.000000*%
%ADD29RoundRect,0.250001X1.099999X1.099999X-1.099999X1.099999X-1.099999X-1.099999X1.099999X-1.099999X0*%
%ADD30C,2.700000*%
%ADD31RoundRect,0.237500X-0.237500X0.300000X-0.237500X-0.300000X0.237500X-0.300000X0.237500X0.300000X0*%
%ADD32R,2.200000X1.200000*%
%ADD33R,6.400000X5.800000*%
%ADD34FreePoly0,180.000000*%
%ADD35FreePoly1,180.000000*%
%ADD36RoundRect,0.237500X0.237500X-0.250000X0.237500X0.250000X-0.237500X0.250000X-0.237500X-0.250000X0*%
%ADD37RoundRect,0.237500X0.237500X-0.300000X0.237500X0.300000X-0.237500X0.300000X-0.237500X-0.300000X0*%
%ADD38RoundRect,0.237500X0.300000X0.237500X-0.300000X0.237500X-0.300000X-0.237500X0.300000X-0.237500X0*%
%ADD39RoundRect,0.237500X-0.237500X0.250000X-0.237500X-0.250000X0.237500X-0.250000X0.237500X0.250000X0*%
%ADD40RoundRect,0.150000X0.587500X0.150000X-0.587500X0.150000X-0.587500X-0.150000X0.587500X-0.150000X0*%
G04 APERTURE END LIST*
D10*
%TO.C,F6*%
X105960000Y-67300000D03*
X105960000Y-70700000D03*
X96040000Y-70700000D03*
X96040000Y-67300000D03*
%TD*%
D11*
%TO.C,H1*%
X182500000Y-85000000D03*
%TD*%
%TO.C,H2*%
X70500000Y-155750000D03*
%TD*%
D12*
%TO.C,D10*%
X90750000Y-91500000D03*
D13*
X90750000Y-88960000D03*
X90750000Y-86420000D03*
%TD*%
D10*
%TO.C,F1*%
X114040000Y-67300000D03*
X114040000Y-70700000D03*
X123960000Y-67300000D03*
X123960000Y-70700000D03*
%TD*%
%TO.C,F9*%
X86040000Y-119050000D03*
X86040000Y-122450000D03*
X95960000Y-119050000D03*
X95960000Y-122450000D03*
%TD*%
D14*
%TO.C,K2*%
X136500000Y-93351115D03*
D15*
X128880000Y-93351115D03*
X123800000Y-93351115D03*
X118720000Y-93351115D03*
X118720000Y-100971115D03*
X123800000Y-100971115D03*
X128880000Y-100971115D03*
X136500000Y-100971115D03*
%TD*%
D16*
%TO.C,U1*%
X189950000Y-138403440D03*
D17*
X189950000Y-135863440D03*
X189950000Y-133323440D03*
X189950000Y-130783440D03*
X189950000Y-128243440D03*
X189950000Y-125703440D03*
X189950000Y-123163440D03*
X189950000Y-120623440D03*
X189950000Y-118083440D03*
X189950000Y-115543440D03*
X189950000Y-113003440D03*
X189950000Y-110463440D03*
X189950000Y-107923440D03*
X189950000Y-105383440D03*
X189950000Y-102843440D03*
X189950000Y-100303440D03*
X189950000Y-97763440D03*
X189950000Y-95223440D03*
X189950000Y-92683440D03*
X164553680Y-92686160D03*
X164553680Y-95226160D03*
X164550000Y-97763440D03*
X164550000Y-100303440D03*
X164550000Y-102843440D03*
X164550000Y-105383440D03*
X164550000Y-107923440D03*
X164550000Y-110463440D03*
X164550000Y-113003440D03*
X164550000Y-115543440D03*
X164550000Y-118083440D03*
X164550000Y-120623440D03*
X164550000Y-123163440D03*
X164550000Y-125703440D03*
X164550000Y-128243440D03*
X164550000Y-130783440D03*
X164550000Y-133323440D03*
X164550000Y-135863440D03*
X164550000Y-138403440D03*
%TD*%
D18*
%TO.C,J4*%
X146750000Y-94150000D03*
D19*
X148750000Y-95750000D03*
D20*
X148750000Y-98250000D03*
%TD*%
D21*
%TO.C,K1*%
X102277550Y-156344100D03*
X92117550Y-156344100D03*
D22*
X87337550Y-144334100D03*
D23*
X106087550Y-140904100D03*
%TD*%
D10*
%TO.C,F4*%
X105960000Y-96200000D03*
X105960000Y-92800000D03*
X96040000Y-92800000D03*
X96040000Y-96200000D03*
%TD*%
D24*
%TO.C,J3*%
X160500000Y-158437500D03*
X139500000Y-158437500D03*
D25*
X146000000Y-153937500D03*
D26*
X150000000Y-153937500D03*
X154000000Y-153937500D03*
X148000000Y-157937500D03*
X152000000Y-157937500D03*
X146000000Y-161937500D03*
X150000000Y-161937500D03*
X154000000Y-161937500D03*
%TD*%
D27*
%TO.C,K6*%
X85000000Y-75250000D03*
D28*
X82460000Y-75250000D03*
X74840000Y-75250000D03*
X74840000Y-80330000D03*
X82460000Y-80330000D03*
X85000000Y-80330000D03*
%TD*%
D10*
%TO.C,F8*%
X105960000Y-84550000D03*
X105960000Y-87950000D03*
X96040000Y-84550000D03*
X96040000Y-87950000D03*
%TD*%
D27*
%TO.C,K5*%
X75542500Y-91657500D03*
D28*
X78082500Y-91657500D03*
X85702500Y-91657500D03*
X85702500Y-86577500D03*
X78082500Y-86577500D03*
X75542500Y-86577500D03*
%TD*%
D12*
%TO.C,D11*%
X90695000Y-80290000D03*
D13*
X90695000Y-77750000D03*
X90695000Y-75210000D03*
%TD*%
D10*
%TO.C,F7*%
X105960000Y-104700000D03*
X105960000Y-101300000D03*
X96040000Y-104700000D03*
X96040000Y-101300000D03*
%TD*%
D27*
%TO.C,K4*%
X75292500Y-68127583D03*
D28*
X77832500Y-68127583D03*
X85452500Y-68127583D03*
X85452500Y-63047583D03*
X77832500Y-63047583D03*
X75292500Y-63047583D03*
%TD*%
D10*
%TO.C,F10*%
X126040000Y-122700000D03*
X126040000Y-119300000D03*
X135960000Y-119300000D03*
X135960000Y-122700000D03*
%TD*%
D18*
%TO.C,J5*%
X147117500Y-105501115D03*
D19*
X149117500Y-107101115D03*
D20*
X149117500Y-109601115D03*
%TD*%
D10*
%TO.C,F11*%
X71960000Y-136550000D03*
X71960000Y-139950000D03*
X62040000Y-139950000D03*
X62040000Y-136550000D03*
%TD*%
%TO.C,F2*%
X105960000Y-75800000D03*
X105960000Y-79200000D03*
X96040000Y-79200000D03*
X96040000Y-75800000D03*
%TD*%
D14*
%TO.C,K3*%
X118560000Y-113376115D03*
D15*
X126180000Y-113376115D03*
X131260000Y-113376115D03*
X136340000Y-113376115D03*
X136340000Y-105756115D03*
X131260000Y-105756115D03*
X126180000Y-105756115D03*
X118560000Y-105756115D03*
%TD*%
D24*
%TO.C,J1*%
X65087500Y-111750000D03*
X65087500Y-70750000D03*
D25*
X69587500Y-77250000D03*
D26*
X69587500Y-81250000D03*
X69587500Y-85250000D03*
X69587500Y-89250000D03*
X69587500Y-93250000D03*
X69587500Y-97250000D03*
X69587500Y-101250000D03*
X69587500Y-105250000D03*
X65587500Y-79250000D03*
X65587500Y-83250000D03*
X65587500Y-87250000D03*
X65587500Y-91250000D03*
X65587500Y-95250000D03*
X65587500Y-99250000D03*
X65587500Y-103250000D03*
X61587500Y-77250000D03*
X61587500Y-81250000D03*
X61587500Y-85250000D03*
X61587500Y-89250000D03*
X61587500Y-93250000D03*
X61587500Y-97250000D03*
X61587500Y-101250000D03*
X61587500Y-105250000D03*
%TD*%
D10*
%TO.C,F5*%
X105960000Y-109800000D03*
X105960000Y-113200000D03*
X96040000Y-113200000D03*
X96040000Y-109800000D03*
%TD*%
%TO.C,F3*%
X105790000Y-119300000D03*
X105790000Y-122700000D03*
X115710000Y-119300000D03*
X115710000Y-122700000D03*
%TD*%
D24*
%TO.C,J2*%
X188000000Y-70000000D03*
X147000000Y-70000000D03*
D25*
X181500000Y-74500000D03*
D26*
X177500000Y-74500000D03*
X173500000Y-74500000D03*
X169500000Y-74500000D03*
X165500000Y-74500000D03*
X161500000Y-74500000D03*
X157500000Y-74500000D03*
X153500000Y-74500000D03*
X179500000Y-70500000D03*
X175500000Y-70500000D03*
X171500000Y-70500000D03*
X167500000Y-70500000D03*
X163500000Y-70500000D03*
X159500000Y-70500000D03*
X155500000Y-70500000D03*
X181500000Y-66500000D03*
X177500000Y-66500000D03*
X173500000Y-66500000D03*
X169500000Y-66500000D03*
X165500000Y-66500000D03*
X161500000Y-66500000D03*
X157500000Y-66500000D03*
X153500000Y-66500000D03*
%TD*%
D29*
%TO.C,J6*%
X152527500Y-144800000D03*
D30*
X147527500Y-144800000D03*
%TD*%
D12*
%TO.C,D12*%
X90750000Y-68000000D03*
D13*
X90750000Y-62920000D03*
X90750000Y-65460000D03*
%TD*%
D31*
%TO.C,C2*%
X73000000Y-64637500D03*
X73000000Y-66362500D03*
%TD*%
D32*
%TO.C,D3*%
X75800000Y-128470000D03*
D33*
X69500000Y-130750000D03*
D32*
X75800000Y-133030000D03*
%TD*%
D34*
%TO.C,JP1*%
X149250000Y-82500000D03*
D35*
X147800000Y-82500000D03*
%TD*%
D36*
%TO.C,R8*%
X147000000Y-118162500D03*
X147000000Y-116337500D03*
%TD*%
D37*
%TO.C,C13*%
X77750000Y-76862500D03*
X77750000Y-75137500D03*
%TD*%
D38*
%TO.C,C3*%
X87862500Y-95500000D03*
X86137500Y-95500000D03*
%TD*%
D39*
%TO.C,R5*%
X144000000Y-116337500D03*
X144000000Y-118162500D03*
%TD*%
D40*
%TO.C,D7*%
X183187500Y-120800000D03*
X183187500Y-122700000D03*
X181312500Y-121750000D03*
%TD*%
M02*
