%TF.GenerationSoftware,KiCad,Pcbnew,(6.0.1-0)*%
%TF.CreationDate,2023-02-28T13:23:54-05:00*%
%TF.ProjectId,rear-control-board,72656172-2d63-46f6-9e74-726f6c2d626f,rev?*%
%TF.SameCoordinates,Original*%
%TF.FileFunction,Legend,Top*%
%TF.FilePolarity,Positive*%
%FSLAX46Y46*%
G04 Gerber Fmt 4.6, Leading zero omitted, Abs format (unit mm)*
G04 Created by KiCad (PCBNEW (6.0.1-0)) date 2023-02-28 13:23:54*
%MOMM*%
%LPD*%
G01*
G04 APERTURE LIST*
%ADD10C,0.300000*%
%ADD11C,0.150000*%
%ADD12C,0.015000*%
%ADD13C,0.050000*%
%ADD14C,0.120000*%
%ADD15C,0.127000*%
%ADD16C,0.200000*%
%ADD17C,0.500000*%
%ADD18C,2.850000*%
G04 APERTURE END LIST*
D10*
X68285714Y-146721071D02*
X67785714Y-146006785D01*
X67428571Y-146721071D02*
X67428571Y-145221071D01*
X68000000Y-145221071D01*
X68142857Y-145292500D01*
X68214285Y-145363928D01*
X68285714Y-145506785D01*
X68285714Y-145721071D01*
X68214285Y-145863928D01*
X68142857Y-145935357D01*
X68000000Y-146006785D01*
X67428571Y-146006785D01*
X69785714Y-146578214D02*
X69714285Y-146649642D01*
X69500000Y-146721071D01*
X69357142Y-146721071D01*
X69142857Y-146649642D01*
X69000000Y-146506785D01*
X68928571Y-146363928D01*
X68857142Y-146078214D01*
X68857142Y-145863928D01*
X68928571Y-145578214D01*
X69000000Y-145435357D01*
X69142857Y-145292500D01*
X69357142Y-145221071D01*
X69500000Y-145221071D01*
X69714285Y-145292500D01*
X69785714Y-145363928D01*
X70928571Y-145935357D02*
X71142857Y-146006785D01*
X71214285Y-146078214D01*
X71285714Y-146221071D01*
X71285714Y-146435357D01*
X71214285Y-146578214D01*
X71142857Y-146649642D01*
X71000000Y-146721071D01*
X70428571Y-146721071D01*
X70428571Y-145221071D01*
X70928571Y-145221071D01*
X71071428Y-145292500D01*
X71142857Y-145363928D01*
X71214285Y-145506785D01*
X71214285Y-145649642D01*
X71142857Y-145792500D01*
X71071428Y-145863928D01*
X70928571Y-145935357D01*
X70428571Y-145935357D01*
X72857142Y-145221071D02*
X73357142Y-146721071D01*
X73857142Y-145221071D01*
X74285714Y-145363928D02*
X74357142Y-145292500D01*
X74500000Y-145221071D01*
X74857142Y-145221071D01*
X75000000Y-145292500D01*
X75071428Y-145363928D01*
X75142857Y-145506785D01*
X75142857Y-145649642D01*
X75071428Y-145863928D01*
X74214285Y-146721071D01*
X75142857Y-146721071D01*
X62892857Y-148993214D02*
X62821428Y-149064642D01*
X62607142Y-149136071D01*
X62464285Y-149136071D01*
X62250000Y-149064642D01*
X62107142Y-148921785D01*
X62035714Y-148778928D01*
X61964285Y-148493214D01*
X61964285Y-148278928D01*
X62035714Y-147993214D01*
X62107142Y-147850357D01*
X62250000Y-147707500D01*
X62464285Y-147636071D01*
X62607142Y-147636071D01*
X62821428Y-147707500D01*
X62892857Y-147778928D01*
X63535714Y-148993214D02*
X63607142Y-149064642D01*
X63535714Y-149136071D01*
X63464285Y-149064642D01*
X63535714Y-148993214D01*
X63535714Y-149136071D01*
X65035714Y-147707500D02*
X64892857Y-147636071D01*
X64678571Y-147636071D01*
X64464285Y-147707500D01*
X64321428Y-147850357D01*
X64250000Y-147993214D01*
X64178571Y-148278928D01*
X64178571Y-148493214D01*
X64250000Y-148778928D01*
X64321428Y-148921785D01*
X64464285Y-149064642D01*
X64678571Y-149136071D01*
X64821428Y-149136071D01*
X65035714Y-149064642D01*
X65107142Y-148993214D01*
X65107142Y-148493214D01*
X64821428Y-148493214D01*
X65750000Y-149136071D02*
X65750000Y-148136071D01*
X65750000Y-148421785D02*
X65821428Y-148278928D01*
X65892857Y-148207500D01*
X66035714Y-148136071D01*
X66178571Y-148136071D01*
X67321428Y-148136071D02*
X67321428Y-149136071D01*
X66678571Y-148136071D02*
X66678571Y-148921785D01*
X66750000Y-149064642D01*
X66892857Y-149136071D01*
X67107142Y-149136071D01*
X67250000Y-149064642D01*
X67321428Y-148993214D01*
X68035714Y-148136071D02*
X68035714Y-149136071D01*
X68035714Y-148278928D02*
X68107142Y-148207500D01*
X68250000Y-148136071D01*
X68464285Y-148136071D01*
X68607142Y-148207500D01*
X68678571Y-148350357D01*
X68678571Y-149136071D01*
X70035714Y-149136071D02*
X70035714Y-147636071D01*
X70035714Y-149064642D02*
X69892857Y-149136071D01*
X69607142Y-149136071D01*
X69464285Y-149064642D01*
X69392857Y-148993214D01*
X69321428Y-148850357D01*
X69321428Y-148421785D01*
X69392857Y-148278928D01*
X69464285Y-148207500D01*
X69607142Y-148136071D01*
X69892857Y-148136071D01*
X70035714Y-148207500D01*
X72607142Y-147636071D02*
X71892857Y-147636071D01*
X71821428Y-148350357D01*
X71892857Y-148278928D01*
X72035714Y-148207500D01*
X72392857Y-148207500D01*
X72535714Y-148278928D01*
X72607142Y-148350357D01*
X72678571Y-148493214D01*
X72678571Y-148850357D01*
X72607142Y-148993214D01*
X72535714Y-149064642D01*
X72392857Y-149136071D01*
X72035714Y-149136071D01*
X71892857Y-149064642D01*
X71821428Y-148993214D01*
X73250000Y-147778928D02*
X73321428Y-147707500D01*
X73464285Y-147636071D01*
X73821428Y-147636071D01*
X73964285Y-147707500D01*
X74035714Y-147778928D01*
X74107142Y-147921785D01*
X74107142Y-148064642D01*
X74035714Y-148278928D01*
X73178571Y-149136071D01*
X74107142Y-149136071D01*
X74750000Y-148993214D02*
X74821428Y-149064642D01*
X74750000Y-149136071D01*
X74678571Y-149064642D01*
X74750000Y-148993214D01*
X74750000Y-149136071D01*
X75392857Y-147778928D02*
X75464285Y-147707500D01*
X75607142Y-147636071D01*
X75964285Y-147636071D01*
X76107142Y-147707500D01*
X76178571Y-147778928D01*
X76250000Y-147921785D01*
X76250000Y-148064642D01*
X76178571Y-148278928D01*
X75321428Y-149136071D01*
X76250000Y-149136071D01*
X77178571Y-147636071D02*
X77321428Y-147636071D01*
X77464285Y-147707500D01*
X77535714Y-147778928D01*
X77607142Y-147921785D01*
X77678571Y-148207500D01*
X77678571Y-148564642D01*
X77607142Y-148850357D01*
X77535714Y-148993214D01*
X77464285Y-149064642D01*
X77321428Y-149136071D01*
X77178571Y-149136071D01*
X77035714Y-149064642D01*
X76964285Y-148993214D01*
X76892857Y-148850357D01*
X76821428Y-148564642D01*
X76821428Y-148207500D01*
X76892857Y-147921785D01*
X76964285Y-147778928D01*
X77035714Y-147707500D01*
X77178571Y-147636071D01*
X78250000Y-147778928D02*
X78321428Y-147707500D01*
X78464285Y-147636071D01*
X78821428Y-147636071D01*
X78964285Y-147707500D01*
X79035714Y-147778928D01*
X79107142Y-147921785D01*
X79107142Y-148064642D01*
X79035714Y-148278928D01*
X78178571Y-149136071D01*
X79107142Y-149136071D01*
X79607142Y-147636071D02*
X80535714Y-147636071D01*
X80035714Y-148207500D01*
X80250000Y-148207500D01*
X80392857Y-148278928D01*
X80464285Y-148350357D01*
X80535714Y-148493214D01*
X80535714Y-148850357D01*
X80464285Y-148993214D01*
X80392857Y-149064642D01*
X80250000Y-149136071D01*
X79821428Y-149136071D01*
X79678571Y-149064642D01*
X79607142Y-148993214D01*
D11*
%TO.C,F6*%
X100666666Y-73298571D02*
X100333333Y-73298571D01*
X100333333Y-73822380D02*
X100333333Y-72822380D01*
X100809523Y-72822380D01*
X101619047Y-72822380D02*
X101428571Y-72822380D01*
X101333333Y-72870000D01*
X101285714Y-72917619D01*
X101190476Y-73060476D01*
X101142857Y-73250952D01*
X101142857Y-73631904D01*
X101190476Y-73727142D01*
X101238095Y-73774761D01*
X101333333Y-73822380D01*
X101523809Y-73822380D01*
X101619047Y-73774761D01*
X101666666Y-73727142D01*
X101714285Y-73631904D01*
X101714285Y-73393809D01*
X101666666Y-73298571D01*
X101619047Y-73250952D01*
X101523809Y-73203333D01*
X101333333Y-73203333D01*
X101238095Y-73250952D01*
X101190476Y-73298571D01*
X101142857Y-73393809D01*
%TO.C,H1*%
X181738095Y-81252380D02*
X181738095Y-80252380D01*
X181738095Y-80728571D02*
X182309523Y-80728571D01*
X182309523Y-81252380D02*
X182309523Y-80252380D01*
X183309523Y-81252380D02*
X182738095Y-81252380D01*
X183023809Y-81252380D02*
X183023809Y-80252380D01*
X182928571Y-80395238D01*
X182833333Y-80490476D01*
X182738095Y-80538095D01*
%TO.C,H2*%
X69738095Y-152002380D02*
X69738095Y-151002380D01*
X69738095Y-151478571D02*
X70309523Y-151478571D01*
X70309523Y-152002380D02*
X70309523Y-151002380D01*
X70738095Y-151097619D02*
X70785714Y-151050000D01*
X70880952Y-151002380D01*
X71119047Y-151002380D01*
X71214285Y-151050000D01*
X71261904Y-151097619D01*
X71309523Y-151192857D01*
X71309523Y-151288095D01*
X71261904Y-151430952D01*
X70690476Y-152002380D01*
X71309523Y-152002380D01*
%TO.C,D5*%
X142202380Y-112839210D02*
X141202380Y-112839210D01*
X141202380Y-112601115D01*
X141250000Y-112458257D01*
X141345238Y-112363019D01*
X141440476Y-112315400D01*
X141630952Y-112267781D01*
X141773809Y-112267781D01*
X141964285Y-112315400D01*
X142059523Y-112363019D01*
X142154761Y-112458257D01*
X142202380Y-112601115D01*
X142202380Y-112839210D01*
X141202380Y-111363019D02*
X141202380Y-111839210D01*
X141678571Y-111886829D01*
X141630952Y-111839210D01*
X141583333Y-111743972D01*
X141583333Y-111505876D01*
X141630952Y-111410638D01*
X141678571Y-111363019D01*
X141773809Y-111315400D01*
X142011904Y-111315400D01*
X142107142Y-111363019D01*
X142154761Y-111410638D01*
X142202380Y-111505876D01*
X142202380Y-111743972D01*
X142154761Y-111839210D01*
X142107142Y-111886829D01*
%TO.C,D10*%
X88702380Y-90174285D02*
X87702380Y-90174285D01*
X87702380Y-89936190D01*
X87750000Y-89793333D01*
X87845238Y-89698095D01*
X87940476Y-89650476D01*
X88130952Y-89602857D01*
X88273809Y-89602857D01*
X88464285Y-89650476D01*
X88559523Y-89698095D01*
X88654761Y-89793333D01*
X88702380Y-89936190D01*
X88702380Y-90174285D01*
X88702380Y-88650476D02*
X88702380Y-89221904D01*
X88702380Y-88936190D02*
X87702380Y-88936190D01*
X87845238Y-89031428D01*
X87940476Y-89126666D01*
X87988095Y-89221904D01*
X87702380Y-88031428D02*
X87702380Y-87936190D01*
X87750000Y-87840952D01*
X87797619Y-87793333D01*
X87892857Y-87745714D01*
X88083333Y-87698095D01*
X88321428Y-87698095D01*
X88511904Y-87745714D01*
X88607142Y-87793333D01*
X88654761Y-87840952D01*
X88702380Y-87936190D01*
X88702380Y-88031428D01*
X88654761Y-88126666D01*
X88607142Y-88174285D01*
X88511904Y-88221904D01*
X88321428Y-88269523D01*
X88083333Y-88269523D01*
X87892857Y-88221904D01*
X87797619Y-88174285D01*
X87750000Y-88126666D01*
X87702380Y-88031428D01*
%TO.C,F1*%
X118666666Y-64558571D02*
X118333333Y-64558571D01*
X118333333Y-65082380D02*
X118333333Y-64082380D01*
X118809523Y-64082380D01*
X119714285Y-65082380D02*
X119142857Y-65082380D01*
X119428571Y-65082380D02*
X119428571Y-64082380D01*
X119333333Y-64225238D01*
X119238095Y-64320476D01*
X119142857Y-64368095D01*
%TO.C,J7*%
X187916666Y-147884880D02*
X187916666Y-148599166D01*
X187869047Y-148742023D01*
X187773809Y-148837261D01*
X187630952Y-148884880D01*
X187535714Y-148884880D01*
X188297619Y-147884880D02*
X188964285Y-147884880D01*
X188535714Y-148884880D01*
%TO.C,F9*%
X90666666Y-116308571D02*
X90333333Y-116308571D01*
X90333333Y-116832380D02*
X90333333Y-115832380D01*
X90809523Y-115832380D01*
X91238095Y-116832380D02*
X91428571Y-116832380D01*
X91523809Y-116784761D01*
X91571428Y-116737142D01*
X91666666Y-116594285D01*
X91714285Y-116403809D01*
X91714285Y-116022857D01*
X91666666Y-115927619D01*
X91619047Y-115880000D01*
X91523809Y-115832380D01*
X91333333Y-115832380D01*
X91238095Y-115880000D01*
X91190476Y-115927619D01*
X91142857Y-116022857D01*
X91142857Y-116260952D01*
X91190476Y-116356190D01*
X91238095Y-116403809D01*
X91333333Y-116451428D01*
X91523809Y-116451428D01*
X91619047Y-116403809D01*
X91666666Y-116356190D01*
X91714285Y-116260952D01*
%TO.C,C12*%
X149744642Y-122177142D02*
X149697023Y-122224761D01*
X149554166Y-122272380D01*
X149458928Y-122272380D01*
X149316071Y-122224761D01*
X149220833Y-122129523D01*
X149173214Y-122034285D01*
X149125595Y-121843809D01*
X149125595Y-121700952D01*
X149173214Y-121510476D01*
X149220833Y-121415238D01*
X149316071Y-121320000D01*
X149458928Y-121272380D01*
X149554166Y-121272380D01*
X149697023Y-121320000D01*
X149744642Y-121367619D01*
X150697023Y-122272380D02*
X150125595Y-122272380D01*
X150411309Y-122272380D02*
X150411309Y-121272380D01*
X150316071Y-121415238D01*
X150220833Y-121510476D01*
X150125595Y-121558095D01*
X151077976Y-121367619D02*
X151125595Y-121320000D01*
X151220833Y-121272380D01*
X151458928Y-121272380D01*
X151554166Y-121320000D01*
X151601785Y-121367619D01*
X151649404Y-121462857D01*
X151649404Y-121558095D01*
X151601785Y-121700952D01*
X151030357Y-122272380D01*
X151649404Y-122272380D01*
%TO.C,U4*%
X153034380Y-128216904D02*
X153843904Y-128216904D01*
X153939142Y-128169285D01*
X153986761Y-128121666D01*
X154034380Y-128026428D01*
X154034380Y-127835952D01*
X153986761Y-127740714D01*
X153939142Y-127693095D01*
X153843904Y-127645476D01*
X153034380Y-127645476D01*
X153367714Y-126740714D02*
X154034380Y-126740714D01*
X152986761Y-126978809D02*
X153701047Y-127216904D01*
X153701047Y-126597857D01*
%TO.C,K2*%
X139452380Y-97899210D02*
X138452380Y-97899210D01*
X139452380Y-97327781D02*
X138880952Y-97756353D01*
X138452380Y-97327781D02*
X139023809Y-97899210D01*
X138547619Y-96946829D02*
X138500000Y-96899210D01*
X138452380Y-96803972D01*
X138452380Y-96565876D01*
X138500000Y-96470638D01*
X138547619Y-96423019D01*
X138642857Y-96375400D01*
X138738095Y-96375400D01*
X138880952Y-96423019D01*
X139452380Y-96994448D01*
X139452380Y-96375400D01*
%TO.C,U1*%
X176488095Y-139955820D02*
X176488095Y-140765344D01*
X176535714Y-140860582D01*
X176583333Y-140908201D01*
X176678571Y-140955820D01*
X176869047Y-140955820D01*
X176964285Y-140908201D01*
X177011904Y-140860582D01*
X177059523Y-140765344D01*
X177059523Y-139955820D01*
X178059523Y-140955820D02*
X177488095Y-140955820D01*
X177773809Y-140955820D02*
X177773809Y-139955820D01*
X177678571Y-140098678D01*
X177583333Y-140193916D01*
X177488095Y-140241535D01*
X177702380Y-118773440D02*
X176702380Y-118773440D01*
X176702380Y-118535344D01*
X176750000Y-118392487D01*
X176845238Y-118297249D01*
X176940476Y-118249630D01*
X177130952Y-118202011D01*
X177273809Y-118202011D01*
X177464285Y-118249630D01*
X177559523Y-118297249D01*
X177654761Y-118392487D01*
X177702380Y-118535344D01*
X177702380Y-118773440D01*
X177654761Y-117392487D02*
X177702380Y-117487725D01*
X177702380Y-117678201D01*
X177654761Y-117773440D01*
X177559523Y-117821059D01*
X177178571Y-117821059D01*
X177083333Y-117773440D01*
X177035714Y-117678201D01*
X177035714Y-117487725D01*
X177083333Y-117392487D01*
X177178571Y-117344868D01*
X177273809Y-117344868D01*
X177369047Y-117821059D01*
X177035714Y-117011535D02*
X177702380Y-116773440D01*
X177035714Y-116535344D01*
X177797619Y-116392487D02*
X177797619Y-115630582D01*
X177178571Y-115059154D02*
X177226190Y-114916297D01*
X177273809Y-114868678D01*
X177369047Y-114821059D01*
X177511904Y-114821059D01*
X177607142Y-114868678D01*
X177654761Y-114916297D01*
X177702380Y-115011535D01*
X177702380Y-115392487D01*
X176702380Y-115392487D01*
X176702380Y-115059154D01*
X176750000Y-114963916D01*
X176797619Y-114916297D01*
X176892857Y-114868678D01*
X176988095Y-114868678D01*
X177083333Y-114916297D01*
X177130952Y-114963916D01*
X177178571Y-115059154D01*
X177178571Y-115392487D01*
X177702380Y-114249630D02*
X177654761Y-114344868D01*
X177607142Y-114392487D01*
X177511904Y-114440106D01*
X177226190Y-114440106D01*
X177130952Y-114392487D01*
X177083333Y-114344868D01*
X177035714Y-114249630D01*
X177035714Y-114106773D01*
X177083333Y-114011535D01*
X177130952Y-113963916D01*
X177226190Y-113916297D01*
X177511904Y-113916297D01*
X177607142Y-113963916D01*
X177654761Y-114011535D01*
X177702380Y-114106773D01*
X177702380Y-114249630D01*
X177702380Y-113059154D02*
X177178571Y-113059154D01*
X177083333Y-113106773D01*
X177035714Y-113202011D01*
X177035714Y-113392487D01*
X177083333Y-113487725D01*
X177654761Y-113059154D02*
X177702380Y-113154392D01*
X177702380Y-113392487D01*
X177654761Y-113487725D01*
X177559523Y-113535344D01*
X177464285Y-113535344D01*
X177369047Y-113487725D01*
X177321428Y-113392487D01*
X177321428Y-113154392D01*
X177273809Y-113059154D01*
X177702380Y-112582963D02*
X177035714Y-112582963D01*
X177226190Y-112582963D02*
X177130952Y-112535344D01*
X177083333Y-112487725D01*
X177035714Y-112392487D01*
X177035714Y-112297249D01*
X177702380Y-111535344D02*
X176702380Y-111535344D01*
X177654761Y-111535344D02*
X177702380Y-111630582D01*
X177702380Y-111821059D01*
X177654761Y-111916297D01*
X177607142Y-111963916D01*
X177511904Y-112011535D01*
X177226190Y-112011535D01*
X177130952Y-111963916D01*
X177083333Y-111916297D01*
X177035714Y-111821059D01*
X177035714Y-111630582D01*
X177083333Y-111535344D01*
X177797619Y-111297249D02*
X177797619Y-110535344D01*
X177607142Y-109725820D02*
X177654761Y-109773440D01*
X177702380Y-109916297D01*
X177702380Y-110011535D01*
X177654761Y-110154392D01*
X177559523Y-110249630D01*
X177464285Y-110297249D01*
X177273809Y-110344868D01*
X177130952Y-110344868D01*
X176940476Y-110297249D01*
X176845238Y-110249630D01*
X176750000Y-110154392D01*
X176702380Y-110011535D01*
X176702380Y-109916297D01*
X176750000Y-109773440D01*
X176797619Y-109725820D01*
X168517500Y-105733440D02*
X168584166Y-105766773D01*
X168684166Y-105766773D01*
X168784166Y-105733440D01*
X168850833Y-105666773D01*
X168884166Y-105600106D01*
X168917500Y-105466773D01*
X168917500Y-105366773D01*
X168884166Y-105233440D01*
X168850833Y-105166773D01*
X168784166Y-105100106D01*
X168684166Y-105066773D01*
X168617500Y-105066773D01*
X168517500Y-105100106D01*
X168484166Y-105133440D01*
X168484166Y-105366773D01*
X168617500Y-105366773D01*
X168184166Y-105066773D02*
X168184166Y-105766773D01*
X167917500Y-105766773D01*
X167850833Y-105733440D01*
X167817500Y-105700106D01*
X167784166Y-105633440D01*
X167784166Y-105533440D01*
X167817500Y-105466773D01*
X167850833Y-105433440D01*
X167917500Y-105400106D01*
X168184166Y-105400106D01*
X167484166Y-105066773D02*
X167484166Y-105766773D01*
X167017500Y-105766773D02*
X166884166Y-105766773D01*
X166817500Y-105733440D01*
X166750833Y-105666773D01*
X166717500Y-105533440D01*
X166717500Y-105300106D01*
X166750833Y-105166773D01*
X166817500Y-105100106D01*
X166884166Y-105066773D01*
X167017500Y-105066773D01*
X167084166Y-105100106D01*
X167150833Y-105166773D01*
X167184166Y-105300106D01*
X167184166Y-105533440D01*
X167150833Y-105666773D01*
X167084166Y-105733440D01*
X167017500Y-105766773D01*
X166284166Y-105766773D02*
X166217500Y-105766773D01*
X166150833Y-105733440D01*
X166117500Y-105700106D01*
X166084166Y-105633440D01*
X166050833Y-105500106D01*
X166050833Y-105333440D01*
X166084166Y-105200106D01*
X166117500Y-105133440D01*
X166150833Y-105100106D01*
X166217500Y-105066773D01*
X166284166Y-105066773D01*
X166350833Y-105100106D01*
X166384166Y-105133440D01*
X166417500Y-105200106D01*
X166450833Y-105333440D01*
X166450833Y-105500106D01*
X166417500Y-105633440D01*
X166384166Y-105700106D01*
X166350833Y-105733440D01*
X166284166Y-105766773D01*
X172717500Y-128593440D02*
X172784166Y-128626773D01*
X172884166Y-128626773D01*
X172984166Y-128593440D01*
X173050833Y-128526773D01*
X173084166Y-128460106D01*
X173117500Y-128326773D01*
X173117500Y-128226773D01*
X173084166Y-128093440D01*
X173050833Y-128026773D01*
X172984166Y-127960106D01*
X172884166Y-127926773D01*
X172817500Y-127926773D01*
X172717500Y-127960106D01*
X172684166Y-127993440D01*
X172684166Y-128226773D01*
X172817500Y-128226773D01*
X172384166Y-127926773D02*
X172384166Y-128626773D01*
X172117500Y-128626773D01*
X172050833Y-128593440D01*
X172017500Y-128560106D01*
X171984166Y-128493440D01*
X171984166Y-128393440D01*
X172017500Y-128326773D01*
X172050833Y-128293440D01*
X172117500Y-128260106D01*
X172384166Y-128260106D01*
X171684166Y-127926773D02*
X171684166Y-128626773D01*
X171217500Y-128626773D02*
X171084166Y-128626773D01*
X171017500Y-128593440D01*
X170950833Y-128526773D01*
X170917500Y-128393440D01*
X170917500Y-128160106D01*
X170950833Y-128026773D01*
X171017500Y-127960106D01*
X171084166Y-127926773D01*
X171217500Y-127926773D01*
X171284166Y-127960106D01*
X171350833Y-128026773D01*
X171384166Y-128160106D01*
X171384166Y-128393440D01*
X171350833Y-128526773D01*
X171284166Y-128593440D01*
X171217500Y-128626773D01*
X170684166Y-128626773D02*
X170250833Y-128626773D01*
X170484166Y-128360106D01*
X170384166Y-128360106D01*
X170317500Y-128326773D01*
X170284166Y-128293440D01*
X170250833Y-128226773D01*
X170250833Y-128060106D01*
X170284166Y-127993440D01*
X170317500Y-127960106D01*
X170384166Y-127926773D01*
X170584166Y-127926773D01*
X170650833Y-127960106D01*
X170684166Y-127993440D01*
X169450833Y-128660106D02*
X170050833Y-127760106D01*
X169217500Y-128626773D02*
X169217500Y-128060106D01*
X169184166Y-127993440D01*
X169150833Y-127960106D01*
X169084166Y-127926773D01*
X168950833Y-127926773D01*
X168884166Y-127960106D01*
X168850833Y-127993440D01*
X168817500Y-128060106D01*
X168817500Y-128626773D01*
X168350833Y-128626773D02*
X168284166Y-128626773D01*
X168217500Y-128593440D01*
X168184166Y-128560106D01*
X168150833Y-128493440D01*
X168117500Y-128360106D01*
X168117500Y-128193440D01*
X168150833Y-128060106D01*
X168184166Y-127993440D01*
X168217500Y-127960106D01*
X168284166Y-127926773D01*
X168350833Y-127926773D01*
X168417500Y-127960106D01*
X168450833Y-127993440D01*
X168484166Y-128060106D01*
X168517500Y-128193440D01*
X168517500Y-128360106D01*
X168484166Y-128493440D01*
X168450833Y-128560106D01*
X168417500Y-128593440D01*
X168350833Y-128626773D01*
X167417500Y-127926773D02*
X167650833Y-128260106D01*
X167817500Y-127926773D02*
X167817500Y-128626773D01*
X167550833Y-128626773D01*
X167484166Y-128593440D01*
X167450833Y-128560106D01*
X167417500Y-128493440D01*
X167417500Y-128393440D01*
X167450833Y-128326773D01*
X167484166Y-128293440D01*
X167550833Y-128260106D01*
X167817500Y-128260106D01*
X167184166Y-128626773D02*
X166717500Y-127926773D01*
X166717500Y-128626773D02*
X167184166Y-127926773D01*
X166450833Y-127926773D02*
X166450833Y-128626773D01*
X166284166Y-128626773D01*
X166184166Y-128593440D01*
X166117500Y-128526773D01*
X166084166Y-128460106D01*
X166050833Y-128326773D01*
X166050833Y-128226773D01*
X166084166Y-128093440D01*
X166117500Y-128026773D01*
X166184166Y-127960106D01*
X166284166Y-127926773D01*
X166450833Y-127926773D01*
X169184166Y-110813440D02*
X169250833Y-110846773D01*
X169350833Y-110846773D01*
X169450833Y-110813440D01*
X169517500Y-110746773D01*
X169550833Y-110680106D01*
X169584166Y-110546773D01*
X169584166Y-110446773D01*
X169550833Y-110313440D01*
X169517500Y-110246773D01*
X169450833Y-110180106D01*
X169350833Y-110146773D01*
X169284166Y-110146773D01*
X169184166Y-110180106D01*
X169150833Y-110213440D01*
X169150833Y-110446773D01*
X169284166Y-110446773D01*
X168850833Y-110146773D02*
X168850833Y-110846773D01*
X168584166Y-110846773D01*
X168517500Y-110813440D01*
X168484166Y-110780106D01*
X168450833Y-110713440D01*
X168450833Y-110613440D01*
X168484166Y-110546773D01*
X168517500Y-110513440D01*
X168584166Y-110480106D01*
X168850833Y-110480106D01*
X168150833Y-110146773D02*
X168150833Y-110846773D01*
X167684166Y-110846773D02*
X167550833Y-110846773D01*
X167484166Y-110813440D01*
X167417500Y-110746773D01*
X167384166Y-110613440D01*
X167384166Y-110380106D01*
X167417500Y-110246773D01*
X167484166Y-110180106D01*
X167550833Y-110146773D01*
X167684166Y-110146773D01*
X167750833Y-110180106D01*
X167817500Y-110246773D01*
X167850833Y-110380106D01*
X167850833Y-110613440D01*
X167817500Y-110746773D01*
X167750833Y-110813440D01*
X167684166Y-110846773D01*
X166717500Y-110146773D02*
X167117500Y-110146773D01*
X166917500Y-110146773D02*
X166917500Y-110846773D01*
X166984166Y-110746773D01*
X167050833Y-110680106D01*
X167117500Y-110646773D01*
X166117500Y-110846773D02*
X166250833Y-110846773D01*
X166317500Y-110813440D01*
X166350833Y-110780106D01*
X166417500Y-110680106D01*
X166450833Y-110546773D01*
X166450833Y-110280106D01*
X166417500Y-110213440D01*
X166384166Y-110180106D01*
X166317500Y-110146773D01*
X166184166Y-110146773D01*
X166117500Y-110180106D01*
X166084166Y-110213440D01*
X166050833Y-110280106D01*
X166050833Y-110446773D01*
X166084166Y-110513440D01*
X166117500Y-110546773D01*
X166184166Y-110580106D01*
X166317500Y-110580106D01*
X166384166Y-110546773D01*
X166417500Y-110513440D01*
X166450833Y-110446773D01*
X168203214Y-123663440D02*
X168298452Y-123711059D01*
X168441309Y-123711059D01*
X168584166Y-123663440D01*
X168679404Y-123568201D01*
X168727023Y-123472963D01*
X168774642Y-123282487D01*
X168774642Y-123139630D01*
X168727023Y-122949154D01*
X168679404Y-122853916D01*
X168584166Y-122758678D01*
X168441309Y-122711059D01*
X168346071Y-122711059D01*
X168203214Y-122758678D01*
X168155595Y-122806297D01*
X168155595Y-123139630D01*
X168346071Y-123139630D01*
X167727023Y-122711059D02*
X167727023Y-123711059D01*
X167155595Y-122711059D01*
X167155595Y-123711059D01*
X166679404Y-122711059D02*
X166679404Y-123711059D01*
X166441309Y-123711059D01*
X166298452Y-123663440D01*
X166203214Y-123568201D01*
X166155595Y-123472963D01*
X166107976Y-123282487D01*
X166107976Y-123139630D01*
X166155595Y-122949154D01*
X166203214Y-122853916D01*
X166298452Y-122758678D01*
X166441309Y-122711059D01*
X166679404Y-122711059D01*
X188049166Y-126053440D02*
X188115833Y-126086773D01*
X188215833Y-126086773D01*
X188315833Y-126053440D01*
X188382500Y-125986773D01*
X188415833Y-125920106D01*
X188449166Y-125786773D01*
X188449166Y-125686773D01*
X188415833Y-125553440D01*
X188382500Y-125486773D01*
X188315833Y-125420106D01*
X188215833Y-125386773D01*
X188149166Y-125386773D01*
X188049166Y-125420106D01*
X188015833Y-125453440D01*
X188015833Y-125686773D01*
X188149166Y-125686773D01*
X187715833Y-125386773D02*
X187715833Y-126086773D01*
X187449166Y-126086773D01*
X187382500Y-126053440D01*
X187349166Y-126020106D01*
X187315833Y-125953440D01*
X187315833Y-125853440D01*
X187349166Y-125786773D01*
X187382500Y-125753440D01*
X187449166Y-125720106D01*
X187715833Y-125720106D01*
X187015833Y-125386773D02*
X187015833Y-126086773D01*
X186549166Y-126086773D02*
X186415833Y-126086773D01*
X186349166Y-126053440D01*
X186282500Y-125986773D01*
X186249166Y-125853440D01*
X186249166Y-125620106D01*
X186282500Y-125486773D01*
X186349166Y-125420106D01*
X186415833Y-125386773D01*
X186549166Y-125386773D01*
X186615833Y-125420106D01*
X186682500Y-125486773D01*
X186715833Y-125620106D01*
X186715833Y-125853440D01*
X186682500Y-125986773D01*
X186615833Y-126053440D01*
X186549166Y-126086773D01*
X186015833Y-126086773D02*
X185582500Y-126086773D01*
X185815833Y-125820106D01*
X185715833Y-125820106D01*
X185649166Y-125786773D01*
X185615833Y-125753440D01*
X185582500Y-125686773D01*
X185582500Y-125520106D01*
X185615833Y-125453440D01*
X185649166Y-125420106D01*
X185715833Y-125386773D01*
X185915833Y-125386773D01*
X185982500Y-125420106D01*
X186015833Y-125453440D01*
X184949166Y-126086773D02*
X185282500Y-126086773D01*
X185315833Y-125753440D01*
X185282500Y-125786773D01*
X185215833Y-125820106D01*
X185049166Y-125820106D01*
X184982500Y-125786773D01*
X184949166Y-125753440D01*
X184915833Y-125686773D01*
X184915833Y-125520106D01*
X184949166Y-125453440D01*
X184982500Y-125420106D01*
X185049166Y-125386773D01*
X185215833Y-125386773D01*
X185282500Y-125420106D01*
X185315833Y-125453440D01*
X188049166Y-110813440D02*
X188115833Y-110846773D01*
X188215833Y-110846773D01*
X188315833Y-110813440D01*
X188382500Y-110746773D01*
X188415833Y-110680106D01*
X188449166Y-110546773D01*
X188449166Y-110446773D01*
X188415833Y-110313440D01*
X188382500Y-110246773D01*
X188315833Y-110180106D01*
X188215833Y-110146773D01*
X188149166Y-110146773D01*
X188049166Y-110180106D01*
X188015833Y-110213440D01*
X188015833Y-110446773D01*
X188149166Y-110446773D01*
X187715833Y-110146773D02*
X187715833Y-110846773D01*
X187449166Y-110846773D01*
X187382500Y-110813440D01*
X187349166Y-110780106D01*
X187315833Y-110713440D01*
X187315833Y-110613440D01*
X187349166Y-110546773D01*
X187382500Y-110513440D01*
X187449166Y-110480106D01*
X187715833Y-110480106D01*
X187015833Y-110146773D02*
X187015833Y-110846773D01*
X186549166Y-110846773D02*
X186415833Y-110846773D01*
X186349166Y-110813440D01*
X186282500Y-110746773D01*
X186249166Y-110613440D01*
X186249166Y-110380106D01*
X186282500Y-110246773D01*
X186349166Y-110180106D01*
X186415833Y-110146773D01*
X186549166Y-110146773D01*
X186615833Y-110180106D01*
X186682500Y-110246773D01*
X186715833Y-110380106D01*
X186715833Y-110613440D01*
X186682500Y-110746773D01*
X186615833Y-110813440D01*
X186549166Y-110846773D01*
X185582500Y-110146773D02*
X185982500Y-110146773D01*
X185782500Y-110146773D02*
X185782500Y-110846773D01*
X185849166Y-110746773D01*
X185915833Y-110680106D01*
X185982500Y-110646773D01*
X184982500Y-110613440D02*
X184982500Y-110146773D01*
X185149166Y-110880106D02*
X185315833Y-110380106D01*
X184882500Y-110380106D01*
X184115833Y-110880106D02*
X184715833Y-109980106D01*
X183882500Y-110146773D02*
X183882500Y-110846773D01*
X183649166Y-110346773D01*
X183415833Y-110846773D01*
X183415833Y-110146773D01*
X183182500Y-110846773D02*
X182782500Y-110846773D01*
X182982500Y-110146773D02*
X182982500Y-110846773D01*
X182549166Y-110146773D02*
X182549166Y-110846773D01*
X182315833Y-110346773D01*
X182082500Y-110846773D01*
X182082500Y-110146773D01*
X181782500Y-110180106D02*
X181682500Y-110146773D01*
X181515833Y-110146773D01*
X181449166Y-110180106D01*
X181415833Y-110213440D01*
X181382500Y-110280106D01*
X181382500Y-110346773D01*
X181415833Y-110413440D01*
X181449166Y-110446773D01*
X181515833Y-110480106D01*
X181649166Y-110513440D01*
X181715833Y-110546773D01*
X181749166Y-110580106D01*
X181782500Y-110646773D01*
X181782500Y-110713440D01*
X181749166Y-110780106D01*
X181715833Y-110813440D01*
X181649166Y-110846773D01*
X181482500Y-110846773D01*
X181382500Y-110813440D01*
X169184166Y-133673440D02*
X169250833Y-133706773D01*
X169350833Y-133706773D01*
X169450833Y-133673440D01*
X169517500Y-133606773D01*
X169550833Y-133540106D01*
X169584166Y-133406773D01*
X169584166Y-133306773D01*
X169550833Y-133173440D01*
X169517500Y-133106773D01*
X169450833Y-133040106D01*
X169350833Y-133006773D01*
X169284166Y-133006773D01*
X169184166Y-133040106D01*
X169150833Y-133073440D01*
X169150833Y-133306773D01*
X169284166Y-133306773D01*
X168850833Y-133006773D02*
X168850833Y-133706773D01*
X168584166Y-133706773D01*
X168517500Y-133673440D01*
X168484166Y-133640106D01*
X168450833Y-133573440D01*
X168450833Y-133473440D01*
X168484166Y-133406773D01*
X168517500Y-133373440D01*
X168584166Y-133340106D01*
X168850833Y-133340106D01*
X168150833Y-133006773D02*
X168150833Y-133706773D01*
X167684166Y-133706773D02*
X167550833Y-133706773D01*
X167484166Y-133673440D01*
X167417500Y-133606773D01*
X167384166Y-133473440D01*
X167384166Y-133240106D01*
X167417500Y-133106773D01*
X167484166Y-133040106D01*
X167550833Y-133006773D01*
X167684166Y-133006773D01*
X167750833Y-133040106D01*
X167817500Y-133106773D01*
X167850833Y-133240106D01*
X167850833Y-133473440D01*
X167817500Y-133606773D01*
X167750833Y-133673440D01*
X167684166Y-133706773D01*
X167117500Y-133640106D02*
X167084166Y-133673440D01*
X167017500Y-133706773D01*
X166850833Y-133706773D01*
X166784166Y-133673440D01*
X166750833Y-133640106D01*
X166717500Y-133573440D01*
X166717500Y-133506773D01*
X166750833Y-133406773D01*
X167150833Y-133006773D01*
X166717500Y-133006773D01*
X166450833Y-133640106D02*
X166417500Y-133673440D01*
X166350833Y-133706773D01*
X166184166Y-133706773D01*
X166117500Y-133673440D01*
X166084166Y-133640106D01*
X166050833Y-133573440D01*
X166050833Y-133506773D01*
X166084166Y-133406773D01*
X166484166Y-133006773D01*
X166050833Y-133006773D01*
X188049166Y-108273440D02*
X188115833Y-108306773D01*
X188215833Y-108306773D01*
X188315833Y-108273440D01*
X188382500Y-108206773D01*
X188415833Y-108140106D01*
X188449166Y-108006773D01*
X188449166Y-107906773D01*
X188415833Y-107773440D01*
X188382500Y-107706773D01*
X188315833Y-107640106D01*
X188215833Y-107606773D01*
X188149166Y-107606773D01*
X188049166Y-107640106D01*
X188015833Y-107673440D01*
X188015833Y-107906773D01*
X188149166Y-107906773D01*
X187715833Y-107606773D02*
X187715833Y-108306773D01*
X187449166Y-108306773D01*
X187382500Y-108273440D01*
X187349166Y-108240106D01*
X187315833Y-108173440D01*
X187315833Y-108073440D01*
X187349166Y-108006773D01*
X187382500Y-107973440D01*
X187449166Y-107940106D01*
X187715833Y-107940106D01*
X187015833Y-107606773D02*
X187015833Y-108306773D01*
X186549166Y-108306773D02*
X186415833Y-108306773D01*
X186349166Y-108273440D01*
X186282500Y-108206773D01*
X186249166Y-108073440D01*
X186249166Y-107840106D01*
X186282500Y-107706773D01*
X186349166Y-107640106D01*
X186415833Y-107606773D01*
X186549166Y-107606773D01*
X186615833Y-107640106D01*
X186682500Y-107706773D01*
X186715833Y-107840106D01*
X186715833Y-108073440D01*
X186682500Y-108206773D01*
X186615833Y-108273440D01*
X186549166Y-108306773D01*
X185582500Y-107606773D02*
X185982500Y-107606773D01*
X185782500Y-107606773D02*
X185782500Y-108306773D01*
X185849166Y-108206773D01*
X185915833Y-108140106D01*
X185982500Y-108106773D01*
X185315833Y-108240106D02*
X185282500Y-108273440D01*
X185215833Y-108306773D01*
X185049166Y-108306773D01*
X184982500Y-108273440D01*
X184949166Y-108240106D01*
X184915833Y-108173440D01*
X184915833Y-108106773D01*
X184949166Y-108006773D01*
X185349166Y-107606773D01*
X184915833Y-107606773D01*
X184115833Y-108340106D02*
X184715833Y-107440106D01*
X183882500Y-107606773D02*
X183882500Y-108306773D01*
X183649166Y-107806773D01*
X183415833Y-108306773D01*
X183415833Y-107606773D01*
X183182500Y-108306773D02*
X182782500Y-108306773D01*
X182982500Y-107606773D02*
X182982500Y-108306773D01*
X182549166Y-107606773D02*
X182549166Y-108306773D01*
X182382500Y-108306773D01*
X182282500Y-108273440D01*
X182215833Y-108206773D01*
X182182500Y-108140106D01*
X182149166Y-108006773D01*
X182149166Y-107906773D01*
X182182500Y-107773440D01*
X182215833Y-107706773D01*
X182282500Y-107640106D01*
X182382500Y-107606773D01*
X182549166Y-107606773D01*
X181849166Y-107606773D02*
X181849166Y-108306773D01*
X168517500Y-115893440D02*
X168584166Y-115926773D01*
X168684166Y-115926773D01*
X168784166Y-115893440D01*
X168850833Y-115826773D01*
X168884166Y-115760106D01*
X168917500Y-115626773D01*
X168917500Y-115526773D01*
X168884166Y-115393440D01*
X168850833Y-115326773D01*
X168784166Y-115260106D01*
X168684166Y-115226773D01*
X168617500Y-115226773D01*
X168517500Y-115260106D01*
X168484166Y-115293440D01*
X168484166Y-115526773D01*
X168617500Y-115526773D01*
X168184166Y-115226773D02*
X168184166Y-115926773D01*
X167917500Y-115926773D01*
X167850833Y-115893440D01*
X167817500Y-115860106D01*
X167784166Y-115793440D01*
X167784166Y-115693440D01*
X167817500Y-115626773D01*
X167850833Y-115593440D01*
X167917500Y-115560106D01*
X168184166Y-115560106D01*
X167484166Y-115226773D02*
X167484166Y-115926773D01*
X167017500Y-115926773D02*
X166884166Y-115926773D01*
X166817500Y-115893440D01*
X166750833Y-115826773D01*
X166717500Y-115693440D01*
X166717500Y-115460106D01*
X166750833Y-115326773D01*
X166817500Y-115260106D01*
X166884166Y-115226773D01*
X167017500Y-115226773D01*
X167084166Y-115260106D01*
X167150833Y-115326773D01*
X167184166Y-115460106D01*
X167184166Y-115693440D01*
X167150833Y-115826773D01*
X167084166Y-115893440D01*
X167017500Y-115926773D01*
X166084166Y-115926773D02*
X166417500Y-115926773D01*
X166450833Y-115593440D01*
X166417500Y-115626773D01*
X166350833Y-115660106D01*
X166184166Y-115660106D01*
X166117500Y-115626773D01*
X166084166Y-115593440D01*
X166050833Y-115526773D01*
X166050833Y-115360106D01*
X166084166Y-115293440D01*
X166117500Y-115260106D01*
X166184166Y-115226773D01*
X166350833Y-115226773D01*
X166417500Y-115260106D01*
X166450833Y-115293440D01*
X188446894Y-135937588D02*
X188113560Y-135937588D01*
X187970703Y-135413779D02*
X188446894Y-135413779D01*
X188446894Y-136413779D01*
X187970703Y-136413779D01*
X187542132Y-135413779D02*
X187542132Y-136413779D01*
X186970703Y-135413779D01*
X186970703Y-136413779D01*
X185780227Y-136461398D02*
X186637370Y-135175683D01*
X184875465Y-135413779D02*
X185208799Y-135889969D01*
X185446894Y-135413779D02*
X185446894Y-136413779D01*
X185065941Y-136413779D01*
X184970703Y-136366160D01*
X184923084Y-136318540D01*
X184875465Y-136223302D01*
X184875465Y-136080445D01*
X184923084Y-135985207D01*
X184970703Y-135937588D01*
X185065941Y-135889969D01*
X185446894Y-135889969D01*
X184446894Y-135937588D02*
X184113560Y-135937588D01*
X183970703Y-135413779D02*
X184446894Y-135413779D01*
X184446894Y-136413779D01*
X183970703Y-136413779D01*
X183589751Y-135461398D02*
X183446894Y-135413779D01*
X183208799Y-135413779D01*
X183113560Y-135461398D01*
X183065941Y-135509017D01*
X183018322Y-135604255D01*
X183018322Y-135699493D01*
X183065941Y-135794731D01*
X183113560Y-135842350D01*
X183208799Y-135889969D01*
X183399275Y-135937588D01*
X183494513Y-135985207D01*
X183542132Y-136032826D01*
X183589751Y-136128064D01*
X183589751Y-136223302D01*
X183542132Y-136318540D01*
X183494513Y-136366160D01*
X183399275Y-136413779D01*
X183161180Y-136413779D01*
X183018322Y-136366160D01*
X182589751Y-135937588D02*
X182256418Y-135937588D01*
X182113560Y-135413779D02*
X182589751Y-135413779D01*
X182589751Y-136413779D01*
X182113560Y-136413779D01*
X181827846Y-136413779D02*
X181256418Y-136413779D01*
X181542132Y-135413779D02*
X181542132Y-136413779D01*
X172684166Y-100653440D02*
X172750833Y-100686773D01*
X172850833Y-100686773D01*
X172950833Y-100653440D01*
X173017500Y-100586773D01*
X173050833Y-100520106D01*
X173084166Y-100386773D01*
X173084166Y-100286773D01*
X173050833Y-100153440D01*
X173017500Y-100086773D01*
X172950833Y-100020106D01*
X172850833Y-99986773D01*
X172784166Y-99986773D01*
X172684166Y-100020106D01*
X172650833Y-100053440D01*
X172650833Y-100286773D01*
X172784166Y-100286773D01*
X172350833Y-99986773D02*
X172350833Y-100686773D01*
X172084166Y-100686773D01*
X172017500Y-100653440D01*
X171984166Y-100620106D01*
X171950833Y-100553440D01*
X171950833Y-100453440D01*
X171984166Y-100386773D01*
X172017500Y-100353440D01*
X172084166Y-100320106D01*
X172350833Y-100320106D01*
X171650833Y-99986773D02*
X171650833Y-100686773D01*
X171184166Y-100686773D02*
X171050833Y-100686773D01*
X170984166Y-100653440D01*
X170917500Y-100586773D01*
X170884166Y-100453440D01*
X170884166Y-100220106D01*
X170917500Y-100086773D01*
X170984166Y-100020106D01*
X171050833Y-99986773D01*
X171184166Y-99986773D01*
X171250833Y-100020106D01*
X171317500Y-100086773D01*
X171350833Y-100220106D01*
X171350833Y-100453440D01*
X171317500Y-100586773D01*
X171250833Y-100653440D01*
X171184166Y-100686773D01*
X170217500Y-99986773D02*
X170617500Y-99986773D01*
X170417500Y-99986773D02*
X170417500Y-100686773D01*
X170484166Y-100586773D01*
X170550833Y-100520106D01*
X170617500Y-100486773D01*
X169584166Y-100686773D02*
X169917500Y-100686773D01*
X169950833Y-100353440D01*
X169917500Y-100386773D01*
X169850833Y-100420106D01*
X169684166Y-100420106D01*
X169617500Y-100386773D01*
X169584166Y-100353440D01*
X169550833Y-100286773D01*
X169550833Y-100120106D01*
X169584166Y-100053440D01*
X169617500Y-100020106D01*
X169684166Y-99986773D01*
X169850833Y-99986773D01*
X169917500Y-100020106D01*
X169950833Y-100053440D01*
X168750833Y-100720106D02*
X169350833Y-99820106D01*
X168517500Y-99986773D02*
X168517500Y-100686773D01*
X168284166Y-100186773D01*
X168050833Y-100686773D01*
X168050833Y-99986773D01*
X167817500Y-100686773D02*
X167417500Y-100686773D01*
X167617500Y-99986773D02*
X167617500Y-100686773D01*
X167184166Y-99986773D02*
X167184166Y-100686773D01*
X167017500Y-100686773D01*
X166917500Y-100653440D01*
X166850833Y-100586773D01*
X166817500Y-100520106D01*
X166784166Y-100386773D01*
X166784166Y-100286773D01*
X166817500Y-100153440D01*
X166850833Y-100086773D01*
X166917500Y-100020106D01*
X167017500Y-99986773D01*
X167184166Y-99986773D01*
X166350833Y-100686773D02*
X166217500Y-100686773D01*
X166150833Y-100653440D01*
X166084166Y-100586773D01*
X166050833Y-100453440D01*
X166050833Y-100220106D01*
X166084166Y-100086773D01*
X166150833Y-100020106D01*
X166217500Y-99986773D01*
X166350833Y-99986773D01*
X166417500Y-100020106D01*
X166484166Y-100086773D01*
X166517500Y-100220106D01*
X166517500Y-100453440D01*
X166484166Y-100586773D01*
X166417500Y-100653440D01*
X166350833Y-100686773D01*
X188049166Y-115893440D02*
X188115833Y-115926773D01*
X188215833Y-115926773D01*
X188315833Y-115893440D01*
X188382500Y-115826773D01*
X188415833Y-115760106D01*
X188449166Y-115626773D01*
X188449166Y-115526773D01*
X188415833Y-115393440D01*
X188382500Y-115326773D01*
X188315833Y-115260106D01*
X188215833Y-115226773D01*
X188149166Y-115226773D01*
X188049166Y-115260106D01*
X188015833Y-115293440D01*
X188015833Y-115526773D01*
X188149166Y-115526773D01*
X187715833Y-115226773D02*
X187715833Y-115926773D01*
X187449166Y-115926773D01*
X187382500Y-115893440D01*
X187349166Y-115860106D01*
X187315833Y-115793440D01*
X187315833Y-115693440D01*
X187349166Y-115626773D01*
X187382500Y-115593440D01*
X187449166Y-115560106D01*
X187715833Y-115560106D01*
X187015833Y-115226773D02*
X187015833Y-115926773D01*
X186549166Y-115926773D02*
X186415833Y-115926773D01*
X186349166Y-115893440D01*
X186282500Y-115826773D01*
X186249166Y-115693440D01*
X186249166Y-115460106D01*
X186282500Y-115326773D01*
X186349166Y-115260106D01*
X186415833Y-115226773D01*
X186549166Y-115226773D01*
X186615833Y-115260106D01*
X186682500Y-115326773D01*
X186715833Y-115460106D01*
X186715833Y-115693440D01*
X186682500Y-115826773D01*
X186615833Y-115893440D01*
X186549166Y-115926773D01*
X185982500Y-115860106D02*
X185949166Y-115893440D01*
X185882500Y-115926773D01*
X185715833Y-115926773D01*
X185649166Y-115893440D01*
X185615833Y-115860106D01*
X185582500Y-115793440D01*
X185582500Y-115726773D01*
X185615833Y-115626773D01*
X186015833Y-115226773D01*
X185582500Y-115226773D01*
X184982500Y-115926773D02*
X185115833Y-115926773D01*
X185182500Y-115893440D01*
X185215833Y-115860106D01*
X185282500Y-115760106D01*
X185315833Y-115626773D01*
X185315833Y-115360106D01*
X185282500Y-115293440D01*
X185249166Y-115260106D01*
X185182500Y-115226773D01*
X185049166Y-115226773D01*
X184982500Y-115260106D01*
X184949166Y-115293440D01*
X184915833Y-115360106D01*
X184915833Y-115526773D01*
X184949166Y-115593440D01*
X184982500Y-115626773D01*
X185049166Y-115660106D01*
X185182500Y-115660106D01*
X185249166Y-115626773D01*
X185282500Y-115593440D01*
X185315833Y-115526773D01*
X168517500Y-103193440D02*
X168584166Y-103226773D01*
X168684166Y-103226773D01*
X168784166Y-103193440D01*
X168850833Y-103126773D01*
X168884166Y-103060106D01*
X168917500Y-102926773D01*
X168917500Y-102826773D01*
X168884166Y-102693440D01*
X168850833Y-102626773D01*
X168784166Y-102560106D01*
X168684166Y-102526773D01*
X168617500Y-102526773D01*
X168517500Y-102560106D01*
X168484166Y-102593440D01*
X168484166Y-102826773D01*
X168617500Y-102826773D01*
X168184166Y-102526773D02*
X168184166Y-103226773D01*
X167917500Y-103226773D01*
X167850833Y-103193440D01*
X167817500Y-103160106D01*
X167784166Y-103093440D01*
X167784166Y-102993440D01*
X167817500Y-102926773D01*
X167850833Y-102893440D01*
X167917500Y-102860106D01*
X168184166Y-102860106D01*
X167484166Y-102526773D02*
X167484166Y-103226773D01*
X167017500Y-103226773D02*
X166884166Y-103226773D01*
X166817500Y-103193440D01*
X166750833Y-103126773D01*
X166717500Y-102993440D01*
X166717500Y-102760106D01*
X166750833Y-102626773D01*
X166817500Y-102560106D01*
X166884166Y-102526773D01*
X167017500Y-102526773D01*
X167084166Y-102560106D01*
X167150833Y-102626773D01*
X167184166Y-102760106D01*
X167184166Y-102993440D01*
X167150833Y-103126773D01*
X167084166Y-103193440D01*
X167017500Y-103226773D01*
X166450833Y-103160106D02*
X166417500Y-103193440D01*
X166350833Y-103226773D01*
X166184166Y-103226773D01*
X166117500Y-103193440D01*
X166084166Y-103160106D01*
X166050833Y-103093440D01*
X166050833Y-103026773D01*
X166084166Y-102926773D01*
X166484166Y-102526773D01*
X166050833Y-102526773D01*
X169184166Y-126053440D02*
X169250833Y-126086773D01*
X169350833Y-126086773D01*
X169450833Y-126053440D01*
X169517500Y-125986773D01*
X169550833Y-125920106D01*
X169584166Y-125786773D01*
X169584166Y-125686773D01*
X169550833Y-125553440D01*
X169517500Y-125486773D01*
X169450833Y-125420106D01*
X169350833Y-125386773D01*
X169284166Y-125386773D01*
X169184166Y-125420106D01*
X169150833Y-125453440D01*
X169150833Y-125686773D01*
X169284166Y-125686773D01*
X168850833Y-125386773D02*
X168850833Y-126086773D01*
X168584166Y-126086773D01*
X168517500Y-126053440D01*
X168484166Y-126020106D01*
X168450833Y-125953440D01*
X168450833Y-125853440D01*
X168484166Y-125786773D01*
X168517500Y-125753440D01*
X168584166Y-125720106D01*
X168850833Y-125720106D01*
X168150833Y-125386773D02*
X168150833Y-126086773D01*
X167684166Y-126086773D02*
X167550833Y-126086773D01*
X167484166Y-126053440D01*
X167417500Y-125986773D01*
X167384166Y-125853440D01*
X167384166Y-125620106D01*
X167417500Y-125486773D01*
X167484166Y-125420106D01*
X167550833Y-125386773D01*
X167684166Y-125386773D01*
X167750833Y-125420106D01*
X167817500Y-125486773D01*
X167850833Y-125620106D01*
X167850833Y-125853440D01*
X167817500Y-125986773D01*
X167750833Y-126053440D01*
X167684166Y-126086773D01*
X167117500Y-126020106D02*
X167084166Y-126053440D01*
X167017500Y-126086773D01*
X166850833Y-126086773D01*
X166784166Y-126053440D01*
X166750833Y-126020106D01*
X166717500Y-125953440D01*
X166717500Y-125886773D01*
X166750833Y-125786773D01*
X167150833Y-125386773D01*
X166717500Y-125386773D01*
X166050833Y-125386773D02*
X166450833Y-125386773D01*
X166250833Y-125386773D02*
X166250833Y-126086773D01*
X166317500Y-125986773D01*
X166384166Y-125920106D01*
X166450833Y-125886773D01*
X168517500Y-108273440D02*
X168584166Y-108306773D01*
X168684166Y-108306773D01*
X168784166Y-108273440D01*
X168850833Y-108206773D01*
X168884166Y-108140106D01*
X168917500Y-108006773D01*
X168917500Y-107906773D01*
X168884166Y-107773440D01*
X168850833Y-107706773D01*
X168784166Y-107640106D01*
X168684166Y-107606773D01*
X168617500Y-107606773D01*
X168517500Y-107640106D01*
X168484166Y-107673440D01*
X168484166Y-107906773D01*
X168617500Y-107906773D01*
X168184166Y-107606773D02*
X168184166Y-108306773D01*
X167917500Y-108306773D01*
X167850833Y-108273440D01*
X167817500Y-108240106D01*
X167784166Y-108173440D01*
X167784166Y-108073440D01*
X167817500Y-108006773D01*
X167850833Y-107973440D01*
X167917500Y-107940106D01*
X168184166Y-107940106D01*
X167484166Y-107606773D02*
X167484166Y-108306773D01*
X167017500Y-108306773D02*
X166884166Y-108306773D01*
X166817500Y-108273440D01*
X166750833Y-108206773D01*
X166717500Y-108073440D01*
X166717500Y-107840106D01*
X166750833Y-107706773D01*
X166817500Y-107640106D01*
X166884166Y-107606773D01*
X167017500Y-107606773D01*
X167084166Y-107640106D01*
X167150833Y-107706773D01*
X167184166Y-107840106D01*
X167184166Y-108073440D01*
X167150833Y-108206773D01*
X167084166Y-108273440D01*
X167017500Y-108306773D01*
X166117500Y-108073440D02*
X166117500Y-107606773D01*
X166284166Y-108340106D02*
X166450833Y-107840106D01*
X166017500Y-107840106D01*
X167317500Y-92433440D02*
X167350833Y-92400106D01*
X167450833Y-92366773D01*
X167517500Y-92366773D01*
X167617500Y-92400106D01*
X167684166Y-92466773D01*
X167717500Y-92533440D01*
X167750833Y-92666773D01*
X167750833Y-92766773D01*
X167717500Y-92900106D01*
X167684166Y-92966773D01*
X167617500Y-93033440D01*
X167517500Y-93066773D01*
X167450833Y-93066773D01*
X167350833Y-93033440D01*
X167317500Y-93000106D01*
X166684166Y-92366773D02*
X167017500Y-92366773D01*
X167017500Y-93066773D01*
X166450833Y-92366773D02*
X166450833Y-93066773D01*
X166050833Y-92366773D02*
X166350833Y-92766773D01*
X166050833Y-93066773D02*
X166450833Y-92666773D01*
X172550833Y-131133440D02*
X172617500Y-131166773D01*
X172717500Y-131166773D01*
X172817500Y-131133440D01*
X172884166Y-131066773D01*
X172917500Y-131000106D01*
X172950833Y-130866773D01*
X172950833Y-130766773D01*
X172917500Y-130633440D01*
X172884166Y-130566773D01*
X172817500Y-130500106D01*
X172717500Y-130466773D01*
X172650833Y-130466773D01*
X172550833Y-130500106D01*
X172517500Y-130533440D01*
X172517500Y-130766773D01*
X172650833Y-130766773D01*
X172217500Y-130466773D02*
X172217500Y-131166773D01*
X171950833Y-131166773D01*
X171884166Y-131133440D01*
X171850833Y-131100106D01*
X171817500Y-131033440D01*
X171817500Y-130933440D01*
X171850833Y-130866773D01*
X171884166Y-130833440D01*
X171950833Y-130800106D01*
X172217500Y-130800106D01*
X171517500Y-130466773D02*
X171517500Y-131166773D01*
X171050833Y-131166773D02*
X170917500Y-131166773D01*
X170850833Y-131133440D01*
X170784166Y-131066773D01*
X170750833Y-130933440D01*
X170750833Y-130700106D01*
X170784166Y-130566773D01*
X170850833Y-130500106D01*
X170917500Y-130466773D01*
X171050833Y-130466773D01*
X171117500Y-130500106D01*
X171184166Y-130566773D01*
X171217500Y-130700106D01*
X171217500Y-130933440D01*
X171184166Y-131066773D01*
X171117500Y-131133440D01*
X171050833Y-131166773D01*
X170084166Y-130466773D02*
X170484166Y-130466773D01*
X170284166Y-130466773D02*
X170284166Y-131166773D01*
X170350833Y-131066773D01*
X170417500Y-131000106D01*
X170484166Y-130966773D01*
X169284166Y-131200106D02*
X169884166Y-130300106D01*
X169050833Y-131166773D02*
X169050833Y-130600106D01*
X169017500Y-130533440D01*
X168984166Y-130500106D01*
X168917500Y-130466773D01*
X168784166Y-130466773D01*
X168717500Y-130500106D01*
X168684166Y-130533440D01*
X168650833Y-130600106D01*
X168650833Y-131166773D01*
X168184166Y-131166773D02*
X168117500Y-131166773D01*
X168050833Y-131133440D01*
X168017500Y-131100106D01*
X167984166Y-131033440D01*
X167950833Y-130900106D01*
X167950833Y-130733440D01*
X167984166Y-130600106D01*
X168017500Y-130533440D01*
X168050833Y-130500106D01*
X168117500Y-130466773D01*
X168184166Y-130466773D01*
X168250833Y-130500106D01*
X168284166Y-130533440D01*
X168317500Y-130600106D01*
X168350833Y-130733440D01*
X168350833Y-130900106D01*
X168317500Y-131033440D01*
X168284166Y-131100106D01*
X168250833Y-131133440D01*
X168184166Y-131166773D01*
X167750833Y-131166773D02*
X167350833Y-131166773D01*
X167550833Y-130466773D02*
X167550833Y-131166773D01*
X167184166Y-131166773D02*
X166717500Y-130466773D01*
X166717500Y-131166773D02*
X167184166Y-130466773D01*
X166450833Y-130466773D02*
X166450833Y-131166773D01*
X166284166Y-131166773D01*
X166184166Y-131133440D01*
X166117500Y-131066773D01*
X166084166Y-131000106D01*
X166050833Y-130866773D01*
X166050833Y-130766773D01*
X166084166Y-130633440D01*
X166117500Y-130566773D01*
X166184166Y-130500106D01*
X166284166Y-130466773D01*
X166450833Y-130466773D01*
X188049166Y-123513440D02*
X188115833Y-123546773D01*
X188215833Y-123546773D01*
X188315833Y-123513440D01*
X188382500Y-123446773D01*
X188415833Y-123380106D01*
X188449166Y-123246773D01*
X188449166Y-123146773D01*
X188415833Y-123013440D01*
X188382500Y-122946773D01*
X188315833Y-122880106D01*
X188215833Y-122846773D01*
X188149166Y-122846773D01*
X188049166Y-122880106D01*
X188015833Y-122913440D01*
X188015833Y-123146773D01*
X188149166Y-123146773D01*
X187715833Y-122846773D02*
X187715833Y-123546773D01*
X187449166Y-123546773D01*
X187382500Y-123513440D01*
X187349166Y-123480106D01*
X187315833Y-123413440D01*
X187315833Y-123313440D01*
X187349166Y-123246773D01*
X187382500Y-123213440D01*
X187449166Y-123180106D01*
X187715833Y-123180106D01*
X187015833Y-122846773D02*
X187015833Y-123546773D01*
X186549166Y-123546773D02*
X186415833Y-123546773D01*
X186349166Y-123513440D01*
X186282500Y-123446773D01*
X186249166Y-123313440D01*
X186249166Y-123080106D01*
X186282500Y-122946773D01*
X186349166Y-122880106D01*
X186415833Y-122846773D01*
X186549166Y-122846773D01*
X186615833Y-122880106D01*
X186682500Y-122946773D01*
X186715833Y-123080106D01*
X186715833Y-123313440D01*
X186682500Y-123446773D01*
X186615833Y-123513440D01*
X186549166Y-123546773D01*
X186015833Y-123546773D02*
X185582500Y-123546773D01*
X185815833Y-123280106D01*
X185715833Y-123280106D01*
X185649166Y-123246773D01*
X185615833Y-123213440D01*
X185582500Y-123146773D01*
X185582500Y-122980106D01*
X185615833Y-122913440D01*
X185649166Y-122880106D01*
X185715833Y-122846773D01*
X185915833Y-122846773D01*
X185982500Y-122880106D01*
X186015833Y-122913440D01*
X185315833Y-123480106D02*
X185282500Y-123513440D01*
X185215833Y-123546773D01*
X185049166Y-123546773D01*
X184982500Y-123513440D01*
X184949166Y-123480106D01*
X184915833Y-123413440D01*
X184915833Y-123346773D01*
X184949166Y-123246773D01*
X185349166Y-122846773D01*
X184915833Y-122846773D01*
X188439642Y-138951059D02*
X187820595Y-138951059D01*
X188153928Y-138570106D01*
X188011071Y-138570106D01*
X187915833Y-138522487D01*
X187868214Y-138474868D01*
X187820595Y-138379630D01*
X187820595Y-138141535D01*
X187868214Y-138046297D01*
X187915833Y-137998678D01*
X188011071Y-137951059D01*
X188296785Y-137951059D01*
X188392023Y-137998678D01*
X188439642Y-138046297D01*
X187534880Y-138951059D02*
X187201547Y-137951059D01*
X186868214Y-138951059D01*
X186630119Y-138951059D02*
X186011071Y-138951059D01*
X186344404Y-138570106D01*
X186201547Y-138570106D01*
X186106309Y-138522487D01*
X186058690Y-138474868D01*
X186011071Y-138379630D01*
X186011071Y-138141535D01*
X186058690Y-138046297D01*
X186106309Y-137998678D01*
X186201547Y-137951059D01*
X186487261Y-137951059D01*
X186582500Y-137998678D01*
X186630119Y-138046297D01*
X188415833Y-97446773D02*
X188415833Y-98146773D01*
X188249166Y-98146773D01*
X188149166Y-98113440D01*
X188082500Y-98046773D01*
X188049166Y-97980106D01*
X188015833Y-97846773D01*
X188015833Y-97746773D01*
X188049166Y-97613440D01*
X188082500Y-97546773D01*
X188149166Y-97480106D01*
X188249166Y-97446773D01*
X188415833Y-97446773D01*
X187782500Y-98146773D02*
X187349166Y-98146773D01*
X187582500Y-97880106D01*
X187482500Y-97880106D01*
X187415833Y-97846773D01*
X187382500Y-97813440D01*
X187349166Y-97746773D01*
X187349166Y-97580106D01*
X187382500Y-97513440D01*
X187415833Y-97480106D01*
X187482500Y-97446773D01*
X187682500Y-97446773D01*
X187749166Y-97480106D01*
X187782500Y-97513440D01*
X188415833Y-99986773D02*
X188415833Y-100686773D01*
X188249166Y-100686773D01*
X188149166Y-100653440D01*
X188082500Y-100586773D01*
X188049166Y-100520106D01*
X188015833Y-100386773D01*
X188015833Y-100286773D01*
X188049166Y-100153440D01*
X188082500Y-100086773D01*
X188149166Y-100020106D01*
X188249166Y-99986773D01*
X188415833Y-99986773D01*
X187749166Y-100620106D02*
X187715833Y-100653440D01*
X187649166Y-100686773D01*
X187482500Y-100686773D01*
X187415833Y-100653440D01*
X187382500Y-100620106D01*
X187349166Y-100553440D01*
X187349166Y-100486773D01*
X187382500Y-100386773D01*
X187782500Y-99986773D01*
X187349166Y-99986773D01*
X167117500Y-94906773D02*
X167117500Y-95606773D01*
X166950833Y-95606773D01*
X166850833Y-95573440D01*
X166784166Y-95506773D01*
X166750833Y-95440106D01*
X166717500Y-95306773D01*
X166717500Y-95206773D01*
X166750833Y-95073440D01*
X166784166Y-95006773D01*
X166850833Y-94940106D01*
X166950833Y-94906773D01*
X167117500Y-94906773D01*
X166284166Y-95606773D02*
X166217500Y-95606773D01*
X166150833Y-95573440D01*
X166117500Y-95540106D01*
X166084166Y-95473440D01*
X166050833Y-95340106D01*
X166050833Y-95173440D01*
X166084166Y-95040106D01*
X166117500Y-94973440D01*
X166150833Y-94940106D01*
X166217500Y-94906773D01*
X166284166Y-94906773D01*
X166350833Y-94940106D01*
X166384166Y-94973440D01*
X166417500Y-95040106D01*
X166450833Y-95173440D01*
X166450833Y-95340106D01*
X166417500Y-95473440D01*
X166384166Y-95540106D01*
X166350833Y-95573440D01*
X166284166Y-95606773D01*
X187871894Y-92979779D02*
X188348084Y-92979779D01*
X188395703Y-92503588D01*
X188348084Y-92551207D01*
X188252846Y-92598826D01*
X188014751Y-92598826D01*
X187919513Y-92551207D01*
X187871894Y-92503588D01*
X187824275Y-92408350D01*
X187824275Y-92170255D01*
X187871894Y-92075017D01*
X187919513Y-92027398D01*
X188014751Y-91979779D01*
X188252846Y-91979779D01*
X188348084Y-92027398D01*
X188395703Y-92075017D01*
X187538560Y-92979779D02*
X187205227Y-91979779D01*
X186871894Y-92979779D01*
X169184166Y-136213440D02*
X169250833Y-136246773D01*
X169350833Y-136246773D01*
X169450833Y-136213440D01*
X169517500Y-136146773D01*
X169550833Y-136080106D01*
X169584166Y-135946773D01*
X169584166Y-135846773D01*
X169550833Y-135713440D01*
X169517500Y-135646773D01*
X169450833Y-135580106D01*
X169350833Y-135546773D01*
X169284166Y-135546773D01*
X169184166Y-135580106D01*
X169150833Y-135613440D01*
X169150833Y-135846773D01*
X169284166Y-135846773D01*
X168850833Y-135546773D02*
X168850833Y-136246773D01*
X168584166Y-136246773D01*
X168517500Y-136213440D01*
X168484166Y-136180106D01*
X168450833Y-136113440D01*
X168450833Y-136013440D01*
X168484166Y-135946773D01*
X168517500Y-135913440D01*
X168584166Y-135880106D01*
X168850833Y-135880106D01*
X168150833Y-135546773D02*
X168150833Y-136246773D01*
X167684166Y-136246773D02*
X167550833Y-136246773D01*
X167484166Y-136213440D01*
X167417500Y-136146773D01*
X167384166Y-136013440D01*
X167384166Y-135780106D01*
X167417500Y-135646773D01*
X167484166Y-135580106D01*
X167550833Y-135546773D01*
X167684166Y-135546773D01*
X167750833Y-135580106D01*
X167817500Y-135646773D01*
X167850833Y-135780106D01*
X167850833Y-136013440D01*
X167817500Y-136146773D01*
X167750833Y-136213440D01*
X167684166Y-136246773D01*
X167117500Y-136180106D02*
X167084166Y-136213440D01*
X167017500Y-136246773D01*
X166850833Y-136246773D01*
X166784166Y-136213440D01*
X166750833Y-136180106D01*
X166717500Y-136113440D01*
X166717500Y-136046773D01*
X166750833Y-135946773D01*
X167150833Y-135546773D01*
X166717500Y-135546773D01*
X166484166Y-136246773D02*
X166050833Y-136246773D01*
X166284166Y-135980106D01*
X166184166Y-135980106D01*
X166117500Y-135946773D01*
X166084166Y-135913440D01*
X166050833Y-135846773D01*
X166050833Y-135680106D01*
X166084166Y-135613440D01*
X166117500Y-135580106D01*
X166184166Y-135546773D01*
X166384166Y-135546773D01*
X166450833Y-135580106D01*
X166484166Y-135613440D01*
X168203214Y-138903440D02*
X168298452Y-138951059D01*
X168441309Y-138951059D01*
X168584166Y-138903440D01*
X168679404Y-138808201D01*
X168727023Y-138712963D01*
X168774642Y-138522487D01*
X168774642Y-138379630D01*
X168727023Y-138189154D01*
X168679404Y-138093916D01*
X168584166Y-137998678D01*
X168441309Y-137951059D01*
X168346071Y-137951059D01*
X168203214Y-137998678D01*
X168155595Y-138046297D01*
X168155595Y-138379630D01*
X168346071Y-138379630D01*
X167727023Y-137951059D02*
X167727023Y-138951059D01*
X167155595Y-137951059D01*
X167155595Y-138951059D01*
X166679404Y-137951059D02*
X166679404Y-138951059D01*
X166441309Y-138951059D01*
X166298452Y-138903440D01*
X166203214Y-138808201D01*
X166155595Y-138712963D01*
X166107976Y-138522487D01*
X166107976Y-138379630D01*
X166155595Y-138189154D01*
X166203214Y-138093916D01*
X166298452Y-137998678D01*
X166441309Y-137951059D01*
X166679404Y-137951059D01*
X188049166Y-118433440D02*
X188115833Y-118466773D01*
X188215833Y-118466773D01*
X188315833Y-118433440D01*
X188382500Y-118366773D01*
X188415833Y-118300106D01*
X188449166Y-118166773D01*
X188449166Y-118066773D01*
X188415833Y-117933440D01*
X188382500Y-117866773D01*
X188315833Y-117800106D01*
X188215833Y-117766773D01*
X188149166Y-117766773D01*
X188049166Y-117800106D01*
X188015833Y-117833440D01*
X188015833Y-118066773D01*
X188149166Y-118066773D01*
X187715833Y-117766773D02*
X187715833Y-118466773D01*
X187449166Y-118466773D01*
X187382500Y-118433440D01*
X187349166Y-118400106D01*
X187315833Y-118333440D01*
X187315833Y-118233440D01*
X187349166Y-118166773D01*
X187382500Y-118133440D01*
X187449166Y-118100106D01*
X187715833Y-118100106D01*
X187015833Y-117766773D02*
X187015833Y-118466773D01*
X186549166Y-118466773D02*
X186415833Y-118466773D01*
X186349166Y-118433440D01*
X186282500Y-118366773D01*
X186249166Y-118233440D01*
X186249166Y-118000106D01*
X186282500Y-117866773D01*
X186349166Y-117800106D01*
X186415833Y-117766773D01*
X186549166Y-117766773D01*
X186615833Y-117800106D01*
X186682500Y-117866773D01*
X186715833Y-118000106D01*
X186715833Y-118233440D01*
X186682500Y-118366773D01*
X186615833Y-118433440D01*
X186549166Y-118466773D01*
X185982500Y-118400106D02*
X185949166Y-118433440D01*
X185882500Y-118466773D01*
X185715833Y-118466773D01*
X185649166Y-118433440D01*
X185615833Y-118400106D01*
X185582500Y-118333440D01*
X185582500Y-118266773D01*
X185615833Y-118166773D01*
X186015833Y-117766773D01*
X185582500Y-117766773D01*
X184949166Y-118466773D02*
X185282500Y-118466773D01*
X185315833Y-118133440D01*
X185282500Y-118166773D01*
X185215833Y-118200106D01*
X185049166Y-118200106D01*
X184982500Y-118166773D01*
X184949166Y-118133440D01*
X184915833Y-118066773D01*
X184915833Y-117900106D01*
X184949166Y-117833440D01*
X184982500Y-117800106D01*
X185049166Y-117766773D01*
X185215833Y-117766773D01*
X185282500Y-117800106D01*
X185315833Y-117833440D01*
X167117500Y-97446773D02*
X167117500Y-98146773D01*
X166950833Y-98146773D01*
X166850833Y-98113440D01*
X166784166Y-98046773D01*
X166750833Y-97980106D01*
X166717500Y-97846773D01*
X166717500Y-97746773D01*
X166750833Y-97613440D01*
X166784166Y-97546773D01*
X166850833Y-97480106D01*
X166950833Y-97446773D01*
X167117500Y-97446773D01*
X166050833Y-97446773D02*
X166450833Y-97446773D01*
X166250833Y-97446773D02*
X166250833Y-98146773D01*
X166317500Y-98046773D01*
X166384166Y-97980106D01*
X166450833Y-97946773D01*
X169184166Y-113353440D02*
X169250833Y-113386773D01*
X169350833Y-113386773D01*
X169450833Y-113353440D01*
X169517500Y-113286773D01*
X169550833Y-113220106D01*
X169584166Y-113086773D01*
X169584166Y-112986773D01*
X169550833Y-112853440D01*
X169517500Y-112786773D01*
X169450833Y-112720106D01*
X169350833Y-112686773D01*
X169284166Y-112686773D01*
X169184166Y-112720106D01*
X169150833Y-112753440D01*
X169150833Y-112986773D01*
X169284166Y-112986773D01*
X168850833Y-112686773D02*
X168850833Y-113386773D01*
X168584166Y-113386773D01*
X168517500Y-113353440D01*
X168484166Y-113320106D01*
X168450833Y-113253440D01*
X168450833Y-113153440D01*
X168484166Y-113086773D01*
X168517500Y-113053440D01*
X168584166Y-113020106D01*
X168850833Y-113020106D01*
X168150833Y-112686773D02*
X168150833Y-113386773D01*
X167684166Y-113386773D02*
X167550833Y-113386773D01*
X167484166Y-113353440D01*
X167417500Y-113286773D01*
X167384166Y-113153440D01*
X167384166Y-112920106D01*
X167417500Y-112786773D01*
X167484166Y-112720106D01*
X167550833Y-112686773D01*
X167684166Y-112686773D01*
X167750833Y-112720106D01*
X167817500Y-112786773D01*
X167850833Y-112920106D01*
X167850833Y-113153440D01*
X167817500Y-113286773D01*
X167750833Y-113353440D01*
X167684166Y-113386773D01*
X166717500Y-112686773D02*
X167117500Y-112686773D01*
X166917500Y-112686773D02*
X166917500Y-113386773D01*
X166984166Y-113286773D01*
X167050833Y-113220106D01*
X167117500Y-113186773D01*
X166484166Y-113386773D02*
X166017500Y-113386773D01*
X166317500Y-112686773D01*
X188049166Y-103193440D02*
X188115833Y-103226773D01*
X188215833Y-103226773D01*
X188315833Y-103193440D01*
X188382500Y-103126773D01*
X188415833Y-103060106D01*
X188449166Y-102926773D01*
X188449166Y-102826773D01*
X188415833Y-102693440D01*
X188382500Y-102626773D01*
X188315833Y-102560106D01*
X188215833Y-102526773D01*
X188149166Y-102526773D01*
X188049166Y-102560106D01*
X188015833Y-102593440D01*
X188015833Y-102826773D01*
X188149166Y-102826773D01*
X187715833Y-102526773D02*
X187715833Y-103226773D01*
X187449166Y-103226773D01*
X187382500Y-103193440D01*
X187349166Y-103160106D01*
X187315833Y-103093440D01*
X187315833Y-102993440D01*
X187349166Y-102926773D01*
X187382500Y-102893440D01*
X187449166Y-102860106D01*
X187715833Y-102860106D01*
X187015833Y-102526773D02*
X187015833Y-103226773D01*
X186549166Y-103226773D02*
X186415833Y-103226773D01*
X186349166Y-103193440D01*
X186282500Y-103126773D01*
X186249166Y-102993440D01*
X186249166Y-102760106D01*
X186282500Y-102626773D01*
X186349166Y-102560106D01*
X186415833Y-102526773D01*
X186549166Y-102526773D01*
X186615833Y-102560106D01*
X186682500Y-102626773D01*
X186715833Y-102760106D01*
X186715833Y-102993440D01*
X186682500Y-103126773D01*
X186615833Y-103193440D01*
X186549166Y-103226773D01*
X185582500Y-102526773D02*
X185982500Y-102526773D01*
X185782500Y-102526773D02*
X185782500Y-103226773D01*
X185849166Y-103126773D01*
X185915833Y-103060106D01*
X185982500Y-103026773D01*
X185349166Y-103226773D02*
X184915833Y-103226773D01*
X185149166Y-102960106D01*
X185049166Y-102960106D01*
X184982500Y-102926773D01*
X184949166Y-102893440D01*
X184915833Y-102826773D01*
X184915833Y-102660106D01*
X184949166Y-102593440D01*
X184982500Y-102560106D01*
X185049166Y-102526773D01*
X185249166Y-102526773D01*
X185315833Y-102560106D01*
X185349166Y-102593440D01*
X184115833Y-103260106D02*
X184715833Y-102360106D01*
X183882500Y-102526773D02*
X183882500Y-103226773D01*
X183649166Y-102726773D01*
X183415833Y-103226773D01*
X183415833Y-102526773D01*
X183182500Y-103226773D02*
X182782500Y-103226773D01*
X182982500Y-102526773D02*
X182982500Y-103226773D01*
X182149166Y-102593440D02*
X182182500Y-102560106D01*
X182282500Y-102526773D01*
X182349166Y-102526773D01*
X182449166Y-102560106D01*
X182515833Y-102626773D01*
X182549166Y-102693440D01*
X182582500Y-102826773D01*
X182582500Y-102926773D01*
X182549166Y-103060106D01*
X182515833Y-103126773D01*
X182449166Y-103193440D01*
X182349166Y-103226773D01*
X182282500Y-103226773D01*
X182182500Y-103193440D01*
X182149166Y-103160106D01*
X181849166Y-102526773D02*
X181849166Y-103226773D01*
X181449166Y-102526773D02*
X181749166Y-102926773D01*
X181449166Y-103226773D02*
X181849166Y-102826773D01*
X188515833Y-131166773D02*
X188282500Y-130466773D01*
X188049166Y-131166773D01*
X187815833Y-130466773D02*
X187815833Y-131166773D01*
X187415833Y-130466773D01*
X187415833Y-131166773D01*
X186582500Y-131200106D02*
X187182500Y-130300106D01*
X185982500Y-131133440D02*
X186049166Y-131166773D01*
X186149166Y-131166773D01*
X186249166Y-131133440D01*
X186315833Y-131066773D01*
X186349166Y-131000106D01*
X186382500Y-130866773D01*
X186382500Y-130766773D01*
X186349166Y-130633440D01*
X186315833Y-130566773D01*
X186249166Y-130500106D01*
X186149166Y-130466773D01*
X186082500Y-130466773D01*
X185982500Y-130500106D01*
X185949166Y-130533440D01*
X185949166Y-130766773D01*
X186082500Y-130766773D01*
X185649166Y-130466773D02*
X185649166Y-131166773D01*
X185382500Y-131166773D01*
X185315833Y-131133440D01*
X185282500Y-131100106D01*
X185249166Y-131033440D01*
X185249166Y-130933440D01*
X185282500Y-130866773D01*
X185315833Y-130833440D01*
X185382500Y-130800106D01*
X185649166Y-130800106D01*
X184949166Y-130466773D02*
X184949166Y-131166773D01*
X184482500Y-131166773D02*
X184349166Y-131166773D01*
X184282500Y-131133440D01*
X184215833Y-131066773D01*
X184182500Y-130933440D01*
X184182500Y-130700106D01*
X184215833Y-130566773D01*
X184282500Y-130500106D01*
X184349166Y-130466773D01*
X184482500Y-130466773D01*
X184549166Y-130500106D01*
X184615833Y-130566773D01*
X184649166Y-130700106D01*
X184649166Y-130933440D01*
X184615833Y-131066773D01*
X184549166Y-131133440D01*
X184482500Y-131166773D01*
X183949166Y-131166773D02*
X183515833Y-131166773D01*
X183749166Y-130900106D01*
X183649166Y-130900106D01*
X183582500Y-130866773D01*
X183549166Y-130833440D01*
X183515833Y-130766773D01*
X183515833Y-130600106D01*
X183549166Y-130533440D01*
X183582500Y-130500106D01*
X183649166Y-130466773D01*
X183849166Y-130466773D01*
X183915833Y-130500106D01*
X183949166Y-130533440D01*
X183182500Y-130466773D02*
X183049166Y-130466773D01*
X182982500Y-130500106D01*
X182949166Y-130533440D01*
X182882500Y-130633440D01*
X182849166Y-130766773D01*
X182849166Y-131033440D01*
X182882500Y-131100106D01*
X182915833Y-131133440D01*
X182982500Y-131166773D01*
X183115833Y-131166773D01*
X183182500Y-131133440D01*
X183215833Y-131100106D01*
X183249166Y-131033440D01*
X183249166Y-130866773D01*
X183215833Y-130800106D01*
X183182500Y-130766773D01*
X183115833Y-130733440D01*
X182982500Y-130733440D01*
X182915833Y-130766773D01*
X182882500Y-130800106D01*
X182849166Y-130866773D01*
X188049166Y-113353440D02*
X188115833Y-113386773D01*
X188215833Y-113386773D01*
X188315833Y-113353440D01*
X188382500Y-113286773D01*
X188415833Y-113220106D01*
X188449166Y-113086773D01*
X188449166Y-112986773D01*
X188415833Y-112853440D01*
X188382500Y-112786773D01*
X188315833Y-112720106D01*
X188215833Y-112686773D01*
X188149166Y-112686773D01*
X188049166Y-112720106D01*
X188015833Y-112753440D01*
X188015833Y-112986773D01*
X188149166Y-112986773D01*
X187715833Y-112686773D02*
X187715833Y-113386773D01*
X187449166Y-113386773D01*
X187382500Y-113353440D01*
X187349166Y-113320106D01*
X187315833Y-113253440D01*
X187315833Y-113153440D01*
X187349166Y-113086773D01*
X187382500Y-113053440D01*
X187449166Y-113020106D01*
X187715833Y-113020106D01*
X187015833Y-112686773D02*
X187015833Y-113386773D01*
X186549166Y-113386773D02*
X186415833Y-113386773D01*
X186349166Y-113353440D01*
X186282500Y-113286773D01*
X186249166Y-113153440D01*
X186249166Y-112920106D01*
X186282500Y-112786773D01*
X186349166Y-112720106D01*
X186415833Y-112686773D01*
X186549166Y-112686773D01*
X186615833Y-112720106D01*
X186682500Y-112786773D01*
X186715833Y-112920106D01*
X186715833Y-113153440D01*
X186682500Y-113286773D01*
X186615833Y-113353440D01*
X186549166Y-113386773D01*
X185982500Y-113320106D02*
X185949166Y-113353440D01*
X185882500Y-113386773D01*
X185715833Y-113386773D01*
X185649166Y-113353440D01*
X185615833Y-113320106D01*
X185582500Y-113253440D01*
X185582500Y-113186773D01*
X185615833Y-113086773D01*
X186015833Y-112686773D01*
X185582500Y-112686773D01*
X185349166Y-113386773D02*
X184882500Y-113386773D01*
X185182500Y-112686773D01*
X188515833Y-133706773D02*
X188282500Y-133006773D01*
X188049166Y-133706773D01*
X187815833Y-133006773D02*
X187815833Y-133706773D01*
X187549166Y-133706773D01*
X187482500Y-133673440D01*
X187449166Y-133640106D01*
X187415833Y-133573440D01*
X187415833Y-133473440D01*
X187449166Y-133406773D01*
X187482500Y-133373440D01*
X187549166Y-133340106D01*
X187815833Y-133340106D01*
X186615833Y-133740106D02*
X187215833Y-132840106D01*
X186015833Y-133673440D02*
X186082500Y-133706773D01*
X186182500Y-133706773D01*
X186282500Y-133673440D01*
X186349166Y-133606773D01*
X186382500Y-133540106D01*
X186415833Y-133406773D01*
X186415833Y-133306773D01*
X186382500Y-133173440D01*
X186349166Y-133106773D01*
X186282500Y-133040106D01*
X186182500Y-133006773D01*
X186115833Y-133006773D01*
X186015833Y-133040106D01*
X185982500Y-133073440D01*
X185982500Y-133306773D01*
X186115833Y-133306773D01*
X185682500Y-133006773D02*
X185682500Y-133706773D01*
X185415833Y-133706773D01*
X185349166Y-133673440D01*
X185315833Y-133640106D01*
X185282500Y-133573440D01*
X185282500Y-133473440D01*
X185315833Y-133406773D01*
X185349166Y-133373440D01*
X185415833Y-133340106D01*
X185682500Y-133340106D01*
X184982500Y-133006773D02*
X184982500Y-133706773D01*
X184515833Y-133706773D02*
X184382500Y-133706773D01*
X184315833Y-133673440D01*
X184249166Y-133606773D01*
X184215833Y-133473440D01*
X184215833Y-133240106D01*
X184249166Y-133106773D01*
X184315833Y-133040106D01*
X184382500Y-133006773D01*
X184515833Y-133006773D01*
X184582500Y-133040106D01*
X184649166Y-133106773D01*
X184682500Y-133240106D01*
X184682500Y-133473440D01*
X184649166Y-133606773D01*
X184582500Y-133673440D01*
X184515833Y-133706773D01*
X183982500Y-133706773D02*
X183549166Y-133706773D01*
X183782500Y-133440106D01*
X183682500Y-133440106D01*
X183615833Y-133406773D01*
X183582500Y-133373440D01*
X183549166Y-133306773D01*
X183549166Y-133140106D01*
X183582500Y-133073440D01*
X183615833Y-133040106D01*
X183682500Y-133006773D01*
X183882500Y-133006773D01*
X183949166Y-133040106D01*
X183982500Y-133073440D01*
X182949166Y-133706773D02*
X183082500Y-133706773D01*
X183149166Y-133673440D01*
X183182500Y-133640106D01*
X183249166Y-133540106D01*
X183282500Y-133406773D01*
X183282500Y-133140106D01*
X183249166Y-133073440D01*
X183215833Y-133040106D01*
X183149166Y-133006773D01*
X183015833Y-133006773D01*
X182949166Y-133040106D01*
X182915833Y-133073440D01*
X182882500Y-133140106D01*
X182882500Y-133306773D01*
X182915833Y-133373440D01*
X182949166Y-133406773D01*
X183015833Y-133440106D01*
X183149166Y-133440106D01*
X183215833Y-133406773D01*
X183249166Y-133373440D01*
X183282500Y-133306773D01*
X188049166Y-120973440D02*
X188115833Y-121006773D01*
X188215833Y-121006773D01*
X188315833Y-120973440D01*
X188382500Y-120906773D01*
X188415833Y-120840106D01*
X188449166Y-120706773D01*
X188449166Y-120606773D01*
X188415833Y-120473440D01*
X188382500Y-120406773D01*
X188315833Y-120340106D01*
X188215833Y-120306773D01*
X188149166Y-120306773D01*
X188049166Y-120340106D01*
X188015833Y-120373440D01*
X188015833Y-120606773D01*
X188149166Y-120606773D01*
X187715833Y-120306773D02*
X187715833Y-121006773D01*
X187449166Y-121006773D01*
X187382500Y-120973440D01*
X187349166Y-120940106D01*
X187315833Y-120873440D01*
X187315833Y-120773440D01*
X187349166Y-120706773D01*
X187382500Y-120673440D01*
X187449166Y-120640106D01*
X187715833Y-120640106D01*
X187015833Y-120306773D02*
X187015833Y-121006773D01*
X186549166Y-121006773D02*
X186415833Y-121006773D01*
X186349166Y-120973440D01*
X186282500Y-120906773D01*
X186249166Y-120773440D01*
X186249166Y-120540106D01*
X186282500Y-120406773D01*
X186349166Y-120340106D01*
X186415833Y-120306773D01*
X186549166Y-120306773D01*
X186615833Y-120340106D01*
X186682500Y-120406773D01*
X186715833Y-120540106D01*
X186715833Y-120773440D01*
X186682500Y-120906773D01*
X186615833Y-120973440D01*
X186549166Y-121006773D01*
X186015833Y-121006773D02*
X185582500Y-121006773D01*
X185815833Y-120740106D01*
X185715833Y-120740106D01*
X185649166Y-120706773D01*
X185615833Y-120673440D01*
X185582500Y-120606773D01*
X185582500Y-120440106D01*
X185615833Y-120373440D01*
X185649166Y-120340106D01*
X185715833Y-120306773D01*
X185915833Y-120306773D01*
X185982500Y-120340106D01*
X186015833Y-120373440D01*
X185349166Y-121006773D02*
X184915833Y-121006773D01*
X185149166Y-120740106D01*
X185049166Y-120740106D01*
X184982500Y-120706773D01*
X184949166Y-120673440D01*
X184915833Y-120606773D01*
X184915833Y-120440106D01*
X184949166Y-120373440D01*
X184982500Y-120340106D01*
X185049166Y-120306773D01*
X185249166Y-120306773D01*
X185315833Y-120340106D01*
X185349166Y-120373440D01*
X169184166Y-120973440D02*
X169250833Y-121006773D01*
X169350833Y-121006773D01*
X169450833Y-120973440D01*
X169517500Y-120906773D01*
X169550833Y-120840106D01*
X169584166Y-120706773D01*
X169584166Y-120606773D01*
X169550833Y-120473440D01*
X169517500Y-120406773D01*
X169450833Y-120340106D01*
X169350833Y-120306773D01*
X169284166Y-120306773D01*
X169184166Y-120340106D01*
X169150833Y-120373440D01*
X169150833Y-120606773D01*
X169284166Y-120606773D01*
X168850833Y-120306773D02*
X168850833Y-121006773D01*
X168584166Y-121006773D01*
X168517500Y-120973440D01*
X168484166Y-120940106D01*
X168450833Y-120873440D01*
X168450833Y-120773440D01*
X168484166Y-120706773D01*
X168517500Y-120673440D01*
X168584166Y-120640106D01*
X168850833Y-120640106D01*
X168150833Y-120306773D02*
X168150833Y-121006773D01*
X167684166Y-121006773D02*
X167550833Y-121006773D01*
X167484166Y-120973440D01*
X167417500Y-120906773D01*
X167384166Y-120773440D01*
X167384166Y-120540106D01*
X167417500Y-120406773D01*
X167484166Y-120340106D01*
X167550833Y-120306773D01*
X167684166Y-120306773D01*
X167750833Y-120340106D01*
X167817500Y-120406773D01*
X167850833Y-120540106D01*
X167850833Y-120773440D01*
X167817500Y-120906773D01*
X167750833Y-120973440D01*
X167684166Y-121006773D01*
X166717500Y-120306773D02*
X167117500Y-120306773D01*
X166917500Y-120306773D02*
X166917500Y-121006773D01*
X166984166Y-120906773D01*
X167050833Y-120840106D01*
X167117500Y-120806773D01*
X166384166Y-120306773D02*
X166250833Y-120306773D01*
X166184166Y-120340106D01*
X166150833Y-120373440D01*
X166084166Y-120473440D01*
X166050833Y-120606773D01*
X166050833Y-120873440D01*
X166084166Y-120940106D01*
X166117500Y-120973440D01*
X166184166Y-121006773D01*
X166317500Y-121006773D01*
X166384166Y-120973440D01*
X166417500Y-120940106D01*
X166450833Y-120873440D01*
X166450833Y-120706773D01*
X166417500Y-120640106D01*
X166384166Y-120606773D01*
X166317500Y-120573440D01*
X166184166Y-120573440D01*
X166117500Y-120606773D01*
X166084166Y-120640106D01*
X166050833Y-120706773D01*
X188015833Y-94973440D02*
X188049166Y-94940106D01*
X188149166Y-94906773D01*
X188215833Y-94906773D01*
X188315833Y-94940106D01*
X188382500Y-95006773D01*
X188415833Y-95073440D01*
X188449166Y-95206773D01*
X188449166Y-95306773D01*
X188415833Y-95440106D01*
X188382500Y-95506773D01*
X188315833Y-95573440D01*
X188215833Y-95606773D01*
X188149166Y-95606773D01*
X188049166Y-95573440D01*
X188015833Y-95540106D01*
X187715833Y-94906773D02*
X187715833Y-95606773D01*
X187482500Y-95106773D01*
X187249166Y-95606773D01*
X187249166Y-94906773D01*
X186915833Y-94906773D02*
X186915833Y-95606773D01*
X186749166Y-95606773D01*
X186649166Y-95573440D01*
X186582500Y-95506773D01*
X186549166Y-95440106D01*
X186515833Y-95306773D01*
X186515833Y-95206773D01*
X186549166Y-95073440D01*
X186582500Y-95006773D01*
X186649166Y-94940106D01*
X186749166Y-94906773D01*
X186915833Y-94906773D01*
X188049166Y-128593440D02*
X188115833Y-128626773D01*
X188215833Y-128626773D01*
X188315833Y-128593440D01*
X188382500Y-128526773D01*
X188415833Y-128460106D01*
X188449166Y-128326773D01*
X188449166Y-128226773D01*
X188415833Y-128093440D01*
X188382500Y-128026773D01*
X188315833Y-127960106D01*
X188215833Y-127926773D01*
X188149166Y-127926773D01*
X188049166Y-127960106D01*
X188015833Y-127993440D01*
X188015833Y-128226773D01*
X188149166Y-128226773D01*
X187715833Y-127926773D02*
X187715833Y-128626773D01*
X187449166Y-128626773D01*
X187382500Y-128593440D01*
X187349166Y-128560106D01*
X187315833Y-128493440D01*
X187315833Y-128393440D01*
X187349166Y-128326773D01*
X187382500Y-128293440D01*
X187449166Y-128260106D01*
X187715833Y-128260106D01*
X187015833Y-127926773D02*
X187015833Y-128626773D01*
X186549166Y-128626773D02*
X186415833Y-128626773D01*
X186349166Y-128593440D01*
X186282500Y-128526773D01*
X186249166Y-128393440D01*
X186249166Y-128160106D01*
X186282500Y-128026773D01*
X186349166Y-127960106D01*
X186415833Y-127926773D01*
X186549166Y-127926773D01*
X186615833Y-127960106D01*
X186682500Y-128026773D01*
X186715833Y-128160106D01*
X186715833Y-128393440D01*
X186682500Y-128526773D01*
X186615833Y-128593440D01*
X186549166Y-128626773D01*
X186015833Y-128626773D02*
X185582500Y-128626773D01*
X185815833Y-128360106D01*
X185715833Y-128360106D01*
X185649166Y-128326773D01*
X185615833Y-128293440D01*
X185582500Y-128226773D01*
X185582500Y-128060106D01*
X185615833Y-127993440D01*
X185649166Y-127960106D01*
X185715833Y-127926773D01*
X185915833Y-127926773D01*
X185982500Y-127960106D01*
X186015833Y-127993440D01*
X184982500Y-128393440D02*
X184982500Y-127926773D01*
X185149166Y-128660106D02*
X185315833Y-128160106D01*
X184882500Y-128160106D01*
X187820595Y-105883440D02*
X187915833Y-105931059D01*
X188058690Y-105931059D01*
X188201547Y-105883440D01*
X188296785Y-105788201D01*
X188344404Y-105692963D01*
X188392023Y-105502487D01*
X188392023Y-105359630D01*
X188344404Y-105169154D01*
X188296785Y-105073916D01*
X188201547Y-104978678D01*
X188058690Y-104931059D01*
X187963452Y-104931059D01*
X187820595Y-104978678D01*
X187772976Y-105026297D01*
X187772976Y-105359630D01*
X187963452Y-105359630D01*
X187344404Y-104931059D02*
X187344404Y-105931059D01*
X186772976Y-104931059D01*
X186772976Y-105931059D01*
X186296785Y-104931059D02*
X186296785Y-105931059D01*
X186058690Y-105931059D01*
X185915833Y-105883440D01*
X185820595Y-105788201D01*
X185772976Y-105692963D01*
X185725357Y-105502487D01*
X185725357Y-105359630D01*
X185772976Y-105169154D01*
X185820595Y-105073916D01*
X185915833Y-104978678D01*
X186058690Y-104931059D01*
X186296785Y-104931059D01*
X169184166Y-118433440D02*
X169250833Y-118466773D01*
X169350833Y-118466773D01*
X169450833Y-118433440D01*
X169517500Y-118366773D01*
X169550833Y-118300106D01*
X169584166Y-118166773D01*
X169584166Y-118066773D01*
X169550833Y-117933440D01*
X169517500Y-117866773D01*
X169450833Y-117800106D01*
X169350833Y-117766773D01*
X169284166Y-117766773D01*
X169184166Y-117800106D01*
X169150833Y-117833440D01*
X169150833Y-118066773D01*
X169284166Y-118066773D01*
X168850833Y-117766773D02*
X168850833Y-118466773D01*
X168584166Y-118466773D01*
X168517500Y-118433440D01*
X168484166Y-118400106D01*
X168450833Y-118333440D01*
X168450833Y-118233440D01*
X168484166Y-118166773D01*
X168517500Y-118133440D01*
X168584166Y-118100106D01*
X168850833Y-118100106D01*
X168150833Y-117766773D02*
X168150833Y-118466773D01*
X167684166Y-118466773D02*
X167550833Y-118466773D01*
X167484166Y-118433440D01*
X167417500Y-118366773D01*
X167384166Y-118233440D01*
X167384166Y-118000106D01*
X167417500Y-117866773D01*
X167484166Y-117800106D01*
X167550833Y-117766773D01*
X167684166Y-117766773D01*
X167750833Y-117800106D01*
X167817500Y-117866773D01*
X167850833Y-118000106D01*
X167850833Y-118233440D01*
X167817500Y-118366773D01*
X167750833Y-118433440D01*
X167684166Y-118466773D01*
X166717500Y-117766773D02*
X167117500Y-117766773D01*
X166917500Y-117766773D02*
X166917500Y-118466773D01*
X166984166Y-118366773D01*
X167050833Y-118300106D01*
X167117500Y-118266773D01*
X166317500Y-118166773D02*
X166384166Y-118200106D01*
X166417500Y-118233440D01*
X166450833Y-118300106D01*
X166450833Y-118333440D01*
X166417500Y-118400106D01*
X166384166Y-118433440D01*
X166317500Y-118466773D01*
X166184166Y-118466773D01*
X166117500Y-118433440D01*
X166084166Y-118400106D01*
X166050833Y-118333440D01*
X166050833Y-118300106D01*
X166084166Y-118233440D01*
X166117500Y-118200106D01*
X166184166Y-118166773D01*
X166317500Y-118166773D01*
X166384166Y-118133440D01*
X166417500Y-118100106D01*
X166450833Y-118033440D01*
X166450833Y-117900106D01*
X166417500Y-117833440D01*
X166384166Y-117800106D01*
X166317500Y-117766773D01*
X166184166Y-117766773D01*
X166117500Y-117800106D01*
X166084166Y-117833440D01*
X166050833Y-117900106D01*
X166050833Y-118033440D01*
X166084166Y-118100106D01*
X166117500Y-118133440D01*
X166184166Y-118166773D01*
%TO.C,J4*%
X151752380Y-97333333D02*
X152466666Y-97333333D01*
X152609523Y-97380952D01*
X152704761Y-97476190D01*
X152752380Y-97619047D01*
X152752380Y-97714285D01*
X152085714Y-96428571D02*
X152752380Y-96428571D01*
X151704761Y-96666666D02*
X152419047Y-96904761D01*
X152419047Y-96285714D01*
D12*
%TO.C,K1*%
X79428547Y-134467843D02*
X79428547Y-133066937D01*
X80229065Y-134467843D02*
X79628677Y-133667325D01*
X80229065Y-133066937D02*
X79428547Y-133867454D01*
X81563261Y-134467843D02*
X80762744Y-134467843D01*
X81163003Y-134467843D02*
X81163003Y-133066937D01*
X81029583Y-133267066D01*
X80896163Y-133400486D01*
X80762744Y-133467196D01*
D11*
%TO.C,F4*%
X100666666Y-98798571D02*
X100333333Y-98798571D01*
X100333333Y-99322380D02*
X100333333Y-98322380D01*
X100809523Y-98322380D01*
X101619047Y-98655714D02*
X101619047Y-99322380D01*
X101380952Y-98274761D02*
X101142857Y-98989047D01*
X101761904Y-98989047D01*
D13*
%TO.C,J3*%
X139333163Y-149526669D02*
X139333163Y-150527248D01*
X139266458Y-150727364D01*
X139133047Y-150860774D01*
X138932931Y-150927479D01*
X138799521Y-150927479D01*
X139866805Y-149526669D02*
X140733973Y-149526669D01*
X140267036Y-150060311D01*
X140467152Y-150060311D01*
X140600562Y-150127016D01*
X140667268Y-150193722D01*
X140733973Y-150327132D01*
X140733973Y-150660658D01*
X140667268Y-150794069D01*
X140600562Y-150860774D01*
X140467152Y-150927479D01*
X140066920Y-150927479D01*
X139933510Y-150860774D01*
X139866805Y-150794069D01*
X137190349Y-192104635D02*
X137123571Y-192171413D01*
X136923237Y-192238191D01*
X136789680Y-192238191D01*
X136589346Y-192171413D01*
X136455790Y-192037857D01*
X136389012Y-191904301D01*
X136322234Y-191637189D01*
X136322234Y-191436854D01*
X136389012Y-191169742D01*
X136455790Y-191036186D01*
X136589346Y-190902630D01*
X136789680Y-190835851D01*
X136923237Y-190835851D01*
X137123571Y-190902630D01*
X137190349Y-190969408D01*
X137991686Y-192238191D02*
X137858130Y-192171413D01*
X137791352Y-192104635D01*
X137724574Y-191971079D01*
X137724574Y-191570410D01*
X137791352Y-191436854D01*
X137858130Y-191370076D01*
X137991686Y-191303298D01*
X138192020Y-191303298D01*
X138325577Y-191370076D01*
X138392355Y-191436854D01*
X138459133Y-191570410D01*
X138459133Y-191971079D01*
X138392355Y-192104635D01*
X138325577Y-192171413D01*
X138192020Y-192238191D01*
X137991686Y-192238191D01*
X139060136Y-191303298D02*
X139060136Y-192238191D01*
X139060136Y-191436854D02*
X139126914Y-191370076D01*
X139260470Y-191303298D01*
X139460804Y-191303298D01*
X139594360Y-191370076D01*
X139661139Y-191503632D01*
X139661139Y-192238191D01*
X140328920Y-191303298D02*
X140328920Y-192238191D01*
X140328920Y-191436854D02*
X140395698Y-191370076D01*
X140529254Y-191303298D01*
X140729588Y-191303298D01*
X140863144Y-191370076D01*
X140929922Y-191503632D01*
X140929922Y-192238191D01*
X141263813Y-192371748D02*
X142332262Y-192371748D01*
X142933265Y-190835851D02*
X143066821Y-190835851D01*
X143200378Y-190902630D01*
X143267156Y-190969408D01*
X143333934Y-191102964D01*
X143400712Y-191370076D01*
X143400712Y-191703967D01*
X143333934Y-191971079D01*
X143267156Y-192104635D01*
X143200378Y-192171413D01*
X143066821Y-192238191D01*
X142933265Y-192238191D01*
X142799709Y-192171413D01*
X142732931Y-192104635D01*
X142666153Y-191971079D01*
X142599375Y-191703967D01*
X142599375Y-191370076D01*
X142666153Y-191102964D01*
X142732931Y-190969408D01*
X142799709Y-190902630D01*
X142933265Y-190835851D01*
X144736274Y-192238191D02*
X143934937Y-192238191D01*
X144335605Y-192238191D02*
X144335605Y-190835851D01*
X144202049Y-191036186D01*
X144068493Y-191169742D01*
X143934937Y-191236520D01*
X145203720Y-192238191D02*
X145938280Y-191303298D01*
X145203720Y-191303298D02*
X145938280Y-192238191D01*
X146739617Y-190835851D02*
X146873173Y-190835851D01*
X147006729Y-190902630D01*
X147073507Y-190969408D01*
X147140285Y-191102964D01*
X147207063Y-191370076D01*
X147207063Y-191703967D01*
X147140285Y-191971079D01*
X147073507Y-192104635D01*
X147006729Y-192171413D01*
X146873173Y-192238191D01*
X146739617Y-192238191D01*
X146606060Y-192171413D01*
X146539282Y-192104635D01*
X146472504Y-191971079D01*
X146405726Y-191703967D01*
X146405726Y-191370076D01*
X146472504Y-191102964D01*
X146539282Y-190969408D01*
X146606060Y-190902630D01*
X146739617Y-190835851D01*
X148008400Y-191436854D02*
X147874844Y-191370076D01*
X147808066Y-191303298D01*
X147741288Y-191169742D01*
X147741288Y-191102964D01*
X147808066Y-190969408D01*
X147874844Y-190902630D01*
X148008400Y-190835851D01*
X148275513Y-190835851D01*
X148409069Y-190902630D01*
X148475847Y-190969408D01*
X148542625Y-191102964D01*
X148542625Y-191169742D01*
X148475847Y-191303298D01*
X148409069Y-191370076D01*
X148275513Y-191436854D01*
X148008400Y-191436854D01*
X147874844Y-191503632D01*
X147808066Y-191570410D01*
X147741288Y-191703967D01*
X147741288Y-191971079D01*
X147808066Y-192104635D01*
X147874844Y-192171413D01*
X148008400Y-192238191D01*
X148275513Y-192238191D01*
X148409069Y-192171413D01*
X148475847Y-192104635D01*
X148542625Y-191971079D01*
X148542625Y-191703967D01*
X148475847Y-191570410D01*
X148409069Y-191503632D01*
X148275513Y-191436854D01*
D11*
%TO.C,R1*%
X142452380Y-86166666D02*
X141976190Y-86500000D01*
X142452380Y-86738095D02*
X141452380Y-86738095D01*
X141452380Y-86357142D01*
X141500000Y-86261904D01*
X141547619Y-86214285D01*
X141642857Y-86166666D01*
X141785714Y-86166666D01*
X141880952Y-86214285D01*
X141928571Y-86261904D01*
X141976190Y-86357142D01*
X141976190Y-86738095D01*
X142452380Y-85214285D02*
X142452380Y-85785714D01*
X142452380Y-85500000D02*
X141452380Y-85500000D01*
X141595238Y-85595238D01*
X141690476Y-85690476D01*
X141738095Y-85785714D01*
%TO.C,R9*%
X144452380Y-88579166D02*
X143976190Y-88912500D01*
X144452380Y-89150595D02*
X143452380Y-89150595D01*
X143452380Y-88769642D01*
X143500000Y-88674404D01*
X143547619Y-88626785D01*
X143642857Y-88579166D01*
X143785714Y-88579166D01*
X143880952Y-88626785D01*
X143928571Y-88674404D01*
X143976190Y-88769642D01*
X143976190Y-89150595D01*
X144452380Y-88102976D02*
X144452380Y-87912500D01*
X144404761Y-87817261D01*
X144357142Y-87769642D01*
X144214285Y-87674404D01*
X144023809Y-87626785D01*
X143642857Y-87626785D01*
X143547619Y-87674404D01*
X143500000Y-87722023D01*
X143452380Y-87817261D01*
X143452380Y-88007738D01*
X143500000Y-88102976D01*
X143547619Y-88150595D01*
X143642857Y-88198214D01*
X143880952Y-88198214D01*
X143976190Y-88150595D01*
X144023809Y-88102976D01*
X144071428Y-88007738D01*
X144071428Y-87817261D01*
X144023809Y-87722023D01*
X143976190Y-87674404D01*
X143880952Y-87626785D01*
%TO.C,K6*%
X87652380Y-78488095D02*
X86652380Y-78488095D01*
X87652380Y-77916666D02*
X87080952Y-78345238D01*
X86652380Y-77916666D02*
X87223809Y-78488095D01*
X86652380Y-77059523D02*
X86652380Y-77250000D01*
X86700000Y-77345238D01*
X86747619Y-77392857D01*
X86890476Y-77488095D01*
X87080952Y-77535714D01*
X87461904Y-77535714D01*
X87557142Y-77488095D01*
X87604761Y-77440476D01*
X87652380Y-77345238D01*
X87652380Y-77154761D01*
X87604761Y-77059523D01*
X87557142Y-77011904D01*
X87461904Y-76964285D01*
X87223809Y-76964285D01*
X87128571Y-77011904D01*
X87080952Y-77059523D01*
X87033333Y-77154761D01*
X87033333Y-77345238D01*
X87080952Y-77440476D01*
X87128571Y-77488095D01*
X87223809Y-77535714D01*
%TO.C,D1*%
X110202380Y-82463095D02*
X109202380Y-82463095D01*
X109202380Y-82225000D01*
X109250000Y-82082142D01*
X109345238Y-81986904D01*
X109440476Y-81939285D01*
X109630952Y-81891666D01*
X109773809Y-81891666D01*
X109964285Y-81939285D01*
X110059523Y-81986904D01*
X110154761Y-82082142D01*
X110202380Y-82225000D01*
X110202380Y-82463095D01*
X110202380Y-80939285D02*
X110202380Y-81510714D01*
X110202380Y-81225000D02*
X109202380Y-81225000D01*
X109345238Y-81320238D01*
X109440476Y-81415476D01*
X109488095Y-81510714D01*
%TO.C,F8*%
X100666666Y-90548571D02*
X100333333Y-90548571D01*
X100333333Y-91072380D02*
X100333333Y-90072380D01*
X100809523Y-90072380D01*
X101333333Y-90500952D02*
X101238095Y-90453333D01*
X101190476Y-90405714D01*
X101142857Y-90310476D01*
X101142857Y-90262857D01*
X101190476Y-90167619D01*
X101238095Y-90120000D01*
X101333333Y-90072380D01*
X101523809Y-90072380D01*
X101619047Y-90120000D01*
X101666666Y-90167619D01*
X101714285Y-90262857D01*
X101714285Y-90310476D01*
X101666666Y-90405714D01*
X101619047Y-90453333D01*
X101523809Y-90500952D01*
X101333333Y-90500952D01*
X101238095Y-90548571D01*
X101190476Y-90596190D01*
X101142857Y-90691428D01*
X101142857Y-90881904D01*
X101190476Y-90977142D01*
X101238095Y-91024761D01*
X101333333Y-91072380D01*
X101523809Y-91072380D01*
X101619047Y-91024761D01*
X101666666Y-90977142D01*
X101714285Y-90881904D01*
X101714285Y-90691428D01*
X101666666Y-90596190D01*
X101619047Y-90548571D01*
X101523809Y-90500952D01*
%TO.C,R3*%
X137452380Y-88329166D02*
X136976190Y-88662500D01*
X137452380Y-88900595D02*
X136452380Y-88900595D01*
X136452380Y-88519642D01*
X136500000Y-88424404D01*
X136547619Y-88376785D01*
X136642857Y-88329166D01*
X136785714Y-88329166D01*
X136880952Y-88376785D01*
X136928571Y-88424404D01*
X136976190Y-88519642D01*
X136976190Y-88900595D01*
X136452380Y-87995833D02*
X136452380Y-87376785D01*
X136833333Y-87710119D01*
X136833333Y-87567261D01*
X136880952Y-87472023D01*
X136928571Y-87424404D01*
X137023809Y-87376785D01*
X137261904Y-87376785D01*
X137357142Y-87424404D01*
X137404761Y-87472023D01*
X137452380Y-87567261D01*
X137452380Y-87852976D01*
X137404761Y-87948214D01*
X137357142Y-87995833D01*
%TO.C,K5*%
X73794880Y-89895595D02*
X72794880Y-89895595D01*
X73794880Y-89324166D02*
X73223452Y-89752738D01*
X72794880Y-89324166D02*
X73366309Y-89895595D01*
X72794880Y-88419404D02*
X72794880Y-88895595D01*
X73271071Y-88943214D01*
X73223452Y-88895595D01*
X73175833Y-88800357D01*
X73175833Y-88562261D01*
X73223452Y-88467023D01*
X73271071Y-88419404D01*
X73366309Y-88371785D01*
X73604404Y-88371785D01*
X73699642Y-88419404D01*
X73747261Y-88467023D01*
X73794880Y-88562261D01*
X73794880Y-88800357D01*
X73747261Y-88895595D01*
X73699642Y-88943214D01*
%TO.C,C4*%
X115083333Y-85607142D02*
X115035714Y-85654761D01*
X114892857Y-85702380D01*
X114797619Y-85702380D01*
X114654761Y-85654761D01*
X114559523Y-85559523D01*
X114511904Y-85464285D01*
X114464285Y-85273809D01*
X114464285Y-85130952D01*
X114511904Y-84940476D01*
X114559523Y-84845238D01*
X114654761Y-84750000D01*
X114797619Y-84702380D01*
X114892857Y-84702380D01*
X115035714Y-84750000D01*
X115083333Y-84797619D01*
X115940476Y-85035714D02*
X115940476Y-85702380D01*
X115702380Y-84654761D02*
X115464285Y-85369047D01*
X116083333Y-85369047D01*
%TO.C,C8*%
X144177142Y-124529166D02*
X144224761Y-124576785D01*
X144272380Y-124719642D01*
X144272380Y-124814880D01*
X144224761Y-124957738D01*
X144129523Y-125052976D01*
X144034285Y-125100595D01*
X143843809Y-125148214D01*
X143700952Y-125148214D01*
X143510476Y-125100595D01*
X143415238Y-125052976D01*
X143320000Y-124957738D01*
X143272380Y-124814880D01*
X143272380Y-124719642D01*
X143320000Y-124576785D01*
X143367619Y-124529166D01*
X143700952Y-123957738D02*
X143653333Y-124052976D01*
X143605714Y-124100595D01*
X143510476Y-124148214D01*
X143462857Y-124148214D01*
X143367619Y-124100595D01*
X143320000Y-124052976D01*
X143272380Y-123957738D01*
X143272380Y-123767261D01*
X143320000Y-123672023D01*
X143367619Y-123624404D01*
X143462857Y-123576785D01*
X143510476Y-123576785D01*
X143605714Y-123624404D01*
X143653333Y-123672023D01*
X143700952Y-123767261D01*
X143700952Y-123957738D01*
X143748571Y-124052976D01*
X143796190Y-124100595D01*
X143891428Y-124148214D01*
X144081904Y-124148214D01*
X144177142Y-124100595D01*
X144224761Y-124052976D01*
X144272380Y-123957738D01*
X144272380Y-123767261D01*
X144224761Y-123672023D01*
X144177142Y-123624404D01*
X144081904Y-123576785D01*
X143891428Y-123576785D01*
X143796190Y-123624404D01*
X143748571Y-123672023D01*
X143700952Y-123767261D01*
%TO.C,D11*%
X88702380Y-78714285D02*
X87702380Y-78714285D01*
X87702380Y-78476190D01*
X87750000Y-78333333D01*
X87845238Y-78238095D01*
X87940476Y-78190476D01*
X88130952Y-78142857D01*
X88273809Y-78142857D01*
X88464285Y-78190476D01*
X88559523Y-78238095D01*
X88654761Y-78333333D01*
X88702380Y-78476190D01*
X88702380Y-78714285D01*
X88702380Y-77190476D02*
X88702380Y-77761904D01*
X88702380Y-77476190D02*
X87702380Y-77476190D01*
X87845238Y-77571428D01*
X87940476Y-77666666D01*
X87988095Y-77761904D01*
X88702380Y-76238095D02*
X88702380Y-76809523D01*
X88702380Y-76523809D02*
X87702380Y-76523809D01*
X87845238Y-76619047D01*
X87940476Y-76714285D01*
X87988095Y-76809523D01*
%TO.C,D4*%
X141452380Y-94738095D02*
X140452380Y-94738095D01*
X140452380Y-94500000D01*
X140500000Y-94357142D01*
X140595238Y-94261904D01*
X140690476Y-94214285D01*
X140880952Y-94166666D01*
X141023809Y-94166666D01*
X141214285Y-94214285D01*
X141309523Y-94261904D01*
X141404761Y-94357142D01*
X141452380Y-94500000D01*
X141452380Y-94738095D01*
X140785714Y-93309523D02*
X141452380Y-93309523D01*
X140404761Y-93547619D02*
X141119047Y-93785714D01*
X141119047Y-93166666D01*
%TO.C,F7*%
X100666666Y-107298571D02*
X100333333Y-107298571D01*
X100333333Y-107822380D02*
X100333333Y-106822380D01*
X100809523Y-106822380D01*
X101095238Y-106822380D02*
X101761904Y-106822380D01*
X101333333Y-107822380D01*
%TO.C,D9*%
X148302380Y-137488095D02*
X147302380Y-137488095D01*
X147302380Y-137250000D01*
X147350000Y-137107142D01*
X147445238Y-137011904D01*
X147540476Y-136964285D01*
X147730952Y-136916666D01*
X147873809Y-136916666D01*
X148064285Y-136964285D01*
X148159523Y-137011904D01*
X148254761Y-137107142D01*
X148302380Y-137250000D01*
X148302380Y-137488095D01*
X148302380Y-136440476D02*
X148302380Y-136250000D01*
X148254761Y-136154761D01*
X148207142Y-136107142D01*
X148064285Y-136011904D01*
X147873809Y-135964285D01*
X147492857Y-135964285D01*
X147397619Y-136011904D01*
X147350000Y-136059523D01*
X147302380Y-136154761D01*
X147302380Y-136345238D01*
X147350000Y-136440476D01*
X147397619Y-136488095D01*
X147492857Y-136535714D01*
X147730952Y-136535714D01*
X147826190Y-136488095D01*
X147873809Y-136440476D01*
X147921428Y-136345238D01*
X147921428Y-136154761D01*
X147873809Y-136059523D01*
X147826190Y-136011904D01*
X147730952Y-135964285D01*
%TO.C,R4*%
X156583333Y-105952380D02*
X156250000Y-105476190D01*
X156011904Y-105952380D02*
X156011904Y-104952380D01*
X156392857Y-104952380D01*
X156488095Y-105000000D01*
X156535714Y-105047619D01*
X156583333Y-105142857D01*
X156583333Y-105285714D01*
X156535714Y-105380952D01*
X156488095Y-105428571D01*
X156392857Y-105476190D01*
X156011904Y-105476190D01*
X157440476Y-105285714D02*
X157440476Y-105952380D01*
X157202380Y-104904761D02*
X156964285Y-105619047D01*
X157583333Y-105619047D01*
%TO.C,K4*%
X73544880Y-66365678D02*
X72544880Y-66365678D01*
X73544880Y-65794249D02*
X72973452Y-66222821D01*
X72544880Y-65794249D02*
X73116309Y-66365678D01*
X72878214Y-64937106D02*
X73544880Y-64937106D01*
X72497261Y-65175202D02*
X73211547Y-65413297D01*
X73211547Y-64794249D01*
%TO.C,D6*%
X172602380Y-81488095D02*
X171602380Y-81488095D01*
X171602380Y-81250000D01*
X171650000Y-81107142D01*
X171745238Y-81011904D01*
X171840476Y-80964285D01*
X172030952Y-80916666D01*
X172173809Y-80916666D01*
X172364285Y-80964285D01*
X172459523Y-81011904D01*
X172554761Y-81107142D01*
X172602380Y-81250000D01*
X172602380Y-81488095D01*
X171602380Y-80059523D02*
X171602380Y-80250000D01*
X171650000Y-80345238D01*
X171697619Y-80392857D01*
X171840476Y-80488095D01*
X172030952Y-80535714D01*
X172411904Y-80535714D01*
X172507142Y-80488095D01*
X172554761Y-80440476D01*
X172602380Y-80345238D01*
X172602380Y-80154761D01*
X172554761Y-80059523D01*
X172507142Y-80011904D01*
X172411904Y-79964285D01*
X172173809Y-79964285D01*
X172078571Y-80011904D01*
X172030952Y-80059523D01*
X171983333Y-80154761D01*
X171983333Y-80345238D01*
X172030952Y-80440476D01*
X172078571Y-80488095D01*
X172173809Y-80535714D01*
%TO.C,F10*%
X130190476Y-116558571D02*
X129857142Y-116558571D01*
X129857142Y-117082380D02*
X129857142Y-116082380D01*
X130333333Y-116082380D01*
X131238095Y-117082380D02*
X130666666Y-117082380D01*
X130952380Y-117082380D02*
X130952380Y-116082380D01*
X130857142Y-116225238D01*
X130761904Y-116320476D01*
X130666666Y-116368095D01*
X131857142Y-116082380D02*
X131952380Y-116082380D01*
X132047619Y-116130000D01*
X132095238Y-116177619D01*
X132142857Y-116272857D01*
X132190476Y-116463333D01*
X132190476Y-116701428D01*
X132142857Y-116891904D01*
X132095238Y-116987142D01*
X132047619Y-117034761D01*
X131952380Y-117082380D01*
X131857142Y-117082380D01*
X131761904Y-117034761D01*
X131714285Y-116987142D01*
X131666666Y-116891904D01*
X131619047Y-116701428D01*
X131619047Y-116463333D01*
X131666666Y-116272857D01*
X131714285Y-116177619D01*
X131761904Y-116130000D01*
X131857142Y-116082380D01*
%TO.C,R6*%
X147333333Y-133702380D02*
X147000000Y-133226190D01*
X146761904Y-133702380D02*
X146761904Y-132702380D01*
X147142857Y-132702380D01*
X147238095Y-132750000D01*
X147285714Y-132797619D01*
X147333333Y-132892857D01*
X147333333Y-133035714D01*
X147285714Y-133130952D01*
X147238095Y-133178571D01*
X147142857Y-133226190D01*
X146761904Y-133226190D01*
X148190476Y-132702380D02*
X148000000Y-132702380D01*
X147904761Y-132750000D01*
X147857142Y-132797619D01*
X147761904Y-132940476D01*
X147714285Y-133130952D01*
X147714285Y-133511904D01*
X147761904Y-133607142D01*
X147809523Y-133654761D01*
X147904761Y-133702380D01*
X148095238Y-133702380D01*
X148190476Y-133654761D01*
X148238095Y-133607142D01*
X148285714Y-133511904D01*
X148285714Y-133273809D01*
X148238095Y-133178571D01*
X148190476Y-133130952D01*
X148095238Y-133083333D01*
X147904761Y-133083333D01*
X147809523Y-133130952D01*
X147761904Y-133178571D01*
X147714285Y-133273809D01*
%TO.C,J5*%
X152119880Y-108684448D02*
X152834166Y-108684448D01*
X152977023Y-108732067D01*
X153072261Y-108827305D01*
X153119880Y-108970162D01*
X153119880Y-109065400D01*
X152119880Y-107732067D02*
X152119880Y-108208257D01*
X152596071Y-108255876D01*
X152548452Y-108208257D01*
X152500833Y-108113019D01*
X152500833Y-107874924D01*
X152548452Y-107779686D01*
X152596071Y-107732067D01*
X152691309Y-107684448D01*
X152929404Y-107684448D01*
X153024642Y-107732067D01*
X153072261Y-107779686D01*
X153119880Y-107874924D01*
X153119880Y-108113019D01*
X153072261Y-108208257D01*
X153024642Y-108255876D01*
%TO.C,F11*%
X66190476Y-142548571D02*
X65857142Y-142548571D01*
X65857142Y-143072380D02*
X65857142Y-142072380D01*
X66333333Y-142072380D01*
X67238095Y-143072380D02*
X66666666Y-143072380D01*
X66952380Y-143072380D02*
X66952380Y-142072380D01*
X66857142Y-142215238D01*
X66761904Y-142310476D01*
X66666666Y-142358095D01*
X68190476Y-143072380D02*
X67619047Y-143072380D01*
X67904761Y-143072380D02*
X67904761Y-142072380D01*
X67809523Y-142215238D01*
X67714285Y-142310476D01*
X67619047Y-142358095D01*
%TO.C,F2*%
X100666666Y-81798571D02*
X100333333Y-81798571D01*
X100333333Y-82322380D02*
X100333333Y-81322380D01*
X100809523Y-81322380D01*
X101142857Y-81417619D02*
X101190476Y-81370000D01*
X101285714Y-81322380D01*
X101523809Y-81322380D01*
X101619047Y-81370000D01*
X101666666Y-81417619D01*
X101714285Y-81512857D01*
X101714285Y-81608095D01*
X101666666Y-81750952D01*
X101095238Y-82322380D01*
X101714285Y-82322380D01*
%TO.C,K3*%
X116512380Y-110304210D02*
X115512380Y-110304210D01*
X116512380Y-109732781D02*
X115940952Y-110161353D01*
X115512380Y-109732781D02*
X116083809Y-110304210D01*
X115512380Y-109399448D02*
X115512380Y-108780400D01*
X115893333Y-109113734D01*
X115893333Y-108970876D01*
X115940952Y-108875638D01*
X115988571Y-108828019D01*
X116083809Y-108780400D01*
X116321904Y-108780400D01*
X116417142Y-108828019D01*
X116464761Y-108875638D01*
X116512380Y-108970876D01*
X116512380Y-109256591D01*
X116464761Y-109351829D01*
X116417142Y-109399448D01*
D13*
%TO.C,J1*%
X72312156Y-64862066D02*
X73313013Y-64862066D01*
X73513184Y-64928790D01*
X73646632Y-65062238D01*
X73713356Y-65262409D01*
X73713356Y-65395857D01*
X73713356Y-63460866D02*
X73713356Y-64261552D01*
X73713356Y-63861209D02*
X72312156Y-63861209D01*
X72512327Y-63994657D01*
X72645775Y-64128104D01*
X72712499Y-64261552D01*
X52749889Y-70517694D02*
X52816661Y-70584466D01*
X52883433Y-70784782D01*
X52883433Y-70918325D01*
X52816661Y-71118641D01*
X52683117Y-71252185D01*
X52549573Y-71318957D01*
X52282485Y-71385729D01*
X52082170Y-71385729D01*
X51815082Y-71318957D01*
X51681538Y-71252185D01*
X51547995Y-71118641D01*
X51481223Y-70918325D01*
X51481223Y-70784782D01*
X51547995Y-70584466D01*
X51614766Y-70517694D01*
X52883433Y-69716431D02*
X52816661Y-69849975D01*
X52749889Y-69916747D01*
X52616345Y-69983519D01*
X52215714Y-69983519D01*
X52082170Y-69916747D01*
X52015398Y-69849975D01*
X51948626Y-69716431D01*
X51948626Y-69516115D01*
X52015398Y-69382572D01*
X52082170Y-69315800D01*
X52215714Y-69249028D01*
X52616345Y-69249028D01*
X52749889Y-69315800D01*
X52816661Y-69382572D01*
X52883433Y-69516115D01*
X52883433Y-69716431D01*
X51948626Y-68648081D02*
X52883433Y-68648081D01*
X52082170Y-68648081D02*
X52015398Y-68581309D01*
X51948626Y-68447765D01*
X51948626Y-68247449D01*
X52015398Y-68113905D01*
X52148942Y-68047134D01*
X52883433Y-68047134D01*
X51948626Y-67379415D02*
X52883433Y-67379415D01*
X52082170Y-67379415D02*
X52015398Y-67312643D01*
X51948626Y-67179099D01*
X51948626Y-66978783D01*
X52015398Y-66845239D01*
X52148942Y-66778467D01*
X52883433Y-66778467D01*
X53016976Y-66444608D02*
X53016976Y-65376257D01*
X51481223Y-64775310D02*
X51481223Y-64641766D01*
X51547995Y-64508223D01*
X51614766Y-64441451D01*
X51748310Y-64374679D01*
X52015398Y-64307907D01*
X52349257Y-64307907D01*
X52616345Y-64374679D01*
X52749889Y-64441451D01*
X52816661Y-64508223D01*
X52883433Y-64641766D01*
X52883433Y-64775310D01*
X52816661Y-64908854D01*
X52749889Y-64975626D01*
X52616345Y-65042398D01*
X52349257Y-65109170D01*
X52015398Y-65109170D01*
X51748310Y-65042398D01*
X51614766Y-64975626D01*
X51547995Y-64908854D01*
X51481223Y-64775310D01*
X52883433Y-62972469D02*
X52883433Y-63773732D01*
X52883433Y-63373100D02*
X51481223Y-63373100D01*
X51681538Y-63506644D01*
X51815082Y-63640188D01*
X51881854Y-63773732D01*
X52883433Y-62505065D02*
X51948626Y-61770575D01*
X51948626Y-62505065D02*
X52883433Y-61770575D01*
X51614766Y-61303171D02*
X51547995Y-61236399D01*
X51481223Y-61102855D01*
X51481223Y-60768996D01*
X51547995Y-60635452D01*
X51614766Y-60568680D01*
X51748310Y-60501908D01*
X51881854Y-60501908D01*
X52082170Y-60568680D01*
X52883433Y-61369943D01*
X52883433Y-60501908D01*
X51481223Y-60034505D02*
X51481223Y-59166470D01*
X52015398Y-59633874D01*
X52015398Y-59433558D01*
X52082170Y-59300014D01*
X52148942Y-59233242D01*
X52282485Y-59166470D01*
X52616345Y-59166470D01*
X52749889Y-59233242D01*
X52816661Y-59300014D01*
X52883433Y-59433558D01*
X52883433Y-59834189D01*
X52816661Y-59967733D01*
X52749889Y-60034505D01*
D11*
%TO.C,R7*%
X156583333Y-113452380D02*
X156250000Y-112976190D01*
X156011904Y-113452380D02*
X156011904Y-112452380D01*
X156392857Y-112452380D01*
X156488095Y-112500000D01*
X156535714Y-112547619D01*
X156583333Y-112642857D01*
X156583333Y-112785714D01*
X156535714Y-112880952D01*
X156488095Y-112928571D01*
X156392857Y-112976190D01*
X156011904Y-112976190D01*
X156916666Y-112452380D02*
X157583333Y-112452380D01*
X157154761Y-113452380D01*
%TO.C,F5*%
X100666666Y-115798571D02*
X100333333Y-115798571D01*
X100333333Y-116322380D02*
X100333333Y-115322380D01*
X100809523Y-115322380D01*
X101666666Y-115322380D02*
X101190476Y-115322380D01*
X101142857Y-115798571D01*
X101190476Y-115750952D01*
X101285714Y-115703333D01*
X101523809Y-115703333D01*
X101619047Y-115750952D01*
X101666666Y-115798571D01*
X101714285Y-115893809D01*
X101714285Y-116131904D01*
X101666666Y-116227142D01*
X101619047Y-116274761D01*
X101523809Y-116322380D01*
X101285714Y-116322380D01*
X101190476Y-116274761D01*
X101142857Y-116227142D01*
%TO.C,C1*%
X118558333Y-74902142D02*
X118510714Y-74949761D01*
X118367857Y-74997380D01*
X118272619Y-74997380D01*
X118129761Y-74949761D01*
X118034523Y-74854523D01*
X117986904Y-74759285D01*
X117939285Y-74568809D01*
X117939285Y-74425952D01*
X117986904Y-74235476D01*
X118034523Y-74140238D01*
X118129761Y-74045000D01*
X118272619Y-73997380D01*
X118367857Y-73997380D01*
X118510714Y-74045000D01*
X118558333Y-74092619D01*
X119510714Y-74997380D02*
X118939285Y-74997380D01*
X119225000Y-74997380D02*
X119225000Y-73997380D01*
X119129761Y-74140238D01*
X119034523Y-74235476D01*
X118939285Y-74283095D01*
%TO.C,F3*%
X110416666Y-116558571D02*
X110083333Y-116558571D01*
X110083333Y-117082380D02*
X110083333Y-116082380D01*
X110559523Y-116082380D01*
X110845238Y-116082380D02*
X111464285Y-116082380D01*
X111130952Y-116463333D01*
X111273809Y-116463333D01*
X111369047Y-116510952D01*
X111416666Y-116558571D01*
X111464285Y-116653809D01*
X111464285Y-116891904D01*
X111416666Y-116987142D01*
X111369047Y-117034761D01*
X111273809Y-117082380D01*
X110988095Y-117082380D01*
X110892857Y-117034761D01*
X110845238Y-116987142D01*
%TO.C,R2*%
X126677380Y-85146390D02*
X126201190Y-85479724D01*
X126677380Y-85717819D02*
X125677380Y-85717819D01*
X125677380Y-85336866D01*
X125725000Y-85241628D01*
X125772619Y-85194009D01*
X125867857Y-85146390D01*
X126010714Y-85146390D01*
X126105952Y-85194009D01*
X126153571Y-85241628D01*
X126201190Y-85336866D01*
X126201190Y-85717819D01*
X125772619Y-84765438D02*
X125725000Y-84717819D01*
X125677380Y-84622581D01*
X125677380Y-84384485D01*
X125725000Y-84289247D01*
X125772619Y-84241628D01*
X125867857Y-84194009D01*
X125963095Y-84194009D01*
X126105952Y-84241628D01*
X126677380Y-84813057D01*
X126677380Y-84194009D01*
D13*
%TO.C,J2*%
X193887933Y-77224656D02*
X193887933Y-78225513D01*
X193821209Y-78425684D01*
X193687761Y-78559132D01*
X193487590Y-78625856D01*
X193354142Y-78625856D01*
X194488447Y-77358103D02*
X194555171Y-77291380D01*
X194688619Y-77224656D01*
X195022238Y-77224656D01*
X195155685Y-77291380D01*
X195222409Y-77358103D01*
X195289133Y-77491551D01*
X195289133Y-77624999D01*
X195222409Y-77825170D01*
X194421723Y-78625856D01*
X195289133Y-78625856D01*
X188232305Y-57662389D02*
X188165533Y-57729161D01*
X187965217Y-57795933D01*
X187831674Y-57795933D01*
X187631358Y-57729161D01*
X187497814Y-57595617D01*
X187431042Y-57462073D01*
X187364270Y-57194985D01*
X187364270Y-56994670D01*
X187431042Y-56727582D01*
X187497814Y-56594038D01*
X187631358Y-56460495D01*
X187831674Y-56393723D01*
X187965217Y-56393723D01*
X188165533Y-56460495D01*
X188232305Y-56527266D01*
X189033568Y-57795933D02*
X188900024Y-57729161D01*
X188833252Y-57662389D01*
X188766480Y-57528845D01*
X188766480Y-57128214D01*
X188833252Y-56994670D01*
X188900024Y-56927898D01*
X189033568Y-56861126D01*
X189233884Y-56861126D01*
X189367427Y-56927898D01*
X189434199Y-56994670D01*
X189500971Y-57128214D01*
X189500971Y-57528845D01*
X189434199Y-57662389D01*
X189367427Y-57729161D01*
X189233884Y-57795933D01*
X189033568Y-57795933D01*
X190101918Y-56861126D02*
X190101918Y-57795933D01*
X190101918Y-56994670D02*
X190168690Y-56927898D01*
X190302234Y-56861126D01*
X190502550Y-56861126D01*
X190636094Y-56927898D01*
X190702865Y-57061442D01*
X190702865Y-57795933D01*
X191370585Y-56861126D02*
X191370585Y-57795933D01*
X191370585Y-56994670D02*
X191437356Y-56927898D01*
X191570900Y-56861126D01*
X191771216Y-56861126D01*
X191904760Y-56927898D01*
X191971532Y-57061442D01*
X191971532Y-57795933D01*
X192305391Y-57929476D02*
X193373742Y-57929476D01*
X193974689Y-56393723D02*
X194108233Y-56393723D01*
X194241776Y-56460495D01*
X194308548Y-56527266D01*
X194375320Y-56660810D01*
X194442092Y-56927898D01*
X194442092Y-57261757D01*
X194375320Y-57528845D01*
X194308548Y-57662389D01*
X194241776Y-57729161D01*
X194108233Y-57795933D01*
X193974689Y-57795933D01*
X193841145Y-57729161D01*
X193774373Y-57662389D01*
X193707601Y-57528845D01*
X193640829Y-57261757D01*
X193640829Y-56927898D01*
X193707601Y-56660810D01*
X193774373Y-56527266D01*
X193841145Y-56460495D01*
X193974689Y-56393723D01*
X195777530Y-57795933D02*
X194976267Y-57795933D01*
X195376899Y-57795933D02*
X195376899Y-56393723D01*
X195243355Y-56594038D01*
X195109811Y-56727582D01*
X194976267Y-56794354D01*
X196244934Y-57795933D02*
X196979425Y-56861126D01*
X196244934Y-56861126D02*
X196979425Y-57795933D01*
X197446828Y-56527266D02*
X197513600Y-56460495D01*
X197647144Y-56393723D01*
X197981003Y-56393723D01*
X198114547Y-56460495D01*
X198181319Y-56527266D01*
X198248091Y-56660810D01*
X198248091Y-56794354D01*
X198181319Y-56994670D01*
X197380056Y-57795933D01*
X198248091Y-57795933D01*
X198715494Y-56393723D02*
X199583529Y-56393723D01*
X199116125Y-56927898D01*
X199316441Y-56927898D01*
X199449985Y-56994670D01*
X199516757Y-57061442D01*
X199583529Y-57194985D01*
X199583529Y-57528845D01*
X199516757Y-57662389D01*
X199449985Y-57729161D01*
X199316441Y-57795933D01*
X198915810Y-57795933D01*
X198782266Y-57729161D01*
X198715494Y-57662389D01*
D11*
%TO.C,J6*%
X149694166Y-149152380D02*
X149694166Y-149866666D01*
X149646547Y-150009523D01*
X149551309Y-150104761D01*
X149408452Y-150152380D01*
X149313214Y-150152380D01*
X150598928Y-149152380D02*
X150408452Y-149152380D01*
X150313214Y-149200000D01*
X150265595Y-149247619D01*
X150170357Y-149390476D01*
X150122738Y-149580952D01*
X150122738Y-149961904D01*
X150170357Y-150057142D01*
X150217976Y-150104761D01*
X150313214Y-150152380D01*
X150503690Y-150152380D01*
X150598928Y-150104761D01*
X150646547Y-150057142D01*
X150694166Y-149961904D01*
X150694166Y-149723809D01*
X150646547Y-149628571D01*
X150598928Y-149580952D01*
X150503690Y-149533333D01*
X150313214Y-149533333D01*
X150217976Y-149580952D01*
X150170357Y-149628571D01*
X150122738Y-149723809D01*
%TO.C,D8*%
X126357380Y-80213095D02*
X125357380Y-80213095D01*
X125357380Y-79975000D01*
X125405000Y-79832142D01*
X125500238Y-79736904D01*
X125595476Y-79689285D01*
X125785952Y-79641666D01*
X125928809Y-79641666D01*
X126119285Y-79689285D01*
X126214523Y-79736904D01*
X126309761Y-79832142D01*
X126357380Y-79975000D01*
X126357380Y-80213095D01*
X125785952Y-79070238D02*
X125738333Y-79165476D01*
X125690714Y-79213095D01*
X125595476Y-79260714D01*
X125547857Y-79260714D01*
X125452619Y-79213095D01*
X125405000Y-79165476D01*
X125357380Y-79070238D01*
X125357380Y-78879761D01*
X125405000Y-78784523D01*
X125452619Y-78736904D01*
X125547857Y-78689285D01*
X125595476Y-78689285D01*
X125690714Y-78736904D01*
X125738333Y-78784523D01*
X125785952Y-78879761D01*
X125785952Y-79070238D01*
X125833571Y-79165476D01*
X125881190Y-79213095D01*
X125976428Y-79260714D01*
X126166904Y-79260714D01*
X126262142Y-79213095D01*
X126309761Y-79165476D01*
X126357380Y-79070238D01*
X126357380Y-78879761D01*
X126309761Y-78784523D01*
X126262142Y-78736904D01*
X126166904Y-78689285D01*
X125976428Y-78689285D01*
X125881190Y-78736904D01*
X125833571Y-78784523D01*
X125785952Y-78879761D01*
%TO.C,Q1*%
X151447619Y-86345238D02*
X151400000Y-86440476D01*
X151304761Y-86535714D01*
X151161904Y-86678571D01*
X151114285Y-86773809D01*
X151114285Y-86869047D01*
X151352380Y-86821428D02*
X151304761Y-86916666D01*
X151209523Y-87011904D01*
X151019047Y-87059523D01*
X150685714Y-87059523D01*
X150495238Y-87011904D01*
X150400000Y-86916666D01*
X150352380Y-86821428D01*
X150352380Y-86630952D01*
X150400000Y-86535714D01*
X150495238Y-86440476D01*
X150685714Y-86392857D01*
X151019047Y-86392857D01*
X151209523Y-86440476D01*
X151304761Y-86535714D01*
X151352380Y-86630952D01*
X151352380Y-86821428D01*
X151352380Y-85440476D02*
X151352380Y-86011904D01*
X151352380Y-85726190D02*
X150352380Y-85726190D01*
X150495238Y-85821428D01*
X150590476Y-85916666D01*
X150638095Y-86011904D01*
%TO.C,U2*%
X117238095Y-75452380D02*
X117238095Y-76261904D01*
X117285714Y-76357142D01*
X117333333Y-76404761D01*
X117428571Y-76452380D01*
X117619047Y-76452380D01*
X117714285Y-76404761D01*
X117761904Y-76357142D01*
X117809523Y-76261904D01*
X117809523Y-75452380D01*
X118238095Y-75547619D02*
X118285714Y-75500000D01*
X118380952Y-75452380D01*
X118619047Y-75452380D01*
X118714285Y-75500000D01*
X118761904Y-75547619D01*
X118809523Y-75642857D01*
X118809523Y-75738095D01*
X118761904Y-75880952D01*
X118190476Y-76452380D01*
X118809523Y-76452380D01*
%TO.C,D12*%
X88702380Y-66674285D02*
X87702380Y-66674285D01*
X87702380Y-66436190D01*
X87750000Y-66293333D01*
X87845238Y-66198095D01*
X87940476Y-66150476D01*
X88130952Y-66102857D01*
X88273809Y-66102857D01*
X88464285Y-66150476D01*
X88559523Y-66198095D01*
X88654761Y-66293333D01*
X88702380Y-66436190D01*
X88702380Y-66674285D01*
X88702380Y-65150476D02*
X88702380Y-65721904D01*
X88702380Y-65436190D02*
X87702380Y-65436190D01*
X87845238Y-65531428D01*
X87940476Y-65626666D01*
X87988095Y-65721904D01*
X87797619Y-64769523D02*
X87750000Y-64721904D01*
X87702380Y-64626666D01*
X87702380Y-64388571D01*
X87750000Y-64293333D01*
X87797619Y-64245714D01*
X87892857Y-64198095D01*
X87988095Y-64198095D01*
X88130952Y-64245714D01*
X88702380Y-64817142D01*
X88702380Y-64198095D01*
%TO.C,D2*%
X161452380Y-81425595D02*
X160452380Y-81425595D01*
X160452380Y-81187500D01*
X160500000Y-81044642D01*
X160595238Y-80949404D01*
X160690476Y-80901785D01*
X160880952Y-80854166D01*
X161023809Y-80854166D01*
X161214285Y-80901785D01*
X161309523Y-80949404D01*
X161404761Y-81044642D01*
X161452380Y-81187500D01*
X161452380Y-81425595D01*
X160547619Y-80473214D02*
X160500000Y-80425595D01*
X160452380Y-80330357D01*
X160452380Y-80092261D01*
X160500000Y-79997023D01*
X160547619Y-79949404D01*
X160642857Y-79901785D01*
X160738095Y-79901785D01*
X160880952Y-79949404D01*
X161452380Y-80520833D01*
X161452380Y-79901785D01*
D14*
%TO.C,F6*%
X101750000Y-69000000D02*
X100250000Y-69000000D01*
X92900000Y-72470000D02*
X109100000Y-72470000D01*
X99400000Y-67000000D02*
X102600000Y-67000000D01*
X92900000Y-65530000D02*
X92900000Y-72470000D01*
X109100000Y-72470000D02*
X109100000Y-65530000D01*
X102600000Y-71000000D02*
X99400000Y-71000000D01*
X109100000Y-65530000D02*
X92900000Y-65530000D01*
%TO.C,D5*%
X140750000Y-110601115D02*
X142750000Y-110601115D01*
X142750000Y-110601115D02*
X142750000Y-106701115D01*
X140750000Y-110601115D02*
X140750000Y-106701115D01*
%TO.C,D10*%
X87480000Y-83840000D02*
X92121000Y-83840000D01*
X87480000Y-87109000D02*
X88990000Y-87109000D01*
X87480000Y-94080000D02*
X87480000Y-83840000D01*
X92121000Y-94080000D02*
X92121000Y-83840000D01*
X87480000Y-94080000D02*
X92121000Y-94080000D01*
X87480000Y-90810000D02*
X88990000Y-90810000D01*
X88990000Y-94080000D02*
X88990000Y-83840000D01*
%TO.C,F1*%
X118250000Y-69000000D02*
X119750000Y-69000000D01*
X110900000Y-65530000D02*
X110900000Y-72470000D01*
X127100000Y-65530000D02*
X110900000Y-65530000D01*
X117400000Y-67000000D02*
X120600000Y-67000000D01*
X127100000Y-72470000D02*
X127100000Y-65530000D01*
X110900000Y-72470000D02*
X127100000Y-72470000D01*
X120600000Y-71000000D02*
X117400000Y-71000000D01*
%TO.C,J7*%
X182750000Y-150612500D02*
X182750000Y-149612500D01*
X183550000Y-149912500D02*
X185250000Y-150212500D01*
X191950000Y-150112500D02*
X193250000Y-149812500D01*
X190450000Y-150312500D02*
X191950000Y-150112500D01*
X187350000Y-150412500D02*
X189150000Y-150412500D01*
X185250000Y-150212500D02*
X186050000Y-150312500D01*
X181340000Y-150612500D02*
X181340000Y-151012500D01*
X193250000Y-149812500D02*
X193750000Y-149712500D01*
X182750000Y-149712500D02*
X183550000Y-149912500D01*
X181340000Y-153532500D02*
X181340000Y-159312500D01*
X181340000Y-150612500D02*
X195160000Y-150612500D01*
X195160000Y-164532500D02*
X181340000Y-164532500D01*
X183250000Y-149112500D02*
X193250000Y-149112500D01*
X195160000Y-161832500D02*
X195160000Y-164532500D01*
X193750000Y-150612500D02*
X193750000Y-149612500D01*
X186050000Y-150312500D02*
X187350000Y-150412500D01*
X189150000Y-150412500D02*
X190450000Y-150312500D01*
X195160000Y-153532500D02*
X195160000Y-159312500D01*
X195160000Y-150612500D02*
X195160000Y-151012500D01*
X181340000Y-161832500D02*
X181340000Y-164532500D01*
X183250000Y-149112500D02*
G75*
G03*
X182750000Y-149612500I1J-500001D01*
G01*
X193750000Y-149612500D02*
G75*
G03*
X193250000Y-149112500I-500001J-1D01*
G01*
%TO.C,F9*%
X82900000Y-124220000D02*
X99100000Y-124220000D01*
X90250000Y-120750000D02*
X91750000Y-120750000D01*
X92600000Y-122750000D02*
X89400000Y-122750000D01*
X82900000Y-117280000D02*
X82900000Y-124220000D01*
X99100000Y-117280000D02*
X82900000Y-117280000D01*
X99100000Y-124220000D02*
X99100000Y-117280000D01*
X89400000Y-118750000D02*
X92600000Y-118750000D01*
%TO.C,C12*%
X150241233Y-123760000D02*
X150533767Y-123760000D01*
X150241233Y-122740000D02*
X150533767Y-122740000D01*
D15*
%TO.C,U4*%
X152770000Y-126250000D02*
X152770000Y-130250000D01*
X147730000Y-126250000D02*
X147730000Y-130250000D01*
D16*
X152845000Y-123805000D02*
G75*
G03*
X152845000Y-123805000I-100000J0D01*
G01*
D14*
%TO.C,K2*%
X136840000Y-98651115D02*
X137900000Y-98651115D01*
X135490000Y-97521115D02*
X136690000Y-97521115D01*
X137900000Y-95651115D02*
X136860000Y-95651115D01*
X136840000Y-95651115D02*
X136840000Y-98651115D01*
X136690000Y-96821115D02*
X135490000Y-96821115D01*
X117310000Y-102351115D02*
X137900000Y-102351115D01*
X117310000Y-91971115D02*
X117310000Y-102351115D01*
X137900000Y-102351115D02*
X137900000Y-91971115D01*
X138050000Y-91811115D02*
X138050000Y-93021115D01*
X136060000Y-96821115D02*
X136060000Y-95721115D01*
X135890000Y-96821115D02*
X136290000Y-97521115D01*
X137900000Y-91971115D02*
X117310000Y-91971115D01*
X136690000Y-97521115D02*
X136690000Y-96821115D01*
X135490000Y-96821115D02*
X135490000Y-97521115D01*
X136060000Y-97521115D02*
X136060000Y-98621115D01*
X136750000Y-91811115D02*
X138050000Y-91811115D01*
%TO.C,U1*%
X186219880Y-139523760D02*
X186219880Y-145416560D01*
X191449999Y-139503440D02*
X191450000Y-91583440D01*
X186219880Y-145416560D02*
X168236680Y-145416560D01*
X191450000Y-91583440D02*
X163050001Y-91583440D01*
X168236680Y-145416560D02*
X168236680Y-139523760D01*
X163050001Y-91583440D02*
X163050000Y-139503440D01*
X163050000Y-139503440D02*
X191449999Y-139503440D01*
%TO.C,J4*%
X151200000Y-97500000D02*
X151200000Y-96500000D01*
X150450000Y-96500000D02*
X150450000Y-97500000D01*
X151500000Y-94150000D02*
X151500000Y-92900000D01*
X150450000Y-97500000D02*
X151200000Y-97500000D01*
X145240000Y-100810000D02*
X151210000Y-100810000D01*
X148950000Y-93200000D02*
X148950000Y-93950000D01*
X148950000Y-93950000D02*
X147610000Y-93950000D01*
X151200000Y-99000000D02*
X150450000Y-99000000D01*
X148950000Y-100050000D02*
X146000000Y-100050000D01*
X151200000Y-95000000D02*
X151200000Y-93200000D01*
X151210000Y-93190000D02*
X145240000Y-93190000D01*
X151200000Y-100800000D02*
X151200000Y-99000000D01*
X151200000Y-93200000D02*
X150450000Y-93200000D01*
X151200000Y-96500000D02*
X150450000Y-96500000D01*
X151500000Y-92900000D02*
X150250000Y-92900000D01*
X148950000Y-100800000D02*
X148950000Y-100050000D01*
X150450000Y-93200000D02*
X150450000Y-95000000D01*
X146000000Y-97000000D02*
X146000000Y-95010000D01*
X150450000Y-95000000D02*
X151200000Y-95000000D01*
X150450000Y-99000000D02*
X150450000Y-100800000D01*
X146000000Y-100050000D02*
X146000000Y-97000000D01*
X145240000Y-93190000D02*
X145240000Y-100810000D01*
X151210000Y-100810000D02*
X151210000Y-93190000D01*
X150450000Y-100800000D02*
X151200000Y-100800000D01*
D15*
%TO.C,K1*%
X104635130Y-163255000D02*
X87823370Y-163255000D01*
X85537350Y-130745000D02*
X109967150Y-130745000D01*
X111467550Y-132245100D02*
X111467550Y-142044880D01*
X86323250Y-161754900D02*
X86323250Y-149107000D01*
X109967150Y-143545000D02*
X106897250Y-143545000D01*
X106135250Y-144307000D02*
X106135250Y-161754900D01*
X84037550Y-146844880D02*
X84037550Y-132245100D01*
X85561250Y-148345000D02*
X85537350Y-148345000D01*
X86323250Y-149107000D02*
G75*
G03*
X85561250Y-148345000I-762001J-1D01*
G01*
X85537350Y-130745000D02*
G75*
G03*
X84037550Y-132245101I153J-1499953D01*
G01*
X104635130Y-163255000D02*
G75*
G03*
X106135250Y-161754899I7J1500113D01*
G01*
X109967150Y-143545006D02*
G75*
G03*
X111467550Y-142044879I135J1500265D01*
G01*
X106897250Y-143545000D02*
G75*
G03*
X106135250Y-144307000I1J-762001D01*
G01*
X84037250Y-146844880D02*
G75*
G03*
X85537351Y-148345000I1500113J-7D01*
G01*
X86323250Y-161754900D02*
G75*
G03*
X87823371Y-163255000I1500113J13D01*
G01*
X111467250Y-132245100D02*
G75*
G03*
X109967149Y-130745000I-1500103J-3D01*
G01*
D14*
%TO.C,F4*%
X99400000Y-92500000D02*
X102600000Y-92500000D01*
X109100000Y-91030000D02*
X92900000Y-91030000D01*
X109100000Y-97970000D02*
X109100000Y-91030000D01*
X101750000Y-94500000D02*
X100250000Y-94500000D01*
X102600000Y-96500000D02*
X99400000Y-96500000D01*
X92900000Y-91030000D02*
X92900000Y-97970000D01*
X92900000Y-97970000D02*
X109100000Y-97970000D01*
D15*
%TO.C,J3*%
X129600000Y-169737500D02*
X129600000Y-167437500D01*
X161700000Y-169737500D02*
X129600000Y-169737500D01*
X170400000Y-169737500D02*
X161700000Y-169737500D01*
X129600000Y-167437500D02*
X129600000Y-151887500D01*
X170400000Y-167437500D02*
X129600000Y-167437500D01*
X170400000Y-151887500D02*
X170400000Y-167437500D01*
X170400000Y-167437500D02*
X170400000Y-169737500D01*
X129600000Y-151887500D02*
X170400000Y-151887500D01*
D17*
X146250000Y-150937500D02*
G75*
G03*
X146250000Y-150937500I-250000J0D01*
G01*
D14*
%TO.C,R1*%
X141022500Y-85995276D02*
X141022500Y-86504724D01*
X139977500Y-85995276D02*
X139977500Y-86504724D01*
%TO.C,R9*%
X141727500Y-87995276D02*
X141727500Y-88504724D01*
X142772500Y-87995276D02*
X142772500Y-88504724D01*
%TO.C,K6*%
X80174000Y-76672000D02*
X80174000Y-78577000D01*
X81317000Y-76012000D02*
X80682000Y-76012000D01*
X73600000Y-81650000D02*
X73600000Y-73850000D01*
X80682000Y-79212000D02*
X80682000Y-78577000D01*
X81190000Y-78577000D02*
X80174000Y-78577000D01*
X73600000Y-73850000D02*
X86300000Y-73850000D01*
X81190000Y-78196000D02*
X80174000Y-77561000D01*
X86500000Y-73650000D02*
X86500000Y-75850000D01*
X81190000Y-78577000D02*
X81190000Y-76672000D01*
X81190000Y-76672000D02*
X80174000Y-76672000D01*
X86300000Y-81650000D02*
X73600000Y-81650000D01*
X80682000Y-76012000D02*
X80682000Y-76672000D01*
X86300000Y-73850000D02*
X86300000Y-81650000D01*
X84400000Y-73650000D02*
X86500000Y-73650000D01*
X81317000Y-79212000D02*
X80682000Y-79212000D01*
%TO.C,D1*%
X111985000Y-80065000D02*
X110515000Y-80065000D01*
X111985000Y-82525000D02*
X111985000Y-80065000D01*
X110515000Y-80065000D02*
X110515000Y-82525000D01*
%TO.C,F8*%
X109100000Y-89720000D02*
X109100000Y-82780000D01*
X92900000Y-82780000D02*
X92900000Y-89720000D01*
X99400000Y-84250000D02*
X102600000Y-84250000D01*
X102600000Y-88250000D02*
X99400000Y-88250000D01*
X101750000Y-86250000D02*
X100250000Y-86250000D01*
X92900000Y-89720000D02*
X109100000Y-89720000D01*
X109100000Y-82780000D02*
X92900000Y-82780000D01*
%TO.C,R3*%
X138227500Y-88504724D02*
X138227500Y-87995276D01*
X139272500Y-88504724D02*
X139272500Y-87995276D01*
%TO.C,K5*%
X74242500Y-85257500D02*
X86942500Y-85257500D01*
X79860500Y-87695500D02*
X79860500Y-88330500D01*
X79352500Y-88711500D02*
X80368500Y-89346500D01*
X80368500Y-90235500D02*
X80368500Y-88330500D01*
X74242500Y-93057500D02*
X74242500Y-85257500D01*
X74042500Y-93257500D02*
X74042500Y-91057500D01*
X79352500Y-88330500D02*
X80368500Y-88330500D01*
X86942500Y-85257500D02*
X86942500Y-93057500D01*
X76142500Y-93257500D02*
X74042500Y-93257500D01*
X86942500Y-93057500D02*
X74242500Y-93057500D01*
X79225500Y-90895500D02*
X79860500Y-90895500D01*
X79352500Y-88330500D02*
X79352500Y-90235500D01*
X79352500Y-90235500D02*
X80368500Y-90235500D01*
X79225500Y-87695500D02*
X79860500Y-87695500D01*
X79860500Y-90895500D02*
X79860500Y-90235500D01*
%TO.C,C4*%
X112783767Y-85760000D02*
X112491233Y-85760000D01*
X112783767Y-84740000D02*
X112491233Y-84740000D01*
%TO.C,C8*%
X145760000Y-124508767D02*
X145760000Y-124216233D01*
X144740000Y-124508767D02*
X144740000Y-124216233D01*
%TO.C,D11*%
X87425000Y-82870000D02*
X87425000Y-72630000D01*
X87425000Y-72630000D02*
X92066000Y-72630000D01*
X87425000Y-82870000D02*
X92066000Y-82870000D01*
X87425000Y-75899000D02*
X88935000Y-75899000D01*
X92066000Y-82870000D02*
X92066000Y-72630000D01*
X88935000Y-82870000D02*
X88935000Y-72630000D01*
X87425000Y-79600000D02*
X88935000Y-79600000D01*
%TO.C,D4*%
X140000000Y-99750000D02*
X142000000Y-99750000D01*
X142000000Y-99750000D02*
X142000000Y-95850000D01*
X140000000Y-99750000D02*
X140000000Y-95850000D01*
%TO.C,F7*%
X92900000Y-106470000D02*
X109100000Y-106470000D01*
X92900000Y-99530000D02*
X92900000Y-106470000D01*
X109100000Y-106470000D02*
X109100000Y-99530000D01*
X109100000Y-99530000D02*
X92900000Y-99530000D01*
X99400000Y-101000000D02*
X102600000Y-101000000D01*
X102600000Y-105000000D02*
X99400000Y-105000000D01*
X101750000Y-103000000D02*
X100250000Y-103000000D01*
%TO.C,D9*%
X148690000Y-136750000D02*
X148690000Y-138425000D01*
X148690000Y-136750000D02*
X148690000Y-136100000D01*
X151810000Y-136750000D02*
X151810000Y-136100000D01*
X151810000Y-136750000D02*
X151810000Y-137400000D01*
%TO.C,R4*%
X159754724Y-104977500D02*
X159245276Y-104977500D01*
X159754724Y-106022500D02*
X159245276Y-106022500D01*
%TO.C,K4*%
X86692500Y-61727583D02*
X86692500Y-69527583D01*
X78975500Y-64165583D02*
X79610500Y-64165583D01*
X79102500Y-66705583D02*
X80118500Y-66705583D01*
X78975500Y-67365583D02*
X79610500Y-67365583D01*
X73992500Y-61727583D02*
X86692500Y-61727583D01*
X79610500Y-67365583D02*
X79610500Y-66705583D01*
X73992500Y-69527583D02*
X73992500Y-61727583D01*
X86692500Y-69527583D02*
X73992500Y-69527583D01*
X79610500Y-64165583D02*
X79610500Y-64800583D01*
X79102500Y-64800583D02*
X80118500Y-64800583D01*
X73792500Y-69727583D02*
X73792500Y-67527583D01*
X80118500Y-66705583D02*
X80118500Y-64800583D01*
X79102500Y-65181583D02*
X80118500Y-65816583D01*
X75892500Y-69727583D02*
X73792500Y-69727583D01*
X79102500Y-64800583D02*
X79102500Y-66705583D01*
%TO.C,D6*%
X168190000Y-80750000D02*
X168190000Y-80100000D01*
X171310000Y-80750000D02*
X171310000Y-79075000D01*
X168190000Y-80750000D02*
X168190000Y-81400000D01*
X171310000Y-80750000D02*
X171310000Y-81400000D01*
%TO.C,F10*%
X139100000Y-124470000D02*
X139100000Y-117530000D01*
X139100000Y-117530000D02*
X122900000Y-117530000D01*
X130250000Y-121000000D02*
X131750000Y-121000000D01*
X122900000Y-117530000D02*
X122900000Y-124470000D01*
X122900000Y-124470000D02*
X139100000Y-124470000D01*
X132600000Y-123000000D02*
X129400000Y-123000000D01*
X129400000Y-119000000D02*
X132600000Y-119000000D01*
%TO.C,R6*%
X150504724Y-132727500D02*
X149995276Y-132727500D01*
X150504724Y-133772500D02*
X149995276Y-133772500D01*
%TO.C,J5*%
X149317500Y-111401115D02*
X146367500Y-111401115D01*
X150817500Y-107851115D02*
X150817500Y-108851115D01*
X151567500Y-106351115D02*
X151567500Y-104551115D01*
X149317500Y-112151115D02*
X149317500Y-111401115D01*
X145607500Y-104541115D02*
X145607500Y-112161115D01*
X150817500Y-108851115D02*
X151567500Y-108851115D01*
X151567500Y-110351115D02*
X150817500Y-110351115D01*
X146367500Y-111401115D02*
X146367500Y-108351115D01*
X150817500Y-104551115D02*
X150817500Y-106351115D01*
X151567500Y-108851115D02*
X151567500Y-107851115D01*
X151567500Y-112151115D02*
X151567500Y-110351115D01*
X151577500Y-112161115D02*
X151577500Y-104541115D01*
X149317500Y-104551115D02*
X149317500Y-105301115D01*
X150817500Y-112151115D02*
X151567500Y-112151115D01*
X145607500Y-112161115D02*
X151577500Y-112161115D01*
X151867500Y-105501115D02*
X151867500Y-104251115D01*
X150817500Y-106351115D02*
X151567500Y-106351115D01*
X151567500Y-104551115D02*
X150817500Y-104551115D01*
X151577500Y-104541115D02*
X145607500Y-104541115D01*
X151567500Y-107851115D02*
X150817500Y-107851115D01*
X150817500Y-110351115D02*
X150817500Y-112151115D01*
X151867500Y-104251115D02*
X150617500Y-104251115D01*
X146367500Y-108351115D02*
X146367500Y-106361115D01*
X149317500Y-105301115D02*
X147977500Y-105301115D01*
%TO.C,F11*%
X75100000Y-134780000D02*
X58900000Y-134780000D01*
X58900000Y-134780000D02*
X58900000Y-141720000D01*
X58900000Y-141720000D02*
X75100000Y-141720000D01*
X75100000Y-141720000D02*
X75100000Y-134780000D01*
X67750000Y-138250000D02*
X66250000Y-138250000D01*
X68600000Y-140250000D02*
X65400000Y-140250000D01*
X65400000Y-136250000D02*
X68600000Y-136250000D01*
%TO.C,F2*%
X102600000Y-79500000D02*
X99400000Y-79500000D01*
X92900000Y-74030000D02*
X92900000Y-80970000D01*
X92900000Y-80970000D02*
X109100000Y-80970000D01*
X109100000Y-74030000D02*
X92900000Y-74030000D01*
X109100000Y-80970000D02*
X109100000Y-74030000D01*
X101750000Y-77500000D02*
X100250000Y-77500000D01*
X99400000Y-75500000D02*
X102600000Y-75500000D01*
%TO.C,K3*%
X118370000Y-109206115D02*
X118370000Y-109906115D01*
X118220000Y-108076115D02*
X117160000Y-108076115D01*
X118220000Y-111076115D02*
X118220000Y-108076115D01*
X137750000Y-104376115D02*
X117160000Y-104376115D01*
X137750000Y-114756115D02*
X137750000Y-104376115D01*
X117010000Y-114916115D02*
X117010000Y-113706115D01*
X119000000Y-109206115D02*
X119000000Y-108106115D01*
X119570000Y-109206115D02*
X118370000Y-109206115D01*
X117160000Y-114756115D02*
X137750000Y-114756115D01*
X117160000Y-104376115D02*
X117160000Y-114756115D01*
X117160000Y-111076115D02*
X118200000Y-111076115D01*
X119000000Y-109906115D02*
X119000000Y-111006115D01*
X118370000Y-109906115D02*
X119570000Y-109906115D01*
X119170000Y-109906115D02*
X118770000Y-109206115D01*
X118310000Y-114916115D02*
X117010000Y-114916115D01*
X119570000Y-109906115D02*
X119570000Y-109206115D01*
D15*
%TO.C,J1*%
X71637500Y-60850000D02*
X53787500Y-60850000D01*
X53787500Y-121650000D02*
X53787500Y-60850000D01*
X71637500Y-121650000D02*
X71637500Y-60850000D01*
X53787500Y-121650000D02*
X71637500Y-121650000D01*
D16*
X72387500Y-77250000D02*
G75*
G03*
X72387500Y-77250000I-100000J0D01*
G01*
D14*
%TO.C,R7*%
X159754724Y-112477500D02*
X159245276Y-112477500D01*
X159754724Y-113522500D02*
X159245276Y-113522500D01*
%TO.C,F5*%
X92900000Y-108030000D02*
X92900000Y-114970000D01*
X102600000Y-113500000D02*
X99400000Y-113500000D01*
X101750000Y-111500000D02*
X100250000Y-111500000D01*
X109100000Y-108030000D02*
X92900000Y-108030000D01*
X109100000Y-114970000D02*
X109100000Y-108030000D01*
X99400000Y-109500000D02*
X102600000Y-109500000D01*
X92900000Y-114970000D02*
X109100000Y-114970000D01*
%TO.C,C1*%
X118578733Y-76485000D02*
X118871267Y-76485000D01*
X118578733Y-75465000D02*
X118871267Y-75465000D01*
%TO.C,F3*%
X102650000Y-117530000D02*
X102650000Y-124470000D01*
X112350000Y-123000000D02*
X109150000Y-123000000D01*
X118850000Y-124470000D02*
X118850000Y-117530000D01*
X109150000Y-119000000D02*
X112350000Y-119000000D01*
X110000000Y-121000000D02*
X111500000Y-121000000D01*
X102650000Y-124470000D02*
X118850000Y-124470000D01*
X118850000Y-117530000D02*
X102650000Y-117530000D01*
%TO.C,R2*%
X123952500Y-84979724D02*
X123952500Y-84470276D01*
X124997500Y-84979724D02*
X124997500Y-84470276D01*
D15*
%TO.C,J2*%
X197900000Y-76550000D02*
X197900000Y-58700000D01*
X137100000Y-58700000D02*
X137100000Y-76550000D01*
X137100000Y-58700000D02*
X197900000Y-58700000D01*
X137100000Y-76550000D02*
X197900000Y-76550000D01*
D16*
X181600000Y-77200000D02*
G75*
G03*
X181600000Y-77200000I-100000J0D01*
G01*
D14*
%TO.C,J6*%
X144917500Y-148610000D02*
X155137500Y-148610000D01*
X155337500Y-144800000D02*
X155937500Y-144500000D01*
X155937500Y-145100000D02*
X155337500Y-144800000D01*
X144917500Y-139890000D02*
X144917500Y-148610000D01*
X155937500Y-144500000D02*
X155937500Y-145100000D01*
X155137500Y-139890000D02*
X144917500Y-139890000D01*
X155137500Y-148610000D02*
X155137500Y-139890000D01*
%TO.C,D8*%
X125210000Y-80275000D02*
X125210000Y-77815000D01*
X123740000Y-77815000D02*
X123740000Y-80275000D01*
X125210000Y-77815000D02*
X123740000Y-77815000D01*
%TO.C,Q1*%
X146940000Y-86250000D02*
X146940000Y-86900000D01*
X146940000Y-86250000D02*
X146940000Y-85600000D01*
X150060000Y-86250000D02*
X150060000Y-84575000D01*
X150060000Y-86250000D02*
X150060000Y-86900000D01*
%TO.C,U2*%
X115530000Y-83680000D02*
X114430000Y-83680000D01*
X115530000Y-77320000D02*
X112700000Y-77320000D01*
X117030000Y-83950000D02*
X115530000Y-83950000D01*
X117030000Y-77050000D02*
X115530000Y-77050000D01*
X115530000Y-83950000D02*
X115530000Y-83680000D01*
X115530000Y-77050000D02*
X115530000Y-77320000D01*
%TO.C,D12*%
X88990000Y-70580000D02*
X88990000Y-60340000D01*
X87480000Y-67310000D02*
X88990000Y-67310000D01*
X92121000Y-70580000D02*
X92121000Y-60340000D01*
X87480000Y-60340000D02*
X92121000Y-60340000D01*
X87480000Y-70580000D02*
X92121000Y-70580000D01*
X87480000Y-63609000D02*
X88990000Y-63609000D01*
X87480000Y-70580000D02*
X87480000Y-60340000D01*
%TO.C,D2*%
X161940000Y-80687500D02*
X161940000Y-80037500D01*
X165060000Y-80687500D02*
X165060000Y-79012500D01*
X165060000Y-80687500D02*
X165060000Y-81337500D01*
X161940000Y-80687500D02*
X161940000Y-81337500D01*
%TD*%
D18*
%TO.C,J3*%
X160500000Y-158437500D03*
X139500000Y-158437500D03*
%TD*%
%TO.C,J1*%
X65087500Y-111750000D03*
X65087500Y-70750000D03*
%TD*%
%TO.C,J2*%
X188000000Y-70000000D03*
X147000000Y-70000000D03*
%TD*%
M02*
