%TF.GenerationSoftware,KiCad,Pcbnew,(6.0.1-0)*%
%TF.CreationDate,2023-02-28T13:23:54-05:00*%
%TF.ProjectId,rear-control-board,72656172-2d63-46f6-9e74-726f6c2d626f,rev?*%
%TF.SameCoordinates,Original*%
%TF.FileFunction,Legend,Bot*%
%TF.FilePolarity,Positive*%
%FSLAX46Y46*%
G04 Gerber Fmt 4.6, Leading zero omitted, Abs format (unit mm)*
G04 Created by KiCad (PCBNEW (6.0.1-0)) date 2023-02-28 13:23:54*
%MOMM*%
%LPD*%
G01*
G04 APERTURE LIST*
%ADD10C,0.150000*%
%ADD11C,0.120000*%
G04 APERTURE END LIST*
D10*
%TO.C,C2*%
X73257142Y-62548333D02*
X73304761Y-62500714D01*
X73352380Y-62357857D01*
X73352380Y-62262619D01*
X73304761Y-62119761D01*
X73209523Y-62024523D01*
X73114285Y-61976904D01*
X72923809Y-61929285D01*
X72780952Y-61929285D01*
X72590476Y-61976904D01*
X72495238Y-62024523D01*
X72400000Y-62119761D01*
X72352380Y-62262619D01*
X72352380Y-62357857D01*
X72400000Y-62500714D01*
X72447619Y-62548333D01*
X72447619Y-62929285D02*
X72400000Y-62976904D01*
X72352380Y-63072142D01*
X72352380Y-63310238D01*
X72400000Y-63405476D01*
X72447619Y-63453095D01*
X72542857Y-63500714D01*
X72638095Y-63500714D01*
X72780952Y-63453095D01*
X73352380Y-62881666D01*
X73352380Y-63500714D01*
%TO.C,D3*%
X80148095Y-124952380D02*
X80148095Y-123952380D01*
X79910000Y-123952380D01*
X79767142Y-124000000D01*
X79671904Y-124095238D01*
X79624285Y-124190476D01*
X79576666Y-124380952D01*
X79576666Y-124523809D01*
X79624285Y-124714285D01*
X79671904Y-124809523D01*
X79767142Y-124904761D01*
X79910000Y-124952380D01*
X80148095Y-124952380D01*
X79243333Y-123952380D02*
X78624285Y-123952380D01*
X78957619Y-124333333D01*
X78814761Y-124333333D01*
X78719523Y-124380952D01*
X78671904Y-124428571D01*
X78624285Y-124523809D01*
X78624285Y-124761904D01*
X78671904Y-124857142D01*
X78719523Y-124904761D01*
X78814761Y-124952380D01*
X79100476Y-124952380D01*
X79195714Y-124904761D01*
X79243333Y-124857142D01*
%TO.C,JP1*%
X149358333Y-80152380D02*
X149358333Y-80866666D01*
X149405952Y-81009523D01*
X149501190Y-81104761D01*
X149644047Y-81152380D01*
X149739285Y-81152380D01*
X148882142Y-81152380D02*
X148882142Y-80152380D01*
X148501190Y-80152380D01*
X148405952Y-80200000D01*
X148358333Y-80247619D01*
X148310714Y-80342857D01*
X148310714Y-80485714D01*
X148358333Y-80580952D01*
X148405952Y-80628571D01*
X148501190Y-80676190D01*
X148882142Y-80676190D01*
X147358333Y-81152380D02*
X147929761Y-81152380D01*
X147644047Y-81152380D02*
X147644047Y-80152380D01*
X147739285Y-80295238D01*
X147834523Y-80390476D01*
X147929761Y-80438095D01*
%TO.C,R8*%
X148882380Y-117083333D02*
X148406190Y-116750000D01*
X148882380Y-116511904D02*
X147882380Y-116511904D01*
X147882380Y-116892857D01*
X147930000Y-116988095D01*
X147977619Y-117035714D01*
X148072857Y-117083333D01*
X148215714Y-117083333D01*
X148310952Y-117035714D01*
X148358571Y-116988095D01*
X148406190Y-116892857D01*
X148406190Y-116511904D01*
X148310952Y-117654761D02*
X148263333Y-117559523D01*
X148215714Y-117511904D01*
X148120476Y-117464285D01*
X148072857Y-117464285D01*
X147977619Y-117511904D01*
X147930000Y-117559523D01*
X147882380Y-117654761D01*
X147882380Y-117845238D01*
X147930000Y-117940476D01*
X147977619Y-117988095D01*
X148072857Y-118035714D01*
X148120476Y-118035714D01*
X148215714Y-117988095D01*
X148263333Y-117940476D01*
X148310952Y-117845238D01*
X148310952Y-117654761D01*
X148358571Y-117559523D01*
X148406190Y-117511904D01*
X148501428Y-117464285D01*
X148691904Y-117464285D01*
X148787142Y-117511904D01*
X148834761Y-117559523D01*
X148882380Y-117654761D01*
X148882380Y-117845238D01*
X148834761Y-117940476D01*
X148787142Y-117988095D01*
X148691904Y-118035714D01*
X148501428Y-118035714D01*
X148406190Y-117988095D01*
X148358571Y-117940476D01*
X148310952Y-117845238D01*
%TO.C,C13*%
X78107142Y-72357142D02*
X78154761Y-72309523D01*
X78202380Y-72166666D01*
X78202380Y-72071428D01*
X78154761Y-71928571D01*
X78059523Y-71833333D01*
X77964285Y-71785714D01*
X77773809Y-71738095D01*
X77630952Y-71738095D01*
X77440476Y-71785714D01*
X77345238Y-71833333D01*
X77250000Y-71928571D01*
X77202380Y-72071428D01*
X77202380Y-72166666D01*
X77250000Y-72309523D01*
X77297619Y-72357142D01*
X78202380Y-73309523D02*
X78202380Y-72738095D01*
X78202380Y-73023809D02*
X77202380Y-73023809D01*
X77345238Y-72928571D01*
X77440476Y-72833333D01*
X77488095Y-72738095D01*
X77202380Y-73642857D02*
X77202380Y-74261904D01*
X77583333Y-73928571D01*
X77583333Y-74071428D01*
X77630952Y-74166666D01*
X77678571Y-74214285D01*
X77773809Y-74261904D01*
X78011904Y-74261904D01*
X78107142Y-74214285D01*
X78154761Y-74166666D01*
X78202380Y-74071428D01*
X78202380Y-73785714D01*
X78154761Y-73690476D01*
X78107142Y-73642857D01*
%TO.C,C3*%
X84554166Y-95857142D02*
X84601785Y-95904761D01*
X84744642Y-95952380D01*
X84839880Y-95952380D01*
X84982738Y-95904761D01*
X85077976Y-95809523D01*
X85125595Y-95714285D01*
X85173214Y-95523809D01*
X85173214Y-95380952D01*
X85125595Y-95190476D01*
X85077976Y-95095238D01*
X84982738Y-95000000D01*
X84839880Y-94952380D01*
X84744642Y-94952380D01*
X84601785Y-95000000D01*
X84554166Y-95047619D01*
X84220833Y-94952380D02*
X83601785Y-94952380D01*
X83935119Y-95333333D01*
X83792261Y-95333333D01*
X83697023Y-95380952D01*
X83649404Y-95428571D01*
X83601785Y-95523809D01*
X83601785Y-95761904D01*
X83649404Y-95857142D01*
X83697023Y-95904761D01*
X83792261Y-95952380D01*
X84077976Y-95952380D01*
X84173214Y-95904761D01*
X84220833Y-95857142D01*
%TO.C,R5*%
X143022380Y-117083333D02*
X142546190Y-116750000D01*
X143022380Y-116511904D02*
X142022380Y-116511904D01*
X142022380Y-116892857D01*
X142070000Y-116988095D01*
X142117619Y-117035714D01*
X142212857Y-117083333D01*
X142355714Y-117083333D01*
X142450952Y-117035714D01*
X142498571Y-116988095D01*
X142546190Y-116892857D01*
X142546190Y-116511904D01*
X142022380Y-117988095D02*
X142022380Y-117511904D01*
X142498571Y-117464285D01*
X142450952Y-117511904D01*
X142403333Y-117607142D01*
X142403333Y-117845238D01*
X142450952Y-117940476D01*
X142498571Y-117988095D01*
X142593809Y-118035714D01*
X142831904Y-118035714D01*
X142927142Y-117988095D01*
X142974761Y-117940476D01*
X143022380Y-117845238D01*
X143022380Y-117607142D01*
X142974761Y-117511904D01*
X142927142Y-117464285D01*
%TO.C,D7*%
X183488095Y-119702380D02*
X183488095Y-118702380D01*
X183250000Y-118702380D01*
X183107142Y-118750000D01*
X183011904Y-118845238D01*
X182964285Y-118940476D01*
X182916666Y-119130952D01*
X182916666Y-119273809D01*
X182964285Y-119464285D01*
X183011904Y-119559523D01*
X183107142Y-119654761D01*
X183250000Y-119702380D01*
X183488095Y-119702380D01*
X182583333Y-118702380D02*
X181916666Y-118702380D01*
X182345238Y-119702380D01*
D11*
%TO.C,C2*%
X72490000Y-65353733D02*
X72490000Y-65646267D01*
X73510000Y-65353733D02*
X73510000Y-65646267D01*
%TO.C,D3*%
X74070000Y-127300000D02*
X74070000Y-127570000D01*
X74070000Y-133930000D02*
X75170000Y-133930000D01*
X74070000Y-127570000D02*
X76900000Y-127570000D01*
X72570000Y-134200000D02*
X74070000Y-134200000D01*
X72570000Y-127300000D02*
X74070000Y-127300000D01*
X74070000Y-134200000D02*
X74070000Y-133930000D01*
%TO.C,JP1*%
X147125000Y-81500000D02*
X147125000Y-83500000D01*
X149925000Y-83500000D02*
X149925000Y-81500000D01*
X149925000Y-81500000D02*
X147125000Y-81500000D01*
X147125000Y-83500000D02*
X149925000Y-83500000D01*
%TO.C,R8*%
X147522500Y-117504724D02*
X147522500Y-116995276D01*
X146477500Y-117504724D02*
X146477500Y-116995276D01*
%TO.C,C13*%
X78260000Y-76146267D02*
X78260000Y-75853733D01*
X77240000Y-76146267D02*
X77240000Y-75853733D01*
%TO.C,C3*%
X87146267Y-94990000D02*
X86853733Y-94990000D01*
X87146267Y-96010000D02*
X86853733Y-96010000D01*
%TO.C,R5*%
X144522500Y-116995276D02*
X144522500Y-117504724D01*
X143477500Y-116995276D02*
X143477500Y-117504724D01*
%TO.C,D7*%
X182250000Y-123310000D02*
X181600000Y-123310000D01*
X182250000Y-123310000D02*
X182900000Y-123310000D01*
X182250000Y-120190000D02*
X183925000Y-120190000D01*
X182250000Y-120190000D02*
X181600000Y-120190000D01*
%TD*%
M02*
