%TF.GenerationSoftware,KiCad,Pcbnew,(6.0.1-0)*%
%TF.CreationDate,2023-02-28T13:35:45-05:00*%
%TF.ProjectId,Front Board,46726f6e-7420-4426-9f61-72642e6b6963,rev?*%
%TF.SameCoordinates,Original*%
%TF.FileFunction,Legend,Bot*%
%TF.FilePolarity,Positive*%
%FSLAX46Y46*%
G04 Gerber Fmt 4.6, Leading zero omitted, Abs format (unit mm)*
G04 Created by KiCad (PCBNEW (6.0.1-0)) date 2023-02-28 13:35:45*
%MOMM*%
%LPD*%
G01*
G04 APERTURE LIST*
%ADD10C,0.150000*%
%ADD11C,0.120000*%
%ADD12C,0.127000*%
%ADD13C,0.200000*%
G04 APERTURE END LIST*
D10*
%TO.C,R1*%
X177382380Y-78263333D02*
X176906190Y-77930000D01*
X177382380Y-77691904D02*
X176382380Y-77691904D01*
X176382380Y-78072857D01*
X176430000Y-78168095D01*
X176477619Y-78215714D01*
X176572857Y-78263333D01*
X176715714Y-78263333D01*
X176810952Y-78215714D01*
X176858571Y-78168095D01*
X176906190Y-78072857D01*
X176906190Y-77691904D01*
X177382380Y-79215714D02*
X177382380Y-78644285D01*
X177382380Y-78930000D02*
X176382380Y-78930000D01*
X176525238Y-78834761D01*
X176620476Y-78739523D01*
X176668095Y-78644285D01*
%TO.C,D7*%
X120713095Y-67277380D02*
X120713095Y-66277380D01*
X120475000Y-66277380D01*
X120332142Y-66325000D01*
X120236904Y-66420238D01*
X120189285Y-66515476D01*
X120141666Y-66705952D01*
X120141666Y-66848809D01*
X120189285Y-67039285D01*
X120236904Y-67134523D01*
X120332142Y-67229761D01*
X120475000Y-67277380D01*
X120713095Y-67277380D01*
X119808333Y-66277380D02*
X119141666Y-66277380D01*
X119570238Y-67277380D01*
%TO.C,C2*%
X129507142Y-71470833D02*
X129554761Y-71423214D01*
X129602380Y-71280357D01*
X129602380Y-71185119D01*
X129554761Y-71042261D01*
X129459523Y-70947023D01*
X129364285Y-70899404D01*
X129173809Y-70851785D01*
X129030952Y-70851785D01*
X128840476Y-70899404D01*
X128745238Y-70947023D01*
X128650000Y-71042261D01*
X128602380Y-71185119D01*
X128602380Y-71280357D01*
X128650000Y-71423214D01*
X128697619Y-71470833D01*
X128697619Y-71851785D02*
X128650000Y-71899404D01*
X128602380Y-71994642D01*
X128602380Y-72232738D01*
X128650000Y-72327976D01*
X128697619Y-72375595D01*
X128792857Y-72423214D01*
X128888095Y-72423214D01*
X129030952Y-72375595D01*
X129602380Y-71804166D01*
X129602380Y-72423214D01*
%TO.C,C1*%
X120041666Y-68982142D02*
X120089285Y-69029761D01*
X120232142Y-69077380D01*
X120327380Y-69077380D01*
X120470238Y-69029761D01*
X120565476Y-68934523D01*
X120613095Y-68839285D01*
X120660714Y-68648809D01*
X120660714Y-68505952D01*
X120613095Y-68315476D01*
X120565476Y-68220238D01*
X120470238Y-68125000D01*
X120327380Y-68077380D01*
X120232142Y-68077380D01*
X120089285Y-68125000D01*
X120041666Y-68172619D01*
X119089285Y-69077380D02*
X119660714Y-69077380D01*
X119375000Y-69077380D02*
X119375000Y-68077380D01*
X119470238Y-68220238D01*
X119565476Y-68315476D01*
X119660714Y-68363095D01*
%TO.C,U1*%
X170166904Y-81014380D02*
X170166904Y-81823904D01*
X170119285Y-81919142D01*
X170071666Y-81966761D01*
X169976428Y-82014380D01*
X169785952Y-82014380D01*
X169690714Y-81966761D01*
X169643095Y-81919142D01*
X169595476Y-81823904D01*
X169595476Y-81014380D01*
X168595476Y-82014380D02*
X169166904Y-82014380D01*
X168881190Y-82014380D02*
X168881190Y-81014380D01*
X168976428Y-81157238D01*
X169071666Y-81252476D01*
X169166904Y-81300095D01*
%TO.C,C4*%
X167704166Y-73357142D02*
X167751785Y-73404761D01*
X167894642Y-73452380D01*
X167989880Y-73452380D01*
X168132738Y-73404761D01*
X168227976Y-73309523D01*
X168275595Y-73214285D01*
X168323214Y-73023809D01*
X168323214Y-72880952D01*
X168275595Y-72690476D01*
X168227976Y-72595238D01*
X168132738Y-72500000D01*
X167989880Y-72452380D01*
X167894642Y-72452380D01*
X167751785Y-72500000D01*
X167704166Y-72547619D01*
X166847023Y-72785714D02*
X166847023Y-73452380D01*
X167085119Y-72404761D02*
X167323214Y-73119047D01*
X166704166Y-73119047D01*
%TO.C,D1*%
X180038095Y-81382380D02*
X180038095Y-80382380D01*
X179800000Y-80382380D01*
X179657142Y-80430000D01*
X179561904Y-80525238D01*
X179514285Y-80620476D01*
X179466666Y-80810952D01*
X179466666Y-80953809D01*
X179514285Y-81144285D01*
X179561904Y-81239523D01*
X179657142Y-81334761D01*
X179800000Y-81382380D01*
X180038095Y-81382380D01*
X178514285Y-81382380D02*
X179085714Y-81382380D01*
X178800000Y-81382380D02*
X178800000Y-80382380D01*
X178895238Y-80525238D01*
X178990476Y-80620476D01*
X179085714Y-80668095D01*
%TO.C,R2*%
X135841666Y-65402380D02*
X136175000Y-64926190D01*
X136413095Y-65402380D02*
X136413095Y-64402380D01*
X136032142Y-64402380D01*
X135936904Y-64450000D01*
X135889285Y-64497619D01*
X135841666Y-64592857D01*
X135841666Y-64735714D01*
X135889285Y-64830952D01*
X135936904Y-64878571D01*
X136032142Y-64926190D01*
X136413095Y-64926190D01*
X135460714Y-64497619D02*
X135413095Y-64450000D01*
X135317857Y-64402380D01*
X135079761Y-64402380D01*
X134984523Y-64450000D01*
X134936904Y-64497619D01*
X134889285Y-64592857D01*
X134889285Y-64688095D01*
X134936904Y-64830952D01*
X135508333Y-65402380D01*
X134889285Y-65402380D01*
%TO.C,C3*%
X173257142Y-70463333D02*
X173304761Y-70415714D01*
X173352380Y-70272857D01*
X173352380Y-70177619D01*
X173304761Y-70034761D01*
X173209523Y-69939523D01*
X173114285Y-69891904D01*
X172923809Y-69844285D01*
X172780952Y-69844285D01*
X172590476Y-69891904D01*
X172495238Y-69939523D01*
X172400000Y-70034761D01*
X172352380Y-70177619D01*
X172352380Y-70272857D01*
X172400000Y-70415714D01*
X172447619Y-70463333D01*
X172352380Y-70796666D02*
X172352380Y-71415714D01*
X172733333Y-71082380D01*
X172733333Y-71225238D01*
X172780952Y-71320476D01*
X172828571Y-71368095D01*
X172923809Y-71415714D01*
X173161904Y-71415714D01*
X173257142Y-71368095D01*
X173304761Y-71320476D01*
X173352380Y-71225238D01*
X173352380Y-70939523D01*
X173304761Y-70844285D01*
X173257142Y-70796666D01*
D11*
%TO.C,R1*%
X174977500Y-78684724D02*
X174977500Y-78175276D01*
X176022500Y-78684724D02*
X176022500Y-78175276D01*
%TO.C,D7*%
X118100000Y-67560000D02*
X115640000Y-67560000D01*
X115640000Y-66090000D02*
X118100000Y-66090000D01*
X115640000Y-67560000D02*
X115640000Y-66090000D01*
%TO.C,C2*%
X130240000Y-71783767D02*
X130240000Y-71491233D01*
X131260000Y-71783767D02*
X131260000Y-71491233D01*
%TO.C,C1*%
X117091233Y-68115000D02*
X117383767Y-68115000D01*
X117091233Y-69135000D02*
X117383767Y-69135000D01*
D12*
%TO.C,U1*%
X168200000Y-75710000D02*
X172200000Y-75710000D01*
X168200000Y-80750000D02*
X172200000Y-80750000D01*
D13*
X165855000Y-80725000D02*
G75*
G03*
X165855000Y-80725000I-100000J0D01*
G01*
D11*
%TO.C,C4*%
X167683767Y-73920000D02*
X167391233Y-73920000D01*
X167683767Y-74940000D02*
X167391233Y-74940000D01*
%TO.C,D1*%
X179300000Y-80090000D02*
X179950000Y-80090000D01*
X179300000Y-76970000D02*
X179950000Y-76970000D01*
X179300000Y-80090000D02*
X177625000Y-80090000D01*
X179300000Y-76970000D02*
X178650000Y-76970000D01*
%TO.C,R2*%
X133229724Y-64527500D02*
X132720276Y-64527500D01*
X133229724Y-65572500D02*
X132720276Y-65572500D01*
%TO.C,C3*%
X172390000Y-73513767D02*
X172390000Y-73221233D01*
X173410000Y-73513767D02*
X173410000Y-73221233D01*
%TD*%
M02*
